<mxfile host="app.diagrams.net" agent="Mozilla/5.0 (Windows NT 10.0; Win64; x64) AppleWebKit/537.36 (KHTML, like Gecko) Chrome/136.0.0.0 Safari/537.36" version="27.0.4" pages="3">
  <diagram name="Adaptador Universal" id="-ICQzN5TTwIt-EsHX7Ux">
    <mxGraphModel dx="1667" dy="757" grid="1" gridSize="10" guides="1" tooltips="1" connect="1" arrows="1" fold="1" page="1" pageScale="1" pageWidth="827" pageHeight="1169" math="0" shadow="0">
      <root>
        <mxCell id="0" />
        <mxCell id="1" parent="0" />
        <mxCell id="u60hzt4KQYkF20324PbD-1" style="edgeStyle=orthogonalEdgeStyle;rounded=0;orthogonalLoop=1;jettySize=auto;html=1;" parent="1" source="u60hzt4KQYkF20324PbD-14" target="u60hzt4KQYkF20324PbD-23" edge="1">
          <mxGeometry relative="1" as="geometry" />
        </mxCell>
        <mxCell id="u60hzt4KQYkF20324PbD-2" value="Adaptador Universal - Flujo InformaciÃ³n" style="text;html=1;strokeColor=none;fillColor=none;align=center;verticalAlign=middle;whiteSpace=wrap;rounded=0;fontStyle=1" parent="1" vertex="1">
          <mxGeometry x="19" y="122" width="253" height="30" as="geometry" />
        </mxCell>
        <mxCell id="u60hzt4KQYkF20324PbD-3" style="edgeStyle=orthogonalEdgeStyle;rounded=0;orthogonalLoop=1;jettySize=auto;html=1;" parent="1" source="u60hzt4KQYkF20324PbD-7" target="u60hzt4KQYkF20324PbD-12" edge="1">
          <mxGeometry relative="1" as="geometry" />
        </mxCell>
        <mxCell id="u60hzt4KQYkF20324PbD-4" value="Consorcio" style="swimlane;horizontal=0;whiteSpace=wrap;html=1;" parent="1" vertex="1">
          <mxGeometry x="19" y="312" width="889" height="150" as="geometry" />
        </mxCell>
        <mxCell id="u60hzt4KQYkF20324PbD-5" value="SAP" style="rounded=1;whiteSpace=wrap;html=1;verticalAlign=bottom;" parent="u60hzt4KQYkF20324PbD-4" vertex="1">
          <mxGeometry x="75" y="40" width="120" height="60" as="geometry" />
        </mxCell>
        <mxCell id="u60hzt4KQYkF20324PbD-6" value="" style="image;sketch=0;aspect=fixed;html=1;points=[];align=center;fontSize=12;image=img/lib/mscae/SAP_HANA_on_Azure.svg;" parent="u60hzt4KQYkF20324PbD-4" vertex="1">
          <mxGeometry x="110" y="49" width="62" height="31" as="geometry" />
        </mxCell>
        <mxCell id="u60hzt4KQYkF20324PbD-7" value="SFTP" style="rounded=1;whiteSpace=wrap;html=1;verticalAlign=bottom;" parent="u60hzt4KQYkF20324PbD-4" vertex="1">
          <mxGeometry x="280" y="40" width="120" height="60" as="geometry" />
        </mxCell>
        <mxCell id="u60hzt4KQYkF20324PbD-8" style="edgeStyle=orthogonalEdgeStyle;rounded=0;orthogonalLoop=1;jettySize=auto;html=1;" parent="u60hzt4KQYkF20324PbD-4" source="u60hzt4KQYkF20324PbD-5" target="u60hzt4KQYkF20324PbD-7" edge="1">
          <mxGeometry relative="1" as="geometry" />
        </mxCell>
        <mxCell id="u60hzt4KQYkF20324PbD-9" value="" style="sketch=0;outlineConnect=0;fontColor=#232F3E;gradientColor=none;fillColor=#067F68;strokeColor=none;dashed=0;verticalLabelPosition=bottom;verticalAlign=top;align=center;html=1;fontSize=12;fontStyle=0;aspect=fixed;shape=mxgraph.aws4.transfer_for_sftp_resource;" parent="u60hzt4KQYkF20324PbD-4" vertex="1">
          <mxGeometry x="322.46" y="43.5" width="35.08" height="36" as="geometry" />
        </mxCell>
        <mxCell id="u60hzt4KQYkF20324PbD-10" value="Compensar" style="swimlane;horizontal=0;whiteSpace=wrap;html=1;verticalAlign=bottom;" parent="1" vertex="1">
          <mxGeometry x="19" y="462" width="888" height="150" as="geometry" />
        </mxCell>
        <mxCell id="u60hzt4KQYkF20324PbD-11" style="edgeStyle=orthogonalEdgeStyle;rounded=0;orthogonalLoop=1;jettySize=auto;html=1;exitX=1;exitY=0.5;exitDx=0;exitDy=0;entryX=0;entryY=0.5;entryDx=0;entryDy=0;" parent="u60hzt4KQYkF20324PbD-10" source="u60hzt4KQYkF20324PbD-12" target="u60hzt4KQYkF20324PbD-14" edge="1">
          <mxGeometry relative="1" as="geometry" />
        </mxCell>
        <mxCell id="u60hzt4KQYkF20324PbD-12" value="Ruta Compartida" style="rounded=1;whiteSpace=wrap;html=1;verticalAlign=bottom;" parent="u60hzt4KQYkF20324PbD-10" vertex="1">
          <mxGeometry x="280" y="40" width="120" height="65" as="geometry" />
        </mxCell>
        <mxCell id="u60hzt4KQYkF20324PbD-13" value="" style="sketch=0;pointerEvents=1;shadow=0;dashed=0;html=1;strokeColor=none;fillColor=#505050;labelPosition=center;verticalLabelPosition=bottom;verticalAlign=top;outlineConnect=0;align=center;shape=mxgraph.office.servers.file_server;" parent="u60hzt4KQYkF20324PbD-10" vertex="1">
          <mxGeometry x="330" y="59.5" width="20" height="26" as="geometry" />
        </mxCell>
        <mxCell id="u60hzt4KQYkF20324PbD-14" value="&lt;b&gt;Adaptador Universal&lt;/b&gt;" style="rounded=1;whiteSpace=wrap;html=1;verticalAlign=bottom;" parent="u60hzt4KQYkF20324PbD-10" vertex="1">
          <mxGeometry x="590" y="40" width="120" height="65" as="geometry" />
        </mxCell>
        <mxCell id="u60hzt4KQYkF20324PbD-15" value="" style="shape=image;verticalLabelPosition=bottom;labelBackgroundColor=default;verticalAlign=top;aspect=fixed;imageAspect=0;image=data:image/png,iVBORw0KGgoAAAANSUhEUgAAAR4AAACNCAYAAABhTBWPAAAgAElEQVR4Ae2dB5hbxdX3teuWAC/vl/KmvXnpwRgwNs3UhI7pBmMSDAkJYAglIRhCS8BgTOCBGAzG1NBMx17trtu6r7uxcTeu67burLeoSyvpSv/v+c/VSFdtdbWWVtrduX7Gc/udezTz23POnJlrgVqUBJQElATaWAKWNn6eepySgJKAkgAUeFQlUBJQEmhzCSjwtLnI1QOVBJQEFHhUHVASUBJocwko8LS5yNUDlQSUBBR4VB1QElASaHMJKPC0ucjVA5UElAQUeFQdUBJQEmhzCSjwtLnI1QOVBJQEFHiKug6EATCpRUmgY0lAgadIf88QgJD4pyEMTWwJBoV1FEkkhaH/08+PvEzYcJJ+pbiTgliR/th5KFY4HAaTceF2KBSCpmkil+cknme8Jl/rCjz5kmwr7yuBwssJHg0BhBAECB9WpJCODwkaHU5BaAghAMAfBhxeYLsTWGkHFtqASQ1hzHdrcLayTOqy9iEBQsVut2P79u1Yu3YtlixZgrlz56KqqgoVFRWwWq0YP348vvrqK5SVlaG8vFzsmz59OhYuXIiVK1fi22+/xZYtW1BfX49AgDUqP4sCT37k2uq7GsEjQJN4JyozGtAUADZ4gMWOAGbbfKg84MPYXT6M3uLHsG813LY8gMu+0XD2Ig3HzfTgT+vCqPEWl87Dv7x+vz9lYqXn8Xwt/CvPZyQ+n/uCwaB4diE0gWzel+Wz2WxYs2YNZs2ahU8//RQjR47Egw8+iNtuuw0DBgzAhRdeiD59+uC4447DscceG03G7X79+uHyyy/HwIED8Yc//AH3338/XnjhBXz00UcCTIQSgdTY2Cg0JVnGg5GPAo+UotlckCFehTV7qbnzqMsEQR3GBg27g34sdwUw1xZAxYEgPqhtxqhNXjy2zoffLfPhwkVunLrQhWNmO/HfE23oNr4JXcsc6FLuQEmFHV2sHnSzOnDzqgC2FBF4CJVFixbhjTfewJtvvpmUvvzyS/GXm5VbJnPyM3cWNYMZM2bgrbfeiktvv/023nnnHcyZMwdOZ3HqiD6fDytWrBBaCwFByFx88cX41a9+JQBDqKRKRvBw/ZhjjomCSB7jvqOPPlqk448/HieffDKuuuoq3HHHHXj++ecxduxYoUVRK/J4POaEneIsBZ4UQkncFaeFkAsajR/dyBHnCluavpgwLaFoiukXhjtwlSdF3MY0og74gbUODbOaNIyrD2J0rYbntvjw2GYv7llrxzVL3Th/kRs953rwgylNKCmvh6WsHpbxjbCMt8FS5kCp1YEuVgdKy50oKXeitMKO0oomAZ0u5XYMWqNhc3OsRHoJCvc/NQ1WZNkAWOGNiZWdf8UldA7mr2uqt9y1axeGDh2atoE++uij4DnFsEgZUOOg6fTKK6/g1ltvxRlnnBEHDyk/yjQVeIxajgRNYi7vwZznMyeI5Hm9evXC1VdfLbSiV199FfPmzWuVZqrAY6JmRVkhVzTqJMLrovc5cb8BJLSMeVwstBY0wBEANrrCqG4EyuuAD/cAL24J4on1zbh7lRcDvnbg7PlOHD/XjcOqmtGl3Cm0FmouianUakdJmR2WMkJHT9zmfgEgwzVdy3UADVoTQo2v+MDDv9KyUhvzK6+8UoCHMpQNLyLRg854v507d+Khhx5K2UBZpmIBD8tKzYJ+mGHDhuHaa68Vmo1RVqnW04HHuF9eJ/fJ7XS5PE/m1IgeeOABNDc3JzmyM/1ICjyZJBQBSoQt4uyQ0HDCCIciqktEzfEEgb0+YHlTCBPrgY/2Ai9u0vDISj/+vDyAAV8HcPbCZpw4z4P/m+nAoRNssFidsBAkVgdKxutAITwSAWKEjzxO2BhTJvAUk6klNZ6WwDNz5swodNgAc7VkAg8bFsGze/fuXD2y1fehk/jf//63MHcoK2og6cBg3C/hkM+czxsyZIgAT7Yv2InAY1BLspVS5HzyxQsNB/xuLHGGMGF/Mz7aBzxf48f9a5txxwofBi/xo/88H06f24xjZ3nx31Oc6EoNxOpGablL+F0s5Y2wWBt1E2mcE93GOdF1PMHjhIUwEeCxJ2k6cfApJ5yklmPM4zUko8ajwKP/kJnAwwZF8OzZs6eVNeXgL6OWU1lZKXwrvXv3jsJGmkJGyKRazwdw+JzE+951113CQZ/tG3cY8Mh4FmH7RMwbgiIAPxD2A1I7ibhYdG9MJN6F59M2iigwrJhNQWCNPYDKOj/e2RfEP7cBd69qxi3LnRi41IZzF7rRu9qBo2d78IMqJ0oq7Sgpt6HU6kSp1YUSK30tDpSUc78DFrFuQwmhI8DTJDSdUjqChZmk+2p0Dcipa0DiGt5D3ofXy0RAGZNDv4bPNaQuPKe8ETeu1oqqV6sYNB76eFI1WjbuQmo8e/fuxWuvvYb+/fujZ8+eSVqOUeshCPgOEkh0Bl9xxRW4/fbbRe/Wv/71L4wZM0Y4zD/88EN8/vnn+OCDD8T26NGjwePsBSNABg8ejPPPPx8nnHCCuCd9O7y/vLdRVhJAnRs8QpnhfwRJpL9ZgEbHiw4duoN1rYc9Rox7oWm03g1MqtPwwe4gXt4WwMNrPPjDN25cu8SD3yxw4qTZDThyRj0On+xC9wo27iYdHBIg5XZYZLI6IqYTzScmAsdwvNwGSzmvl8l4zJ5wrTPhWp4rr2POexmuT3q2XgbhD5Lg8bQvH08+Ta3a2lrhXDY2JrnOhvbII48UxNTasWMHnn76abCLmz6UVI1elpM5AXDaaafhnnvuweuvv47JkyeL+J3169dj69atqKurE7E9brdbmEQMF/B6vXC5XHA4HDhw4IDoPdy0aZOI/Zk/fz4mTZqE9957D4899hhuvvlm0bNFCCWWhc/u1OCJIEdoe/S/6HjRGxnRw3/6TuZhTKsPYvByB65eYMd58+w4abYNR8+w4edT7fivSju6W52ih4jaAjWSkjIHLGVNKLU2oYtVz2MQaKnxK/CkU8ELrfEUI3gIiscff1yARMLF2Ni5zv3M6e+ho5lay4IFC7Bt2zYBGAYRtrRQm2dqaeFxmnrUvDZs2CB60qglEW5nnXVWtAwsS/GAJ2K9tPRi+Tjm9nqx2AZ8tVvDqB3AIxs1PLzGie3uIMJoBkIUth6Q9t4OHw6f2CBMHWH2VNTDIlKTMFe6lLnQdTz9LjRlqHkw6dpKl7ImMAnwVDBX4GnN76nAEy81gpDQ6du3b7RhS+hI4LChH3XUUbjkkkvw/vvvg1oNu9jNwIRPM3tefMn066ghMSJ66dKlQhtidz671ulc5m+ZCWaJ98yxj4eNO2LQELzNhsfp0f7RbmjpVmEu+MvzRR81t2TSr2eEjCfcjC1+YHJjEG98F8K/doTw13XAwK+d+PU8G/pUN+H4GT4cMdWLn1T5cPgkD/rO9mCtU8eNHnejd3KP2eZDj0pbxCdCuHCdPUy6z0T0GjE2hl3W1ghYBGQYQ6MnBR7Db9uKVQWemNBoDg0fPlxEGBMuNGGYJyZqOTTDqIUQBFyo4WTScmJPav2aBAtzPpsa1rRp00RkMyO95XGzT8gteARB2NAj5g3VPgJF7KfRE4BGZy8Jw/1M+kGRBQPAPlcYcxs0vLc/gGd2arjzWx8uWeBA79lu9JzhxBHTHPjpNC/+Z4ob/29SE7pW7IPFul/3u4geITp2defuKTO9+DYKHj5O13hGb21G90pjT1D69Sh4pH+FADImpfGYrWtx5ynw6OKgScPobQYDEjiESyrw0MQZN24cmpqa4uTIBp9to4+7gYmNdM+gv4gQas3zcwqeCHf0V+GYRoGYiIOXGo8G2LUgNvhCmFTnx6s7mvHgtjBuWOlHn9kuHDfViWOnuvCLqV78cKoPh1e5ccgkJ7pVuFBS7kVJuQddrOyetsFS2QTLBDssjIUpPxDpnqYZZI+mvjPdWO/Uy8GyREqC17f50aMydXc0e4oEbGQeBYvRsWtcN5haPFdeJzWl6PUJ56Xab7w2F9eL7na9J030ainnsqibbCjF4ONhOSZOnIjLLrtMwIbASZVoWtGPQ0ilg4AJfhTVKRnAw+YaVVlMFjwMjy+MtTbgw51OjKgN4J51flwyz4njJ9XjyGlO/KyqCT+a0oDDJzTg+5UOdK10wlJph4XmT4UtGr9SUtkIy4QGlFbY0I0NcYJdDAE49Cs3uo9vRrfxfpRafYZeJjp+Y9pLn5lurHMZlKuIdjVme3rwxDScRFAYYWNcTzyvuLZLaUaqXq24ulss4KmpqREOW3aZpwIO9xE69KtQQ6RJ1YnAo+sxNFKYiCEOCdjnA+bWaRi904dHa7z404ZmXLLYhp9PcePHE134wQQXDqt04pBKF75X4UI3xrewd8j4l17+hTfuy7QeifIVXdWiC1nek47hGHQIoD6zMoMnvYaTLUAIo4Qu7kzv0gbHFXjimCM2igE8HGbAwbGMu5F+HQkf6ds59dRTUV1dDQ4K7WhLBo1Hd8Hs8QBjdgF/WOvBqXMa8cNJ3+GQykYcZnXjUKsHPSrc6FKhdzlz7FBJGSGTnPQeomwbtNnz47WdrMCTEwAo8GTTODq7j4dz5dx0001RB7KEDnMJnk8++aRoR8hn81unOjcjeKjhVDVp6DePmgWhwojbBrFeWuZC6XgfLFaf6BXqYm0QsS6poMN9+QVPvLaTL/AYTTm5LrQm6XyOyxM0oKQgP6mtSbgaTTiuy/3SdyQDEyO58Xikuz8WX6Tfi7FHytSKr/qF1ngYwMfIZAkYo8bDdQbr/fWvfxVxNB3FtIr/BWDm2+khTGsMou8iNywV+kjoruOaxLwvjOJlo6ND1+gbKYzGo8CTCB1uFyt4aGowXN/4F97YEDk6vaNGLq9atUpMa2F8XykHQoc9XNSI2E0t/TqJDbe9b2fWeMJhVDUAZyzwotTaGBkykPiXOfbXOepnaXNTS4GnvYHn2WefjYbhG4Pk2CA7KngIEk5yRt+O0bwyrj/55JPYt29f1JFMraejLSbAA0xtBM5U4BGmjzSvjLkytbJvFtR4OiN4vvvuO/HeRtAY1zkSnTMjyqC8TmtqcaRBPHgS/BZxfgYZ+ZusfbCh6g3U4LdIuDbOp9GKY0YYcN10r1YWz0p8Ruy9UmmBCbJSPp4ooToreKSZxQGgRuDIdc55zAGbHX1phcaT0JgSGi3h0lI6WLi0dH0iFE6Z6coYxyNgmEW3frp307vSKZvEZABtRvC0cC3lLEa8SwdzomOaz0m8ntN0FKdzmeAZMWJEpzO1qM2cc845KaFDE5PTwXLEeEdfzINnofTxsHIbGlMRrSeBZ4YzOmSC4730GGYgVQChAFARvUuuZFyscTwEz3PPPRfXs2N0tnZEHw/Np88++ywKW76v1HSYc5vDInheR19aAR7+5eW8MwmpCBqtAk/yHwQFnuQmXIjudD6TX7bgnDly1LkRPFynw5k9eZ1hyQgeOtSnNhidy4mTXaVT/U34PHIMKwUeBR4zjbZQ4OEczv/85z9Tgocaz6WXXiq60c28Q3s/xxR4pkXAo0/ZqcCTKzOoLe6jNJ7kJloI8LAU/BbVfffdJ8BDDSdR47nxxhuxevXq5AJ3wD0ZwcPBWdPrgTMWemGp4HzBCjxtAYxcPUOBJ7nVFhI8nMXPGLMkfTyEEL/kqcAjfy8FnqJ1ppuBkwKPrMixvFDgkaPRpbajNJ7Yb5K8FgJmKI2n3cJHgSe5ShcreK655hosX748ucAdcI8pUysePGZ7tZJjSvQ4k2QHqJm/3GbOUc7lZNkq8CS32kKBh5O5c/BnOo3nzDPPFBOrJ5e44+1pBXhUHI8ZCBbLOQo8yY22UODhVxueeuqplOChr4fRzPy0DMvX0Rfz4Fng0+caLsLJrmQjVxqP0njMNNhCgcfpdIo4nlQaj5xrmZ+R4RSnHX1R4InMWqgil9u2qnfWyGV+yTMVeGTv1hNPPFHQTye3VS3IAjzsTmdQoDK1pIbVHnJlaiU3pUJpPHwuPwlDX46EjwSOzG+44QbxRc/kUnesPebBI+J4FHjaA2yMZVTgSW6whQQPe63STXlK+HBaDPp5ODVsR15MgicsJgJTGk+yD8XYyItxXYEnufkWCjwsCYdN0JxKp/FwP78oun///uSCd6A9WYCHzmXZRV6cDVA5l5N/FwWe5NZaSPBQkxk7dixOOukkAR9pYsmc4OHH+xYuXNihR6kr8CjncnLLbIM9ndG5LMW6ePFiDBgwIC142MP1wAMPdGgnswKPAo9sD22ad1bwUNuqr68XE91Tu5GaTmLOKTI+/vhjuN3uNv1d2uphpsHTj3E80RnuklX6YvBvtGRqhdREYKgpok8Yd2bwaJqGqqoqMQ0GgZMOQDS55syZ0yFNruzA0858PCfPjM1AqMCjKfBE/pwX0sfDIkith1HM/JxNOvAcddRR+PWvf41FixaBsOpIi2nwnD2/fTmXGRB40iwn1jr1CU/DSuNR4CkS8LAY/MzN/PnzxVQY1Hpk5LLUgOQshdw+99xzQb9QR4JPZvAAmNkIRMEjtJ7iN7UInl4KPFC9Wsl6QqE1HpaIZQgEAnjnnXfAb6QTMDJRA5LgYc797AVjfA+B1REWU+CpbgTOnd+sd6e3U/BIvYc/mprsvfBVt7P6eKTkCR4mfmfr0UcfFQNEjSYX143bEkrDhw/vEF8XNQWeOU3AeQsUeIrBgZ5tGZTGI5t6LC8GjYelYTmowWzevBl33323gI8ETDrw0CT77W9/i127drVrp3P24GknY7USTS2l8SjnskRPsYBHwoflWb9+PYYMGYJevXpFTS4JoVQ5e7wmT54Mr9crX6td5Qo8Ko6nIBW2s5taiUKn5iPhc+KJJ2aED30/nL/n6aefBuf5aW9ju0yBZ640tSrbz5AJpfHoHQDK1Eps4rqJU1tbi6FDhwo/ijRrZM5G/cgjj4hxVclX528PNR9+vphfojjllFPierqMWg/LKZ3PNL348cOpU6eK73a1F+ezAo/SePLXklq4s9J4UguH8OFAUg4UpTnVs2fPJCezETwSQH369MEzzzyDDRs2tItoZwUeBZ7ULSDPexV4Whaww+HAmDFj0L9//2iPF4EjNR+pnRlzQurqq68Wn0nes2ePML8IMqZiWxR4FHgKUicVeFoWuwTGxIkT8bvf/S5pNLsROMZ1akCMC6IZyeEWHBfWbsET7U5vtz4eEp9JD756fbsfPSodMI7tok8o267q9nC+0cezWY3VEq2dDbEYfTzpUETzibE+NL2o8RhBk7guTS/6fi666CKMHDkSa9asKTrzK6PGwxEis2yM4/Hrg0QPMoCwpNyOtMlqR4nV0WIqLScwHGDepcIZl7pWONG1whFJdpxS7cAqF3ETFgnQBH7+s9OPn02144dTnCL9aLITMv3PFCd+OtWFn01z4efTmZz4xXSXSP873YX/m+6OS0dMd4PpqJlekY6e6cXRM304ZqbXkDw4dqZbT7PcOHaWG8fN8uC42W78arYbxzNVe9Cz2p0m8VgsnVDtgUy9qj04sdqDk+Z4Repd7UMfptl6Om22G6dX2/DY5iB2Nqer2m2/X2k82cnc5XLh3XffFUMs2JuVCBy5LcEjc3bPU2P69NNPsW3btqLp/TIFntVu4JmNYdyy1Iebl3lx8zLm8Wnwch+Y5PHBy3y4ZbkXt63w4E8rvLh9hRd3rPDizuV6GrLMi1jyYMgyD4YsZ/JGcrkdn9+1Qj9+9wov/rzKh3tWNeOe1d6E5Ma9a9wYUePC9iB/YH2kFnPqPN84/BixxYent4TwzBYNw2uCeLYmiBGbg3h+i4aXtgcxsjaIl3cF8crOAEbtCuK1nXp6Y6eGMTs1vFmrp7d2aHi7NoT/7Abe2w28z7Qnku8GPmDaE8aHe0N62qfhw30aPtoXwth9Gj7er+Gz7zR8XhfCF3VayvTlgRAS01d1IYw7EML4A2GU1QPlDUBFAzCxHphcF0tVdcC0ugDWuDS4pakvFUC5nV0byMnZCjytE+OSJUvw0EMPoV+/fhm1HyOMzjjjDPztb38TsT+Mli5071eL4JHGiT8MeIKAKwC406Wgfg7P82iANwj4gkAgBGghRmiaS+GQ3t0pbVxTeVSnkboNaRM/pkW+CzU4mVK1O3ke88TEO8ryIBSGSFok53bcBYSd/Bd/KMSIVZmi58hzk/Nsq6ixGHxXSoO/Idd5LK6c2d48R+cr8LRekDabTYzxGjx4cJzjWYImXU4zjebXs88+iwULFoCf2ykUgDKCJ9ZIWWXllok8pHEIbqySi1ZrqPSJcje2FpPrdNa35LBnKdnoRGOLoCgYMbf0d0kuRDjMq+KhxbO4J/EV5H0T75K8zTN5tZQbS8WkbxM1OjJjz5HPS5fHPZsbxhQpgHyqfHRUFinOTS5zfvco8BycfDlSfdmyZeIDgYRJOtgk7qcJRv/P9ddfjzfffFMELRYi+LBF8FA0rPiymbC+Zm4akcbFBixShA7Gyp6oHJi4q7EByltFfzq5w5gDCADwRZq3eBGxThhKAMg7xC6MIYD7Yovx+enW5V1iV0ky8nlSiiyVTHKfBJDU2OLzeKrIp5jJIzhjgTWWQNemUkEqVua2WVPgOXg5U/um9mO1WvHnP/8Zffv2NQUg6f9h79ddd90lrm9sbIz2fkW1+oMvYto7ZASPrN6xOyTviR1LtcbzZUNnLpst9+tNinvkXWUuz5JNkm5hmWSzjD5NXqTfUuzW21oYQYREM5dP1q9hg+cZqRZ5s8Rjcr/5PNloym5PVCrmHxm9RAo0IHQpap/yJgnCTnzNNtpW4MmdoIPBoIh45hQbgwYNysr8IoQuueQSEXy4evVqMVVHcYAnDGxyA6O2+PC3lV48sKoZf0uRHlztx9A1ATy0NhhJATz8rR8Pr2vG39f78Oh6Dx7b4MUTG3z450Yfhm3w4tmaZrywI4QXt4fw720hjNwWwsvbwnhlawivbNUwapuGUduDeHWHnl6r1TC6NoTXazWMqQ3inT0hvLsnhPf2BCNJw/t7Q/hgXxgf7A+joqEZHo06T1jAh7jhUhfQsN4JbHaGommTK4SNTM4QNjg1fV3uc4WwyRVOndxhbGJKd9wVxmYmd3apxhXCNncItd4wdnmA3Z4w9rhD2OfW8J03nDr5gO+Y5HFfGLv9QewNBOCgk4cCIH+KYFHgyf2PwE8fc7ZC+nAuuOCC6LAKmlsy8DBdzvFhv//97/HJJ58ILSr3pYu/Y0aNh4pBdUMYv55nR9dxjSgd70SXsuRUWuZAV6sTXa0udK9w66nSie6VDnSvtInUY6ID35/owiGT3Dh0oguHT3LhR1Ue/HiKCz+JpJ9VuSHSVBd+WsWubbtIP5vm0Lu2Z7jwyxlu/HK6C0fOcOPIGR4cM11PR3N9hhfHzvTh2Fk+XL7UiVofwaO3N13HCWPcngD6L/DgioVuXLGQuQf9F+np8oVuXL7QhcsXuaP7eOyKxd6Uqf9i43W8Nj71X+gG0xW8RxbpykVeXP21D9cu8eO6JX4MWBLA9cy/9uP6r/0YsLg5RdKPG4/duMiNmxa5MLJGQ30RDWRW4IlviLnaorOYvVYcuc4gwtNPP12YX+mAY9xP3w+nWuV3vzZu3Bg1vXJVNuN9TIFnTn0I58+zo6TsACxWGxhsl5gsDMCLJBGLU+5ACZNhv6XcAaaScicsVkckJd9LXFfOgD45KFV+wdQGS4UdJRV6sJ9eBj7DKVJpmRMysQwnznFgozfxi4whvLLZhy7jm1IHEMaV1xhUqJddvkM0j55vE7KhfJJTTDZSRtHgw+j1CedEZGWhrJgqXLCUR5LVBYuVMjSRyvi72TBoeRDbvOnMS2OVaJt1BZ78ypmzGzJuh1+q4Pw9HE5hhEyqdYKH+6n93HzzzZgyZUreJh0zBZ7qhhDOm8+GcaDdfDudQYonzXVioyegWxdREyOEUZt9KE0HHgE8I3A6xvqgFUFs90aEEJVFfit/S3dX4GlJOrk7xi5zfjb5hRdeENpMKuCk20ffz0svvSRML/p9crmYAs/sdg8evRtNF10IozZ1PvDcuCKIHQo8ou2wEbWnIRMH2+BpfnHM1vTp00UvFqfcoFM5k++Hx0877TT85S9/QU1NTU5jfhR4OvggUWnSKfDEmm9nA498c8brbN++HW+//bZwPmcCj9SEaHoNHDhQfOlC3utgcwUeBZ6DrUOtul6ZWq0S20FfROja7XbR+8UJx3r37t2i74dwonZECHHCMTqtc7Eo8Cjw5KIeZX0PBZ6sRZazCwgfOp/379+P//znPzjvvPPSwkeCh/Dh4NRLL70UX3zxxUGXRYFHgeegK1FrbqDA0xqp5f4aThbPgae33norTjjhhGjkszSzmBM+0iwjfC688EIBH/qOCLHWLB0XPFa76E7f4PGLgQLs2lLO5UglaV1daU39SnuNAk9a0bT5AcKjoaEBw4YNE3M9G2EjoSPBw2PsdqfZNWvWrFZ/3VSBR2k8bV7R+UAFnoKIvcWHcuhFZWWlmHKD33SXPV8SPlILkhDiQFN+GaM1S8cGT7UD693NSuMpt0P1asWaB//Cd6bu9Nibp18zmkwcs8XvtRM8RvgYwUP4sLeLc/xwfmjj9emfEjtiCjzVjFxubwGENLUUeKLTuSrwxCq9Ak9MFqnWKB86nq+66irhdE7UeCSAmHNCsjfeeCMa4WwWQKbB0+4ilxV4otBhLI8CT6yJKfDEZJFujTLy+XzC6UyfjjSvjNDhOvffdNNNoJbEa3IGHjqtqfFEwcOxSEU6rCBx8nal8cSGeyjwxJqYAk9MFunWJEAY8zNgwIC03e2ED2OBRowYkdV8zhk1HgmecxdExmop8BQteFv6g6DAE2tiCjwxWaRao3xkYrzP1q1bcfbZZ6eFD/1AjGzmjIhmF1Pg4eh0pfHEtIeWGnixHlPgiTUJM+Dh52T4Rc/OvjBWh/D56quvxLe92NtlNJktgFQAAA/9SURBVLdoahE8nM3w9ddfB3vGzCwKPKo73Uw9yfk5xd6drsAT/5Oz54oThREyqcBDAN17773YuXNn/IVpthR4FHjSVI387lbgya98c313ajIzZswQXeiEDJMEkNy+4oorUFVVZerRCjwKPKYqSq5Pag/g4ffH1RKTACeEv+GGGwR0UoGH023IrvXYVanXFHgUeFLXjDzvLWbw0I9BU0uBJ74S8Gumo0ePTgKP1HyYP/nkkyKgMP7K5C0FHgWe5FrRBnsUeNpAyDl+BJ3M33zzjRilnujrkfC5++67xaRhmR6twKPAk6mO5OW4Ak9exJrXm7I3cMeOHTj//PNBrVD6diR0mN94441irp9MBVHgUeDJVEfyclyBJy9izftN+QWL22+/PW4clxE81157LWbPnp2xHJ0TPJubO91k7yqOJ9YWMsXxKB9PTFaJa3QwP/bYY0LbobnFZNR8Lr/8clM9W6bAM7chjPMYuVyuf96mWIPkzA6ZeHVzM7qMt6X+vE2RDgc5WJkr8MSakAJPTBbZrnEIBb9YwfFbRujIXi5+l6usrCzjbU2CBzh/gQOWivr283mbtINEw3itxo8uZQo8GWtHHk9QplYehZvHW7Nn66233hIxPFLTkTlNrrPOOgufffZZxsGinRM8WxR48lg3Td1agceUmIruJLfbjffffz/OuWwEz29+8xuh8VCrbGlR4FHO5ZbqR96OKfDkTbR5vTHB88EHH6QFT459PB3M1FIaT14rp5mbK/CYkVLxnUMfz4svvhjt1TL6eWhq5bRXa26DAs/BOncLfb1yLscasXIux2SR7Rp7tR5//PG0vVo5jeNR4GnfU2IQego8sSamwBOTRbZrBw4cEJ80pl8nVXc6Y3zWrVuX8bad0sczeksAXSO+HdkFX2Jt/3BpSatS4Im1BQWemCyyXdu1axcuvvhi4eMxmlkEEU0takNNTU0Zb9vxwePyJXxlIozRWxV4MtaMPJ+gfDx5FnAebs9JwdasWYOePXsmxfAQPPwg4EsvvWTqW1sKPKpXKw9VNPMtFXgyy6jYzuDk75z2IlHTkd3pF1xwAaxWq6lid0LwhKBMLVN1I68nKfDkVbx5uXldXZ34ooQEjTGnmcXPIK9YscLUszOChx/+ndcYOrjIZasTFqY8D0eQ/hrm9NmIr0wkmVohEbmsfDym6kfeTlLgyZto83JjzkA4derUlBHLBBCHUPzjH/8A43zMLBnBEw4FMafej3MWc8hEIyyVDXqqsMHCVFkPS+UBlJQ3oWtZE3qMa0L3cXZ0Ge9GaZkX3cY1o+s4rw4eCaA8QUiBJ72DXDmXY81BOZdjsjC7ZrPZMHjw4OiAUKO2w/WLLrrItJnFZ2YGTxhYbwPuXwX8YpoDPaw2dB/nRJfxHljKCBQPSspc+rrYduuajQAUx3ZpsJR7dGhVHMir1hMHnnI7TprjxPoUGo8ytcxWt/ydpzSe/Mk213cmqL/88ksBHeM8PEb43HXXXWLGRp5rZskAHt5EA/jFiqBYQyAE7PYA5d+FMHyrD3/c4Md5i1346RQbSitd+F6FDT3K7ehe5kI3pnF2oQlZyuphsTbkdZBpHHgipta6BPCEw5owtbqVO9TodDM1JE/ndFbwmG2YeRJ71rdlT9aGDRtw2mmnpdV2+M2td955R/RmmX2/FsFD7IRYVAGxEMKkT0jTd4bCkf36cZ7nCwew2wVM3we8tAO4dytww3LglCoHflLpwOETvTh0ogPfn+BAj0oHulU60KVc98dYrA5YymVKbzIIP1HEhxPnM4rG5ThQYmVy48RqO9Y5vXHd6RI83SucCjxZV8PcXdDZwMMG2dDQgG3btonvVOVOkrm/k4SHpmniG+pXXnmlmO7UqOHIdTqVOd0pv7UurzNTohbBwxuQOYI7Zu7WwjksVJ2nGZ82AC9s92PoZmDwGuDcuU4cN7EJv5joxY8ma/ivyX4Bp0Mm1KNHZT26lTehC4FUydSE0oomdC9z4nvjnbBMssEyoQml5Q50tbrQpcyJkjI3LFafMO96KfBETVvl44lVTtbF2tpaDB06NOVf8XxMBMZGXFlZCQ6i/OKLL8AIYM5hXIwLtRyWd+/evWLslYRMqvyyyy7DlClTsn6NjODJ+o4ZLqDepOl6lK45aYA7BOzyAjPrQxi9M4inavy4e10zLlviQq+5jTiiugm/nG7Hj6Y5cViVBz0m+1FS2QxLpUcH0gQ7LJXUkqgxcV0HUs9ZTfjW4VEajxoyEVcrCwWeiooK0ftz8skni+lDp0+fDnZRFxuAPB4PVq9ejauuukqUNxVwuK9v375iwKjf789K2+GP0bbgkbZbCKAPigDS6EOi2abp7iSuh8IaguEggmhGECE0+oEVTcD7+4MYXhvAkPV+XLrQhlOrneg1w4ljp7nxi6lu/HCGB4dNdaN7pQslZU4cP7MRax2uOPDw3pwITJlacW2xzTc6m6lFDYLgoWnCxIbbp08f3H///WKO4n379oEBetQ2sjFZcvnDEYAsx8cff4xzzz1XQEeWNRE+J554Iu677z6hFbG82Za5zcCjm2xS3xG4gRbWmUPuMAkahUkgP0IihYRfW5h6/E/jj8Jrg/DDj6AGfBcAljqBL3YH8OIuDY9uCWPgEg/On+PATUvs2OKMaDwRk5GoG13jRw/hXG5CqdWG0nTxRfQ7RX1PdliEb8mWVwd5nN8qXblasV+ZWrEmWkiNR4KHOWNfmPNDeEOGDBETaG3cuBEcAU5QZduYY2+Y3Rr/CNCs4iTtd955J3r16iWik9NBh0Mj+DljakUSOtmWtc3Ak50oUp9tfEm5nvpM3YrzN4egNdNHFXGERzzllXs0XDHfhXPnNeLkWTYcOdOJH0914pCJ9Cc1oKS8UcCFTmo9HikSIlDeBAtTBZNdz2VcUzmBlMEpXsDjCjyxmsK6Uwgfj1HjkQCSmoQchnDdddfhlVdeQXV1tehNoi+IwXu5Xmge0cxbv3698D098MAD6N27d0qflywjc0KH8TyLFy+Og44CT4pfKAoeKlPCxwR4Q8BOn+5XendvEP/aHsA9q+24fkkT+i9y4vwFLpw6y44Tp7lxzGQXfjCBAZQNsExgFLYblgqXHkA5oQ6Wiv0COiXRXjnZOyfzwgNJgSdWMYoJPFKrkDkBxHVCgEMQOOhy0qRJWL58ObZs2SI0E857TJPMzMJ3pQnldDpFnM3mzZuxbNkyTJgwAc8884xwHtNskuAzQkauy2PHH388brnllpTQ6dDgMSPo1OcIYy1ySF+P/U8s0dvEHgaagoAzBGzxA9WNXny634tRu7wYur4ZN39tx3VLmnHRHDdOnunFsdNd+N/pLhw2wYaSCkf6JJ3eSuOJ/jyd3ccjNZ7EXDb2xP2ciuKOO+7AE088IWJmOBiTvUlz5szBwoUL8fXXX2PVqlUCKvPnz8e8efMwa9YsTJw4UQT/vfnmm2LKij/+8Y/gYE6aU9LUk89MlxM80iG+dOnS6G94MCvtytRq/YvqcNE92Hp4AJWfGHzit7hfP8YrdJ9SACEEw4AtwEjuICoOAGP3hPBabRj/WOfD7cs9+N0yH/ov9qLfXCd6znHjiJke/HCKG90qIr4iMWSEZhu7/LlPakLSTOM+alQyFinxOMe7MUV677IAmdJ4YrWnUBpPVVWV8OcQKmzkiXBpaZuNn938zJmOOuooAY5zzjlHgKR///4YOHAgrrnmGnDCdX7tk85rnmvmWamgI8tz3nnniW+ib9261bSmFZN26rWOD54IQYS5lVoGOdjLbjoNjhCw0QXMrg/g87og3toTwoiaEIauasady/y4bnEA58wNoOecZvx0mhPfo+lmpd+oMeI3IlBcItG31HUcx7tJSEWgRPAIhzehZB5ACjyxn7kQ4OEzaSoNHz5cmDfUIMwAQTb+RDBIACXul9u8LvEceS+zOU0wmntjx44FzbtcLp0GPLkUWvK9pH5EVcmwLk8MA/4AsNUDVDdo+LIugDd3evHMehceXtuMe6gtLXHhN4vcOGmBB0dO9+PQSics4x3oJsbExbQc+pFEqnAK0y4W7S39SQk5ta1yBwat0LDDJwtU+LyzmVpS4hxsSccxfTe33XYbqLHQd2IERjowyHOYJ0LFeIzrvIdxX7p7Ju7nNXQgU3t6/vnnRc8Vy56tD0e+b7q844Mn3ZvncH8caujzi9sRexAPhUTwpH4C/6eR52gGdrg0LLIHUNnUjI93a3hxsxePfOvD/SubcflSL85e4MXJ8zQcMUtDjym+9P6kBF+TJbI9aKWGHc2xshR6zQx46KPgwkqfy4rPe+3cubNNI5cT5c0gvbVr1+Lzzz/HU089JbqnGTsjIZQIhMRtI1RSrcvz5TG53VJ++umnC+cxvyJBPxHjivK1KPDkQLJRzkiSmOtwEHziJSKGSQCJF7LrVBPwYsdFvR/4xg3MbAxjQj3w8V7g3zvCGLY5iAfXBXHLMh8uWOhD7zk+/GSqW4yBKxU+IpuYqkSYZRV2DFzpx5b81aOspcieFn5xkqo8Y0ISE52oK1euFPfNB3jYlUyHa+Jzuc0yvfvuu6ivr8/6vbK9gO/GuB06hvnp31GjRuHBBx/EoEGD0K9fP+HHoROYACE0qOm0BI+WjkkI8R5c530JmxtuuEHMpUOTihN5eb3eKOxzCXyjbBR4jNIo0nVdU9Jjk7hOWHkB1Gn0KYWwsDGMKXXAJzuBMVs0vLAxiIe/DeDWZR5cttiL0xf4cN/GEGp5UZEsrNB79uwRFZ2NLjFt2rQJDocjLw2Az+Zfc8bysKElJgKPk5oz1qUtF1muHTt2iF4q9lzxc8Hs9maPFgFx5plnRnujWoJMqmP02fDb5oQa43Zefvll0ePFXjFGLDNo0biwPEz5WBR48iHVHN+TP32qpD8mEhwZOYHaky8UFprSVgewopF+JWCZHfAwYiA/9ahVb5yvSm2mMIV8tpnyyXOoGcpAP3aZT548WZhnnIZi5MiRGDZsGO69914xQpxz4sjE4Qx///vf8dxzz+G1114TX/8cN24cZsyYgW+++UaMkmdsj9l4IFmeXOUKPLmSZBveR0KI/iIOH9EH3epEEYEDZJG02oL6ugaOgQvoG0UCn0I2fj67kM9vbXVhmQkLamz8qieno6B2yMBA5hxywVRTUwNqTox8Zo8UtbdCQSbVuyrwpJJKO9hHdjDckfDhP2O4gACT+E/XcKgt6yaaNNrawQuqIqaVQCIwE7flhYn7E7fleYXIFXgKIXX1TCWBTi4BBZ5OXgHU6ysJFEICCjyFkLp6ppJAJ5eAAk8nrwDq9ZUECiEBBZ5CSF09U0mgk0tAgaeTVwD1+koChZCAAk8hpK6eqSTQySWgwNPJK4B6fSWBQkhAgacQUlfPVBLo5BJQ4OnkFUC9vpJAISSgwFMIqatnKgl0cgko8HTyCqBeX0mgEBJQ4CmE1NUzlQQ6uQT+P7x+uZWLm+vZAAAAAElFTkSuQmCC;" parent="u60hzt4KQYkF20324PbD-10" vertex="1">
          <mxGeometry x="619.58" y="57.5" width="60.85" height="30" as="geometry" />
        </mxCell>
        <mxCell id="u60hzt4KQYkF20324PbD-16" value="Rutas:&lt;br&gt;Pruebas:&amp;nbsp;&lt;span data-teams=&quot;true&quot;&gt;\\vmprumalta\sapcajacom\FACTURACIONELECTRONICA\v3\FileCollector\1-Outgoing\Requests\1-New&lt;/span&gt;&lt;br&gt;ProducciÃ³n: \\VMPCANCUN\FACTURA_ELECTRONICA\Emision\2023\" style="text;html=1;strokeColor=none;fillColor=none;align=left;verticalAlign=middle;whiteSpace=wrap;rounded=0;" parent="u60hzt4KQYkF20324PbD-10" vertex="1">
          <mxGeometry x="29" y="110" width="731" height="30" as="geometry" />
        </mxCell>
        <mxCell id="u60hzt4KQYkF20324PbD-17" value="Servidores:&lt;br&gt;&lt;span class=&quot;Ttulo1Car&quot;&gt;&lt;/span&gt;&lt;span class=&quot;Ttulo1Car&quot;&gt;&lt;/span&gt;&lt;span class=&quot;Ttulo1Car&quot;&gt;&lt;/span&gt;&lt;div&gt;Pruebas: VMPRUHATO&lt;/div&gt;&lt;div style=&quot;&quot;&gt;ProducciÃ³n: VMPCALARCA&lt;/div&gt;" style="text;html=1;strokeColor=none;fillColor=none;align=left;verticalAlign=middle;whiteSpace=wrap;rounded=0;" parent="u60hzt4KQYkF20324PbD-10" vertex="1">
          <mxGeometry x="720" y="60" width="168" height="30" as="geometry" />
        </mxCell>
        <mxCell id="u60hzt4KQYkF20324PbD-18" value="txt" style="image;aspect=fixed;html=1;points=[];align=center;fontSize=12;image=img/lib/azure2/general/File.svg;" parent="u60hzt4KQYkF20324PbD-10" vertex="1">
          <mxGeometry x="531" y="74" width="39.76" height="49" as="geometry" />
        </mxCell>
        <mxCell id="u60hzt4KQYkF20324PbD-19" value="txt" style="image;aspect=fixed;html=1;points=[];align=center;fontSize=12;image=img/lib/azure2/general/File.svg;" parent="u60hzt4KQYkF20324PbD-10" vertex="1">
          <mxGeometry x="498" y="11" width="39.76" height="49" as="geometry" />
        </mxCell>
        <mxCell id="u60hzt4KQYkF20324PbD-20" value="txt" style="image;aspect=fixed;html=1;points=[];align=center;fontSize=12;image=img/lib/azure2/general/File.svg;" parent="u60hzt4KQYkF20324PbD-10" vertex="1">
          <mxGeometry x="546" y="14" width="39.76" height="49" as="geometry" />
        </mxCell>
        <mxCell id="u60hzt4KQYkF20324PbD-21" value="Facture Colombia" style="swimlane;horizontal=0;whiteSpace=wrap;html=1;" parent="1" vertex="1">
          <mxGeometry x="19" y="612" width="889" height="150" as="geometry" />
        </mxCell>
        <mxCell id="u60hzt4KQYkF20324PbD-22" value="" style="group;verticalAlign=bottom;" parent="u60hzt4KQYkF20324PbD-21" connectable="0" vertex="1">
          <mxGeometry x="590" y="40" width="120" height="65" as="geometry" />
        </mxCell>
        <mxCell id="u60hzt4KQYkF20324PbD-23" value="PL -Colab" style="rounded=1;whiteSpace=wrap;html=1;verticalAlign=bottom;" parent="u60hzt4KQYkF20324PbD-22" vertex="1">
          <mxGeometry width="120" height="65" as="geometry" />
        </mxCell>
        <mxCell id="u60hzt4KQYkF20324PbD-24" value="" style="shape=image;verticalLabelPosition=bottom;labelBackgroundColor=default;verticalAlign=top;aspect=fixed;imageAspect=0;image=data:image/jpeg,/9j/4AAQSkZJRgABAQAAAQABAAD/2wCEAAkGBw8QEhAQEhIQFRUSFQ8QFxgVFRAQEBYPFRIXFhUVFxUYHiggGBolHRUVITIhJSkrLi4uFx8zODMtNygtLisBCgoKDg0OGxAQGC8fICYtLS0tLS0rLS0uLS0tKzUtKy0tKy0tLS0rLS0tKystLS0rLS0tLS0tLS0tLS0tLS0tLf/AABEIAI8BYAMBIgACEQEDEQH/xAAbAAEAAgMBAQAAAAAAAAAAAAAABQYDBAcCAf/EAEMQAAIBAgEGCgYHCAIDAAAAAAECAAMRBAUGEiExsSJBUWFxcoGRocEyNEJSgtETFRYzU5KyFCRic6KzwuEjQ9Lw8f/EABoBAAIDAQEAAAAAAAAAAAAAAAABAgMFBAb/xAA0EQACAgECAgYIBgMBAAAAAAAAAQIDEQQxEiEyUXGBkbEFEyJBUmGhwRQzNNHh8EJisiP/2gAMAwEAAhEDEQA/AO4xEQAREQAREQAREQAREQAREQAREQAREQAREQAREQAREQAREQAREQARNfF4tKSl3Nh4k8gHGZUsp5eq1bqt0TkHpHpPkJZXVKexXZbGG5ZcZlehS1M4J91eE3bbZ2yIxGdXuU+1j5D5ytT5OqOngt+ZyS1EntyJps5sQdn0Y+E/OEznxA2imewjzkLEn6qHUiHrZ9ZZ6GdXv0+1T5H5yXweVqFbUri/utwW7jt7JQYkJaeD25E46ia35nTYlLyXl+pSsr3dOf0x0Hj6DLbhcUlVQ6G4PeDyHkM5Z1yhudddsZ7GeIiVlgiIgAiIgAiIgAiIgAiIgAiIgAiIgAiIgAiIgAiIgAiIgAiIgAiIgAiIgAiIgAmtjcWlFC7HUO8niAmzKLl7KP09QgHgJcLyHlbt3S2qvjl8ijUXKqOfe9v78jWyhjnrvpMegcSjkE1oiaKSSwjJc23liIiMkpCIiLBLiPkT7EMEuI+TbyZlF6D6S7D6S8RHz55qxItJrDJKWOaOiYPFJVQOhuD3g8YPPNiUjN7KP0NTRY8B7A8gbiaXeZ9tfA8GjVZxxyIiJWWCIiACIiACIiACIiACIiACIiACIiACIiACIiACIiACIiACR+NyktO4A0m7gOkz1j8QRwV2naeQSKalLYQT5sotsa5RMGJyjXf2io5F1eO2aLPU26bfmaSDUZjajOmLS2RwzjKW7Zhw+VMTT9ssOQ8Lx2yfyblZK3BI0X5DsPQZAtRmP6IjWNo1894ShCfuwOuyyt75XUyezixhpUSB6T8EdHtHu3ylScyjiGraGl7It0m+3utI5sPJ0Lgjh7lOqk7J5WxqRMzUJjNMy/Jy80eYnwifYBxCIiBPjETzPURPiERECXEJeM3sX9LRW/pJwD2bD3WlHk9mfXtUen7y6Xap+RPdKNRHMM9R06azFmOst0REzzTEREAEREAErGVM6ApKUQGI1aZ9G/MOPp3z7ndlEqBQU2LC7EbdDiXt/wDdsqMzNZq3GXBDvYjfr5axT7arjq8AeExDKFf8Wp+d/nNWZ1wdUi4puRyhWI77TN47JPdvvYjcw2cGKT/sLDkYBvHbLpkrFNWpJUYAFgTYXta5ttnOhTa4WxuSFAOo3JtOm4ekEVUGxQF7hNH0fOcnLLbS7xoyxETUGIiIAIiIAIiIAIiIAJ5Y2F56mDFVVRGZjYDae2AGm63N5jNOa9bLlAbNJugW32mo+XwSAtM9rW8AInqa1/kUOJIGnPDUpulJ8NOdGSDgR7UpjalJA055NOSUiDgRrUZiajJI054alJ8RB1kY1GYmoSUalMbUpJTKnURLUJhbDyYajMTUZNTKpUoh2omeChks1GYmoSzjKXSRsTefDzA1CSUkQcJIwRMjUjMZBjFliSGb9TRxFLnJXvUiR82MmVVSrTdjYKwJ49UjNZi0WVzxNP5o6JEhTnJhuVj8JmWjl7DN7dusGHjsmb6qfws21fU9pLxJWJjp1VYXUgjlBBEySstEREAOdZdraeIrHkYqOheD5TQmfKH3tXrvvMwTzVjzN9r8yJaM0MnIwau4BsdFQdYBG025dctkrWbmUsPSw6I9RVa7kg3vrY28LSU+u8L+MnjNrSyrhVFJrZN81uxm5Uoo1tJVNiCLgGxGsETLI9MsYZiFFVSSQANesk2Am3WrIguzKo5yBvnSpRfNNDMsSKqZwYRf+wHqhm3CYDnTheV/yyt6ipbzXihZJyJD0s48I3tkdZXHjaSlGqrjSVgwPGCCJOFkJ9FpjMkREmAiJir10QaTsqjlJAEGBliQ1XOTCL7Zbqqx8Z4XOjC8rD4T5Sl6ipf5rxFknJG5xG2Gq9C/qE94XK2Hq6kqKTyHgnuMx5yerVuhf1CFkk6pOLzyfkMpN56pnWOkb5rI8y031jpG+YsbCGDohWeCkwfXGG/FTxnz63w34qeM3/Ww+JeKHgzFJ5KRQxtGpcI6tYaRtxDlmD64wv4yeMbtj8S8SODIUnw05iOV8L+MvjNqmVYBlIIIuDxESUbIy2afeLhNY05jNObpSaeJxtGmdF3VTYGxvexknYorLeCHAeDSmJqU9nKeG/FTxnrD4ilUvoMGta9uK8aug3hSXiiDrNZqUxtRkk1OaNfG0E1Got+bhHwk3YorMngg6zXajMbUZ6fK9DlJ+EzH9a0DxsOlTILW0fGvFEHS+o8NQmJqE3qeIpPqV13HxntqM6IXKSzF57CqVJDth5iagZMVKYGs2E0auKpDjv0AmSlqYV9OSXa0ir8M3sjRKGebTb/aaZ/+T6qq2wgx16umx4hNPsaK5aecfcYMNialM6SMVPNs7RsMtWR8vrVslSyvsB9lj5GVlsPMTUTJ2VwsXMdV1lL5bdX92OkxIDNvKZcfQ1DwlHBPvKOXnEn5nTg4PDNqqyNkeKJzLH/e1eu+8zBM+P8AvavXfeZgnl7Om+37khEl8nZvVa9NaisoB0hrLX1EjiHNNn7JV/fp97fKWLTWtZUeXcBEZN++o/zKf6hJPPCnbEX95FPdceU2cLmxXR6bl0srKx1tewYHk5pvZz5KqV2pGmBqDgkmwA1Eec6Vp5+olFx55TXkPBTIlmpZoP7VVR0KT4kiZKmaGrg1tfOurwMp/B346P1X7gVWZ8FjalFtKmxB/pPMRxz1lDA1KD6DjXtBGtSOUTWlHtQl1NCOi5IyiuIphxqI1MORvlN+UnM7ElaxTiqKfzLrHheWjK+NFCk1Tj2KOVzs+fZNzT38dPHL3b9xI0cu5dWhwEs1Q9yjlPPzSmYrFVKraVRix5+LoHFMdRyxLMSSSSSdpJnyZF+ola+fJdX93EIkhgcjYiuNJFsvvMdFezjM3zmnifepd7f+MUdPbJZUWIgJdMVSKYDRJJOghN9ZuXB85X/qHEK6K9M6LMqlhwlAJ1nVsltzk9WrdC/qE6tLU4wscljlj6DRz+fQ08wouQOWwmeI9Bp6DSc+yVf36fe3yj7JV/fp97fKdP4a/wCB/QD1mqbvW/lNvEriy45GyLVw5qO7IQUZeDe97g8Y5pTlj1EZRrgpLD9rzQH2dCyMP3eh1BunPZ0XIo/d6PUXdL/RvTl2DNkrKVnaP3j4F85ebSj53+sfAnnOv0h+T3oTRCyxZnDXW6E3tK7LLmUNdfq097TN0P6iHf8A8sGV+vi6tT03LdJ1d2yYp8WfZyZcub5sBElMHkCvVVXGiFbWLsb26AJnfNnEDYUPxEHxE6FprmsqDDJGZPpadWmvKw7hrO6WXKeLWitzrY7By8/RNHI2TalKqXqqVVFdr6iL7No5iZE4/FGq7OePYOQcQnXTbLS0PliUn7/kt8eWSEo8TPGJxL1Ddj2cnQJhib2DyTWqjSUADlY2B6JwqM7ZcsyfiS5JGjANtYklici10BawYD3SSe6RsVlc63iaaHuSeBxWlwW28R5eYzcahIESzYF/pKatx7D1htm96M1srE65vLWz618+zy7OfHdQt0aiKUYOuoqQRLnh6odVce0Af9StNRkzkVuAV90+B177zQv5rIaVcMmusoeP+9q9d95mCZ8f97V677zME8hPpvt+52F8zT9Vp9NT+40mJD5p+q0+mp/caTE9Bp/yodi8iSETxUqBQWY2ABJPEANso+WM4KtYlUJSnzambnJ8or9RGlZfcgLlXxtKn6dRF6WF+6a317hfxV/q+U57Ez36Rn7or6/wLJac7a9GrTpsjoxViNRBOiV16uwSrRE47rXbPjawBIZvNbE0esR3qRJXPXEXenT4lBc9JNhu8ZE5B9YodYbjNnOw/vL8yoP6by6EsaWS/wBvtn7C9xDySzfwAr1greio025wNg7T5yNlqzIX749QbzK9NBTtjF7fsgLQoAAA1Aaua09RE9CSEjM5PVq3Qv6hJORmcnq1boX9QlV35cux+QHPp6p+kvSN88z1T9Jekb55widSiInqXuSMdb0W6DunLlnUa3ot0HdOXLMj0lvDv+wmfZ0bInq9DqLunOZ0bInq9DqLui9HdOXZ9wRvSj54esfAm8y8Sj54esfAm8zq1/5XegZByzZkba/Vp72lZlmzI21+rT/ymdov1EO/yYIrCz7Piz7OOOwjoGQB+70er5mb2jNPN/1aj1fMyRtPT1P2I9i8h4IHOqroUCPfZV7Np3eMpUtue3oUR/E36f8AcqUx/SEs3Y6khGxk6gKlWmhIAJ18XBGs7pew1MagyWGrauyc8nzRi02r9QmlHOfn/AsHQy6e8veJTcuUFSs2jazWbVYgX2+IMjrT7HqdZ6+PC44553/gFHAk/mwbiovIVPeLHcJASezRF3q9Vd8joJcOoj3+QSWUTRpTbyWti3QIKTPhEsT2T0UpciuEcSRzzH/e1eu+8zBM+P8AvavXfeZgnlJ9N9v3LS+Zp+q0+mp/caTEh80/VafTU/uNJieg0/5UOxeRJEBnjXK0Qg/7GAPVGs+UpUt2e44FE/xMO9f9SozJ17/9n2IRmwWGaq6U12sbc3KT3Ay34fNXDqOEWY9OiO4SsZDxK0q9J21KCQTyBlIv4zoasCAQQQdYI1i0v0NNc4tyWXn6fyCKfnJkajQRXp6Vy2jYm4tYnylelzz1+5T+YP0mUyc2tgoW4isckDN/IPrFDrDcZt53pbEE+8iHePKamQfWKHWG4yez1whK06oHo3Vug7PG/fJVxb0sse55+iF7ipSyZkVQHqp7yqw+E2O8StzNg8S1J1qLtU35ucGUUWersUuoZ06JEYDODD1QLsEbjDG2vmOwze/baNr/AElO3XW2+egjZCSzFpjNmRmcnq1boX9QjEZcwqbaqnmXhHwn3HsK+GqMux6ZYcuy4kJzjOMop5eGBz2fUNiDyEHxnyJ5widTvPsgsiZcpPTVXdVdQFOkQoNuME6pJvj6C7atMfEvznpY2wmuJMkZ6guCOY7py0To2FypRquaaPpEAtqBtYEDbx7ZQMdR0KlRPdZh2X1eEzvSDUlGUXlc15CZhnQ833vh6J/ht3EjynPJZc18sJTU0ah0RclWPo69oJ4uWUaGxQs9rllAi3yj54esfAm8y3/ttG1/pKdustt8pedNZHr6SMrDRQXUgi+vjE7te16rvQMiJZsyNtfq0/8AKVmWbMjbX6tP/KZ+i/UR7/JgVhZ9nxZ9nHHYR0PN/wBWo9XzMkZHZv8Aq1Hq+ZkjPTVdCPYvIaK3nsn/AB0m5HI71PylPnQsvYU1aFRRtADDpU3+Y7Zz2ZPpCOLc9aBmxk3DrVqpTZioY6N+e2rxtLL9kE/FfuWVMG2scWvtluyTnMjALXOiw1aVuC3TbYfCR0nqXmNq7G/ID59kE/FfuWfPsgn4rdyydTHUG2VKZ+NfnPNTKVBdtWn+ZSe4TS/Daf4V4hghPsin4rdyzeyTkVcOXIYtpADWALWnk5xUC6U00mLMFuBZRc249smbR01afi4q0uXV/eoWDAVmWithPujPc6mwSwcyx/3tXrvvMwScxWbuKZ3YKtmZ2HCXYWJEx/ZnFe4v5knnpUWuTfC/BgWTNP1Wn01P7jSYkbkDCPRoJTcAMNO9iDtYnb2ySm3Qmqop9S8iRF5wYI1qLKouy2decji7ReUCdTkDljN5KxLodBzt1XVjzjiPPOTWaWVntw36hMpM9U6rL6LMOgkbpI4rIOJp7VBHKGW3jYyPamw1EbpkyhKO6wI8vUZtpJ6STvnyZ0wlRti37VHnN7D5u4p/ZUDlLL5XjjXOXRTfiBhyD6xQ6w3GX/FUFqIyMLhgQZXclZsvTqJUeovAOlYAm/aZaJr6KqUK2prGX9ho5tlLAPh3KMNXsniZeUTUnTMZhKdZSjqCPEHlB4jKxjs03GukwYcjam79h8JyXaGcXmvmvqv3DBWom1icnVqep1t2qdxmFaLHUB4icLg84aEY5fc2aunhqfNpIexj5Sr4bN7Ev7KgcpZfK8tmQsnNhqZRmDXYtqFgLgC3PsmhoK7IzzjCwNFLyzgDQqsh2G7KeVDs7tk0p0jKWT6dddFxs1gj0lPNKnjs2a6XKaLr0hWtzg/OV6jRzhLMFleQMg4mR8O4NiLdomXD4GrU1Kt+1RvM4+Ft7CNzNero4mn/ABaS96nzAm/nhk4hhiFGprK/Mw1A9osOznnrJWbVZXSo7KuiytYcJjY3tyCWuogYFWAIOog6wRNSjTSnQ4TWOeUPBy6Jaco5qay1Fh1Wvq6G+cgcVk2tS1Olu1TuM4LNPZW/aQGpE9Cmx4t026GSq7+il/iQbzKowb2QjSlmzI21+rT/AMprUc1cS3pFF6TpHwlgyHkX9m0zp6RcKDq0QLX5+ed+k09sbYzccJfsNFBWfZLjNnF+4v5kn37M4r3F/Mk5Fp7cdB+DEWvN71aj1TvMkZo5HoMlGkjbVWx49d5vT0FfQWepeRISkZzZINJzVQf8bG5t7LHi6DLvPDoCCCAQdRB1giV6ihXR4X3AcuiW7KWaqNdqLaJ90617DtHjILF5FxFL0lFuUMpG+8xbNNbXuu9ESOievo22W3Tdw2SMRU9FP6kHnKYwctlnuA0ab6JDchB7jedRUggEceuU/C5pVT946qOa7nyEttCnoqq3J0QFudpsLTX0FVkOLiWM4+40ZYiJoDP/2Q==;" parent="u60hzt4KQYkF20324PbD-22" vertex="1">
          <mxGeometry x="31.08" y="16" width="57.85" height="23.5" as="geometry" />
        </mxCell>
        <mxCell id="u60hzt4KQYkF20324PbD-25" value="DIAN" style="swimlane;horizontal=0;whiteSpace=wrap;html=1;" parent="1" vertex="1">
          <mxGeometry x="19" y="762" width="889" height="150" as="geometry" />
        </mxCell>
        <mxCell id="u60hzt4KQYkF20324PbD-26" value="DIAN" style="rounded=1;whiteSpace=wrap;html=1;" parent="u60hzt4KQYkF20324PbD-25" vertex="1">
          <mxGeometry x="590" y="45" width="120" height="60" as="geometry" />
        </mxCell>
        <mxCell id="u60hzt4KQYkF20324PbD-27" value="" style="shape=image;verticalLabelPosition=bottom;labelBackgroundColor=default;verticalAlign=top;aspect=fixed;imageAspect=0;image=data:image/png,iVBORw0KGgoAAAANSUhEUgAAAWsAAABuCAYAAADh/DJ/AAAe80lEQVR4Ae2d61/bRtbH3bTdZtvuPu2zbffp3trdbtKE3BpybbK0uVCS0CQkEAgEAgmBQGJwTABzCeZiW7JkGxsbX8h/uC/3L9jf8zkyIrKRhLFlI+HzYpAsG2k085uvjs6cmXH9+z//RXRtgxOXAWuANcAasKEGiNGUXAxrflDxw5o1wBqwrwYY1jZ8gnKDsW+D4brhutkrDTCsGdb8yssaYA04QAMMawdU0l49yfm6bEWyBuyjAYY1w5qtKtYAa8ABGmBYO6CS2Lqxj3XDdcF1sVcaYFgzrNmqYg2wBhygAYa1Ayppr57kfF22IlkD9tEAw5phzVYVa4A14AANMKwdUEls3djHuuG64LrYKw0wrBnWbFWxBlgDDtAAw9oBlbRXT3K+LluRrAH7aIBhzbBmq4o1wBpwgAYY1g6oJLZu7GPdcF1wXeyVBhjWDGu2qlgDrAEHaIBh7YBK2qsnOV+XrUjWgH00wLBmWLNVxRpgDThAAwWwfvv2LThxGbAGWAOsgdpqIJXbwPNwEv+alfHlhIhjUxLallYRSGa2mMyw5gfUlhi4gda2gXJ5c3mTBlbTOQXOV95EMRNbh5DMILCWwSMhgW8nRAyGk0obZVgzrBnWrAHWwB5pYGPjLZoWori1EEU6twF/Ir2VyNqOp3P4k1dEMJlR1l8kYCtrMPKTnp/0rAHWAGugdhqQ0zmcmJaUh+VKIo0PRgJoXYzh/IyMi7MRBeB9QgIdK3GGNQuzdsLksuayZg0UamBcTqIjEFdgHSBYvwwinskhup7Fd5NhJDI5xao+OSUxrFk8heLh8uDyYA3UTgNPgwl0hRIFsL40F8F3EyLuLq0it7GBaDqLrydEhjULs3bC5LLmsmYNFGrALSXRtlxoWc/H0/jduIBXcr5jkTocKTqEOxj3qGOBRVsoWi4PLo961EAsk8PpaUmxoBU3yIugEh3SG4zj5LSk+KwHxDV0Bop81h45CSenqWgKM5q0EE9DTGUQWc8qfiB6pagHQexUh/VQBmb3GM+tYTq5gJmUfyvNp5aQ3ngX02r2//vxO180pdv2vXJSAcl+vOdq3RP5nM3a4HQ0tcUhYtKlhSiuL8RA0R8TsXVkNjaUNBNPKyF8h1+HIaSKokFc7iAcn14G4TJL7iAOjgs4OhlG05yM2/4YegNxeKIpLCYzCKayiKZzSGY3kHUo3JX7N6rLl8EtoVRLrHY+71ouhdPCDRwKNm9LndEhZDaydVk+DZNhw7Z/bFpSBmfUi7FTqX6X19JwjRqztHEz+kO9Tiq7ofikz81F4E9mQBEiQiqLF1ISX3sEDIlriiYL3CCusRDqIrk375O2SnpXsJ96BPxlQsRRnwQqvObFGMivFEpmHGNhKA9co7p01y+syXK+HelFo3gDp4Wb29JxoQU9sZfIbuTqDtgKrA01E1J8qK1LMeW1XIUMb/VdVwqsyWA0KM9GXz5UT1t+ZE33C2s4OyPjnE8C/ebWYgzkHVB/V5+wNihEo8JV4PciD/SWN1G8iaeVVxa7WhoM6+2NKLeRw51IL34Qmw1hTQA/IdyANzm31UDUhrLft6awVtvLpmFDLhO7at8O9VQOrEvJN8NaFWKp2033wsceAZfmo+gUEpBS9np1ZlgXwppcG33xkS1QG1nWeWv7Fk4Lt+BNztcVsEuC9WYb+WgspIy6W1mrXx+/GVwZ1qXCtMa/e28shINjITTOyIil7fH6zLAuhLVnbQaNYotiUROod4L1KaEVZ4Xb8K8LdQPs3cBafQP9aDyEp5v+VDN41dt3tYH1lg9X9eU6bKsFtXov2mNV3v90XMCd5VUs7bHFwbDOw3rj7QZep+ZwatP1oYK6FFgTsC8IbQhm5LoAdjmwVqDtDuKUT8Jk7F2EQ73Bufh+awLr0z4JTk3HpySo6bvXIv7sFfMOfnJb6EWHaKMlrIS4O4TPPAL6g/lA9+KKrMVnhnUe1oGMiIvSzQKLWgW2Xgej6gYhUKvpgngfcmZ13wO7bFhT23GH8IlHwIm5iDI8uhYat/M1agJrOxdApXnL5DYUN0U4lQF1kNDooJ5AHC3+GA7PyPhuSsJfX4fxhVfEwXESoBohUmaEjDuIE7N74xphWL+FlInijNiiJBXQ2q0K61NCcWTIrS1QE7BPCrfQLPUhlVvf18CuCNaqseMOKjPEUawwxQxX2mad+v8M6yqPNCSYUzA7TUU4GVvHkJREqz+mDPM8oFrmqihL3bpD+MekhOXEu/CbWgiw3mEtZ6P4SWozBLXqBjkpXsdQwotzYepUVEP5CmFNwD4RuoUWuQ+pjdrWYy20ol5jR1iT8VKi7t93h3DEJyttST1/PW0Z1lWGtZmYCOTjUhJ/mwzj9x4BB0i05BMvUbw0Hy3FaZtdw8rv6hnW6xtpNMsdOBPOh+hprWnt/mmxBS8TU0qdLKyv4LgJrPMWdiu6Yy9AfnAr68ou5zKFtTuIloUoPhkX8F6puneHQEZObzChDDCzy33WIh8M6z2EtbaCafh6v7iGEz457yopBdjuEP42ISorQGjPVa39eoV1IpfEnSgNermOcyawPiPeQO/qSAF4RxOTOK64RLZb1qr/mrZ9MU/9wfplUAHuYiKDn99ES9e9YtQEcWRKwngkBZpov1qat9N5GdY2gbVWFL7YOt5TfNulWdmHpySs18CXV6+w7o8/x9lwHtRmsL4qdehCoys2qMRYa+FcvP+D8CvciVnd/9dqw2n7ppb15hzL6j3RHDyfbIK41LdL6uT/eS4CektVz7NftwxrG8KaxEZ+7uaFEq0Ndwj3V6ofJVJvsKbRiYOJ8S2LmkBtBOsbcjfo90agaIs+3RHYx4N3MZdaMTyH0bntfHw3sFZ13+SP4eNxoXSXoDuIL70iHguJmhgte1XeDGubwpoEQRM+0URQpfixP3QHMR+rbmRBvcF6PDmNs5uAVkGtB+vz4VuI5/ITvRs1ZIr6uBTuKIgIKbauTwqtOBRsxdI+GjSzW1hT+dGQczGVxaHXYj48thSX4FgI74+HlFVQ7Dby10gTuz3OsLYxrKkyN96+RZ+YLKnT8ZspqaqhTfUE64V0ABekvCWtBXUhrFvQJN2FlImVZA3TFKoEbIJyMajVzyeCd9AU7kQ0W/03pd3CopzflwNr9Tq00GvrShxfvRJLMli2XCfuINqX44jYZOSvej+VbhnWNoc1VTB1oDyXkzt2wHw4FlIs8UpFYfT/9QLrhfSyMoxcz6rWwvpc+CYo4sOovPSOi5kILor3TWF9PHgbZ4UHiOfyK3ronccpxyqBtXqPFPZ6lTogKdS1xKgRiqyiJaso2ko9j9O3DGsHwJpERsC+uhAFzRmyZUHo7J/UmSbRKpHWA6zJom2S7ii+6WKLWv2cD9VrgTvhKwsEC6kATigDY7Zb2GRZq+mq9BgUMmhV/e3FeayAtZpv6nj/48TureymhSjCqazjo0YY1g6BNQlWXs/iAx1AF8D7ZbBqg2X2O6xjuTiuyrd1/dQqqJWt2IKRxERFEPWllnBBvLPNwlZBrW7bIsMVXUcF3V5trYQ13QMt4NEVTCix2QW6N2sX7iC+8oroqEEnfDXLmWHtIFiTEIaFhHmnizuI6/PRqjTw/QxrWkDgbuyhqUVNoCbXyL3ogCXlOxz3oVEojL9WIa3dPoy+dOw8z1bDWoUhDQb7zCvifTNIF3/nDuKDcQHLaxmlL0g9l1O2DGuHwZqE9RdaKqlYiJrPf/SKVQlh2q+wzmxk0Lnah3Pha6awJlA/iD2xFJzutWmcFm5vWdhaSKv7P4TaMBLPj4p0CljUfFYL1ur5B4Q1kN5NtalpG+TzphW+f1mM2W6+ePWejLYMawfCuj0QN+1ooSlVtcv2GFX+bo+bNgiHLutFw7x744M4L5mDmqzqZrkTSYsnXqLr05Jf2mgQFdLa7XeBW5hMvrHEot9tvVfy+2rDmqKlaOkq6s8x1acW2Jv7H7pDmKpyuGslZVf8vwxrB8J6JrauLM5rZF2TX3tEtr4X3LQxOBTW3tQkLkrXccEE1mRRX5HvI5ItLUSvuJHt9Jks+xb5iTKxkxbQxfunhHtYWHfWWpfVhrW2bL2RFI76ZNCET0Zto+A4/e5lEBdoQdkaT4qmzXep+wxrB8KaRjfSq1yB8LSWgzuEjoD1cbr7DdZjyde4LF9VQG0G6ybpNsKZSFWtWvKZt8oDW5EgxaCmz8cpUiTUhjUHhfTVEtYEvWR2A4PC2q7C/Mg18nta4GNp1dYL9zKsHQhrEiXNkW0G6ytV6GTcT7BeSi/jsty8BWo9WJNF3Sj+Al+qNu6HcCaG00I7jgVvm0L7B4EWLrD+YVyqhbeb39Ua1mreaATkmdnNSdFKtrSD+H4yjOl42pZzjTCsHQrrjqWYqd+alkRShWvVdr/AWshIuCLfxHnpnVWtB2sawTi7vmh5OZrVBwH7vNCRt6I1MdfFlvZ1qa+m+TLLs9l3ewVryhONgByRU/h6Nx2QYyF8NC7g4lwEqzYbAcmwdiisR8SEaYfKtxOi5Y15P8BazsbQJLcUWNQE6mJYk1VNkzjtxTzTs6kAzgh3Da1rcofQpE+/hJ+A3CdmsNzr7/YS1uq90xw7V+ejpv08em+pH1Pfj5Ss6hQOah5L2TKsHQrrmVjKNN76t+PWr6DtdFjTiiy3ou3bLOpiWJ8NX8NA/CWyJrPoldK4KvnN66QfJ0PvRjNqLWuC9bFgG04E29ATHWNYl9CGaQSwN7aOH3YzXzz1A7lDOOWTMb1a3UnSStEKw7qEii6lIGv9G5ovQZkrQduxWLRvdZ6cDGsCb0ukDRelK7pWtday7oz17YlFXVxf7rV5HNNxhaiwJmAfCrTiedxni/wW558+28Gy1uaLQv0GhQQ+UtdCLWozeha2cuxlEO1LMSVMUHu+Wu4zrB0Ka5rrwBTWL60P8TKFdRWuZ2VDGEgM4WKRj1q1qNUtrQRDlvfqDtOdWpkvs3PR/NjdsTEcCf5a4BLRwpqAfThwG57kvC1H5dkN1mp5y6ksLi9E8QF1Pu6iA/LbSQmjUnJPOiAZ1g6F9ZZlrVoIOltVmFZt87OeqauzF21tDOtHq4M4J/1saFErVrV0DT9Jt23nA6a5nbtio2jQRIgUw5qAfSR4B3KJU7VapYdSzqPAWkebyoO/aKWYUs5n5W+obFfWMvjCQwsdFOnZ5DMB/sR0dacj1rvPLVgb5K2xzKCCf//nv6Dkoj96F+Zjla0bp/isXwQMRXawGj5rZYpKA1HbFNbe5BTOm7g+VKu6SbqJpbT1fn4rdE5rQFL0x9FNYOvBmoBNaTkt26q9mcJ6NKCsiGRFGVVyDhq3cG0xhs9p7IKZxrWQ3JyutS+UQCpbmyXFFFibtHmGtU0tb5qn1zWynBcXCUebXgTwrdd68LhGVwqvo73myLKtIEGN159e3tH1ocKawvkqafDV/l8C9gWhS3GHmMH6stiDVM4+06o20GovowF93dgE1mrdLSUyoCmGDfOr1fvm/gejAfz5lYC5GgxbV2A9YlCWLwJonAqXpWG2rKsM+c6lVbieLxmmU1NVCN0zuR7lRRW9Hbb+dACN0iXTDsU8qK9iKjVjq7wblR8NhLkodCkx2Kolrbc9F+q2zcIFCqyNdDO8ZAvLuri8qQPyq/EAXMOLhu1rW9sbWcavSzFI69mq9R0osH6+bJgnhnWVoVsslFI/f+MNGVYaieznWestxW0CLWqEpea92r+j9RCvRm7ikvyzKawbpSaMrr0yXei22nnd7fkX0+KOsD4caMPV8FNbWNimsB7y2xLWFDEipjK46Y8at7Ei7SttY3gRf/IElWiT3dZrKb9XYG3yAGFY2xDWyWwOv3/uNxbS8CLal6yf09o1ZHLNoQVbWKfJXEqBNIHaDNY0enEgPmKLPJfSULW/8a+H0BC8q/io9SxrOnYo0IaOiHvPH0SmsH62YEtYF5R1PI3PRpdwYMT4LXabETPkxxdeAWLS2gFLCqxN2mCjJ1CWntkNUkXIL8RS+O2wGTj9GBCsnzvC9WxB/wFBT/tnew9rmr2uLda1I6wpMqRztRcEdm3DdMo+RTGMJnw4FPjVGNiBe/hu5R56Yt49HdzTMLYMl5FWHQBr0kQqt4HulVhe+yawLIA2AXtkEa3+iGUPJAXWJm2w0bO79UBVvTOsqwjrh8sxuAYXDNOnw37MR6swRarJNSk/auXv1bY12onzUtMOsL6Km9FfbTuIZDdlNxCbUGKsda3rwD0cDbTjnyv3MJHcu/6EhlG/oU5dT+YsA9luyq3c39Kw9VPegPH9GLSP90aWEF3PVtw+FFg/nTe8viWwptAYoxRL56rmkC+3Uuz+f//wmAvmyxE/EplcxeIoLgeXiVBcg7WZma44T/Q5u5HFQGIYZ6TLBaDWc4M0R+6A1lrUO4/TjmU2cuiIjOL4ZtheAbQ3YU3Abgjcx0RyeU8eUKawHnAWrEkf9FbzTFzDX93LIM2bGU3a7957MocrPhE0PqJcne0I63ELLOvPhuZhmJ7N23oO2XILtlr/txhPgywSrRAK9p/O409l+q52yrMprJ/Oly3Cna670/ee5CQuSD9tA7UerH+UmvFz5Mau0mXpNspNF6U7aBTvGiYpU1nfAk3kdFno2u4O0cCagH0y2AX/uvWdzjvVTR7WBlBzIKzV+yXjs2s+DFf/rHFb1LG0fzc4j2dLkbJWWldgPWDU9t+gcby88NkCN4jSyMkqM0g0laFaCLw1HiyTyuTwIfn/DMpROd4/gzfx6sTZKg8Jo2s/mat5HdKMeJOpOSVET+1QLN6azQWixlir24IVzMPNhusxNoo3YJROCzehnwoXxlWX8ToptEKsENg078llsbcQ2EWwJmCfDnZCTFdntRujdtswYqLX/hlHuUH07pHcjSfci3A9MebbtvY6MIezY0uYiSV3tZ5nHtazhu2fYV1F37Ne5Zsd616UQa9T2ypfBeiTORwa9Zf11Da7rvqda8BYKK7+2scq06AXWumlGNDaz3aHNUH7itRd8YOOgF/Q4agD68Mr99EYegSphgsXNIws5N8EVY1qt/sA1tQ2yIgaCsbwP09mYdpGtPf+ZA6fDM7jxmQQFN2ltjGzrQLr/hn99v9kDo1j1basH8+wG6SEB0Igsa5fSRoBHBiYw3CwepaT6/GMfsOjB8jj2sI6ko3ikkyuD333hwpsJ8CagH1ZfAiawtWsse70HblUjofu5S1sHViTdX040I7m8FDN5kBRYE2v7hqdbu0/nkHcZhP871TGZt9TP1GTZxm/GTBoJ3pl0D+LPw7OYUJK7MjB2sCa/DpGiWG9YwNdiCbxBQmAnqpG5dg/i6+fzSGaKr8Dw0yI9J2rz2dw/Rnlu53+36rvo7komqO3cFmmyI/9AeujwVvoio1U3Ak4kfTjn4F7OGYAawL2oZX7aJaGsV7hw6GU+lRgbaTbPt++gjWVRya3gTExrrzhGreXIh6SEdQ/g4ueZYQSxvNmK7A2aYPWWNaUGZPEPmt9P7UykiqZxlf0emVSfsp3fT6MLld3Eh9FfEb56PPt+NAppXHv9BuK/Lgm38ZF+V87wvqCdEWZxIkmciolNYq05mLl6WjoBo6YpEahFefE2zgWasWhYCsOB2/hn5vbiWTlvv/B2Gt8u9KmhO4RnPXS94F2dMVeVT0Sq+H5Qv4hr6eb3ul9B2tVvxTmd9En4iOCq9696x3rm4GrexJP/LKula3Aunda/3x9M2h0lxeiWdjBSBk2SQzr7bCmJ3SvX8pb0yZlp5Rr7zQaX5UXtqOKq5Stq9ekHnunqw7r5EYS7bFOnJcvK6A2s6zvxjohZ2WEM1akiLK6Oa1wXu20krYmYqMv5sXxoD6otfAeiFX3IbsFaz0N90ztW1ir7ckfXcM5zwpcPVOmDCzgY+80jriXMCklCvqfFFibnMcaWFMjN0kM60JYS6ksDj5bwIFHU6blppbpn57OQE5W5u9UxWW2dZnl59FU1WH9bO0ZLmlAbQTr09IlrOWsHxRkVjZ2+47igS8L/abukDy0OzCaqF6MfMPzN3CRNajX/nsm9z2sSRdUF1PRpH4Z6JXL5rEPeqdw1fuu01CBdfekwXmmLbKslcqiCtNJPVO6Jr/dxF/t/MTWM0rn4JVXy/iYoEhPUL3y0h57NIXPH/vwSlitOijp/ukVTTdPlN+Hr6uWB1ox5UXSjYvyj1sWNYG6GNY/yj/hSuQGxEykanmptg6sPD+V23XpCcjlobWmtfvfrzzAmWA35lPWT6lL96LAWnnI67T9h6/rAtZqnYqJNC57l/EpvWU80ikPbdtW97sn8f7ALIYDMVDflVkbbHzhL0v3hW4QAo9JqlfLmlwdnmAMh0YX8GW/Dx8okJ40LSttOX7eO4k5OVFWBakC2s1WEYpRPVYR1q9Sk7i0CWcV0upW28F4VmrCYvqdJbKbe9uvv41mEzgV6jaFNQH7Hyvt8KfKmw/ZrOwahufh6jHQdNdEXcGayokW7p2REviYwmC7X5fc1n/zaApf9PtMfj+JxuHy+juKYE2VZZC6X+9Ly5oqZT23gfh6BmJiHUvRNXjDcQwuyvjFu4K/Pp2B64EXrk5v/mlpVD56x7sn8b+PJuGuYpieXgN0dU0Y12OVYB3MBLdZ0yqoVcv6R5oKVb4Cb3KyZg8uvfKx6zEaCHM82IUjOhY2gVpN54Q+RDLWPvwVWNMbmZ6O6xDWWo10zAr4w2Pf7tu/Xll2WwVrauQmaUFOYCW65pjklxOYC8eV5A3F8GI5gqfzIh74BFzwruDkiwUcH57D90Nz+PvTGXzdP43PqYCpDDrNy8KsnNTv/v7UB8qDtuJrsa88WIzqsdNreX4W00s4txn1oQW0dl+1rEfXxiy/fi3KtFbXWEiJaAh0brOwVVDT9tBKBxqFXtCqNFblq4GMEiPNdLxCPF35BEdW5bXW56For+XVFC6NL+aNNqNyKvF445AVlvVOF+vwwOWo9AquBzppp/us8PuDDydweXi2Zmu+FYvXFNYPrIU1LSDwS7TF1KrOW9ZN6Iz3WAaX4nveT5/HEwvbQvq0sFb3fwoPWjZopuGJzwTWnrqGtVZbY4EoPu95jQMVMKJxaLasdlDoBqkgA4ZP5Xo6Z4cHjaNv4BVWC0J5tJVdi33FbWNU7hbCOj/o5QZ+LIr80FrUtP+j/C88jPftan6FWpSTna8xmpjDscCDLQtbBXTxtj0yXlbDL773hgGfsdXYzrDWlhcNaLs7ufLOPWrU1vSOd3rBsNYrmFoc6/TiQLsHn3Z5a9qJqBVP8b7y9qN37+R37/BY0rhpAYH2ePuOFjXBuiV6A8mc8Yiv4vzz57fKCMn2yNiW/7oY0urnI4EOPIp6Kh5RaQrr++NsWetMNRFLpfHNo9d4j97e9dqb3jHLYN3xCi5OO5SBB652Dw60j+Ob/in88moJU0L15vkoB1yu9nHje7hfuSVGoH4U7yvJor4Za0Uka6/yKadM9+J/aFrVW/KoMuxchbPe9mSgEy/ilU192zAwveni1GHAPYa1Uf1ThNwjXxBfPXqtcGFnfnrQ+Ky8+XkK3SDteRARjDhpyuD+OFxtbrjuuPGHh170+IJYjqeQzGT31N1hJCAX5deoDiuENU13+jQxaBiip3WBXJKvQcxYM9LP6F73+3EC9pXw4FYkiB6s6di3y/fgTSyW/dakwJoe8nq6uTfGlrWOZa1qjzogE+ksrr+Yz3NCrwy3jo3j9GB5o1GLYE2Vtc/TvXEoMKOtTjrY4cH/9Uzg731TOPLEhzMj82jzLsGzLIMGxKgVZOet696YcT3eqywaw5uawI8GsdQqqCnW+qL8E3ypyqw9O5dxLfNGU6WeCvYoUSBGsKbjRwOdeJMSy9KoAmvlIa/T/tvcDGsTWKtaIGiPLEdwiN5SjMqy3SJYf97pwX5If+n24rtHE1vp2MA0KF0YmsXl4Tk0e5ZwfyqAh9MBPJ4TMBqIYVKMK0HwNEdAOJHCaiqTt5xLqCS1suyypQeOUT1+WIHPWs7E0RT5GVej13Atet0wNUdb4E+XN1mNXcrQbvmQMwk0Cf04Feg2TCcD3bgkDJQF65MD04aaOdjObpDd6IGs7N45Ab/p9OqW6aVhC6JBomsb4MRlwBpgDbAG7KeBAjcIV5D9KojrhOuENcAaIA0wrPltgt+mWAOsAQdogGHtgEpiy4otK9YAa4BhzbBmq4o1wBpwgAYY1g6oJLaq2KpiDbAGGNYMa7aqWAOsAQdogGHtgEpiq4qtKtYAa4BhzbBmq4o1wBpwgAYY1g6oJLaq2KpiDbAGGNYMa7aqWAOsAQdogGHtgEpiq4qtKtYAa4BhzbBmq4o1wBpwgAYY1g6oJLaq2KpiDbAGGNYMa7aqWAOsAQdogGHtgEpiq4qtKtYAa4BhzbBmq4o1wBpwgAYY1g6oJLaq2KpiDbAGGNYMa7aqWAOsAQdogGHtgEpiq4qtKtYAa4BhzbBmq4o1wBpwgAYY1g6oJLaq2KpiDbAGGNYMa7aqWAOsAQdogGHtgEpiq4qtKtYAa4BhzbBmq4o1wBpwgAYY1g6oJLaq2KpiDbAGVFj/P/iVPvQkrdcrAAAAAElFTkSuQmCC;" parent="u60hzt4KQYkF20324PbD-25" vertex="1">
          <mxGeometry x="600.5" y="60" width="99" height="30" as="geometry" />
        </mxCell>
        <mxCell id="u60hzt4KQYkF20324PbD-28" value="Contabilidad" style="swimlane;horizontal=0;whiteSpace=wrap;html=1;" parent="1" vertex="1">
          <mxGeometry x="19" y="162" width="888" height="150" as="geometry" />
        </mxCell>
        <mxCell id="u60hzt4KQYkF20324PbD-29" value="CAUSACIÃN:&lt;br&gt;&lt;div style=&quot;text-align: left;&quot;&gt;&lt;span style=&quot;background-color: initial;&quot;&gt;- FacturaciÃ³n&lt;/span&gt;&lt;/div&gt;&lt;div style=&quot;text-align: left;&quot;&gt;&lt;span style=&quot;background-color: initial;&quot;&gt;- Notas CrÃ©dito&lt;/span&gt;&lt;/div&gt;&lt;div style=&quot;text-align: left;&quot;&gt;&lt;span style=&quot;background-color: initial;&quot;&gt;- Notas DÃ©bito&lt;/span&gt;&lt;/div&gt;&lt;div style=&quot;text-align: left;&quot;&gt;&lt;span style=&quot;background-color: initial;&quot;&gt;- DSA Documento Soporte a las Adquisiciones&lt;/span&gt;&lt;/div&gt;&lt;div style=&quot;text-align: left;&quot;&gt;&lt;span style=&quot;background-color: initial;&quot;&gt;&lt;b&gt;- Impuestos saludables&lt;/b&gt;&lt;/span&gt;&lt;/div&gt;" style="rounded=1;whiteSpace=wrap;html=1;" parent="u60hzt4KQYkF20324PbD-28" vertex="1">
          <mxGeometry x="50" y="20" width="260" height="90" as="geometry" />
        </mxCell>
        <mxCell id="u60hzt4KQYkF20324PbD-30" style="edgeStyle=orthogonalEdgeStyle;rounded=0;orthogonalLoop=1;jettySize=auto;html=1;entryX=0.5;entryY=0;entryDx=0;entryDy=0;" parent="1" source="u60hzt4KQYkF20324PbD-29" target="u60hzt4KQYkF20324PbD-5" edge="1">
          <mxGeometry relative="1" as="geometry">
            <Array as="points">
              <mxPoint x="154" y="292" />
              <mxPoint x="154" y="292" />
            </Array>
          </mxGeometry>
        </mxCell>
        <mxCell id="u60hzt4KQYkF20324PbD-31" style="edgeStyle=orthogonalEdgeStyle;rounded=0;orthogonalLoop=1;jettySize=auto;html=1;" parent="1" source="u60hzt4KQYkF20324PbD-23" target="u60hzt4KQYkF20324PbD-26" edge="1">
          <mxGeometry relative="1" as="geometry" />
        </mxCell>
      </root>
    </mxGraphModel>
  </diagram>
  <diagram id="m_k7vckRIdtnLszfvp9G" name="Migracion Adaptador Universal">
    <mxGraphModel grid="1" page="1" gridSize="10" guides="1" tooltips="1" connect="1" arrows="1" fold="1" pageScale="1" pageWidth="827" pageHeight="1169" math="0" shadow="0">
      <root>
        <mxCell id="0" />
        <mxCell id="1" parent="0" />
        <mxCell id="nT65vj2aPwtn-zFBRUwP-1" style="edgeStyle=orthogonalEdgeStyle;rounded=0;orthogonalLoop=1;jettySize=auto;html=1;" edge="1" parent="1" source="nT65vj2aPwtn-zFBRUwP-36" target="nT65vj2aPwtn-zFBRUwP-24">
          <mxGeometry relative="1" as="geometry" />
        </mxCell>
        <mxCell id="nT65vj2aPwtn-zFBRUwP-2" value="MigraciÃ³n Adaptador Universal - Ambiente Pruebas" style="text;html=1;strokeColor=none;fillColor=none;align=center;verticalAlign=middle;whiteSpace=wrap;rounded=0;fontStyle=1" vertex="1" parent="1">
          <mxGeometry x="-50" y="120" width="340" height="30" as="geometry" />
        </mxCell>
        <mxCell id="nT65vj2aPwtn-zFBRUwP-3" style="edgeStyle=orthogonalEdgeStyle;rounded=0;orthogonalLoop=1;jettySize=auto;html=1;" edge="1" parent="1" source="nT65vj2aPwtn-zFBRUwP-7" target="nT65vj2aPwtn-zFBRUwP-12">
          <mxGeometry relative="1" as="geometry" />
        </mxCell>
        <mxCell id="nT65vj2aPwtn-zFBRUwP-4" value="Consorcio" style="swimlane;horizontal=0;whiteSpace=wrap;html=1;" vertex="1" parent="1">
          <mxGeometry x="-40" y="310" width="860" height="150" as="geometry" />
        </mxCell>
        <mxCell id="nT65vj2aPwtn-zFBRUwP-5" value="SAP" style="rounded=1;whiteSpace=wrap;html=1;verticalAlign=bottom;" vertex="1" parent="nT65vj2aPwtn-zFBRUwP-4">
          <mxGeometry x="75" y="40" width="120" height="60" as="geometry" />
        </mxCell>
        <mxCell id="nT65vj2aPwtn-zFBRUwP-6" value="" style="image;sketch=0;aspect=fixed;html=1;points=[];align=center;fontSize=12;image=img/lib/mscae/SAP_HANA_on_Azure.svg;" vertex="1" parent="nT65vj2aPwtn-zFBRUwP-4">
          <mxGeometry x="110" y="49" width="62" height="31" as="geometry" />
        </mxCell>
        <mxCell id="nT65vj2aPwtn-zFBRUwP-7" value="SFTP" style="rounded=1;whiteSpace=wrap;html=1;verticalAlign=bottom;" vertex="1" parent="nT65vj2aPwtn-zFBRUwP-4">
          <mxGeometry x="280" y="40" width="120" height="60" as="geometry" />
        </mxCell>
        <mxCell id="nT65vj2aPwtn-zFBRUwP-8" style="edgeStyle=orthogonalEdgeStyle;rounded=0;orthogonalLoop=1;jettySize=auto;html=1;" edge="1" parent="nT65vj2aPwtn-zFBRUwP-4" source="nT65vj2aPwtn-zFBRUwP-5" target="nT65vj2aPwtn-zFBRUwP-7">
          <mxGeometry relative="1" as="geometry" />
        </mxCell>
        <mxCell id="nT65vj2aPwtn-zFBRUwP-9" value="" style="sketch=0;outlineConnect=0;fontColor=#232F3E;gradientColor=none;fillColor=#067F68;strokeColor=none;dashed=0;verticalLabelPosition=bottom;verticalAlign=top;align=center;html=1;fontSize=12;fontStyle=0;aspect=fixed;shape=mxgraph.aws4.transfer_for_sftp_resource;" vertex="1" parent="nT65vj2aPwtn-zFBRUwP-4">
          <mxGeometry x="322.46" y="43.5" width="35.08" height="36" as="geometry" />
        </mxCell>
        <mxCell id="nT65vj2aPwtn-zFBRUwP-10" value="Compensar" style="swimlane;horizontal=0;whiteSpace=wrap;html=1;verticalAlign=bottom;" vertex="1" parent="1">
          <mxGeometry x="-40" y="460" width="860" height="194" as="geometry" />
        </mxCell>
        <mxCell id="nT65vj2aPwtn-zFBRUwP-11" style="edgeStyle=orthogonalEdgeStyle;rounded=0;orthogonalLoop=1;jettySize=auto;html=1;exitX=1;exitY=0.5;exitDx=0;exitDy=0;entryX=0;entryY=0.5;entryDx=0;entryDy=0;" edge="1" parent="nT65vj2aPwtn-zFBRUwP-10" source="nT65vj2aPwtn-zFBRUwP-12" target="nT65vj2aPwtn-zFBRUwP-14">
          <mxGeometry relative="1" as="geometry" />
        </mxCell>
        <mxCell id="nT65vj2aPwtn-zFBRUwP-12" value="Ruta Compartida" style="rounded=1;whiteSpace=wrap;html=1;verticalAlign=bottom;" vertex="1" parent="nT65vj2aPwtn-zFBRUwP-10">
          <mxGeometry x="280" y="47.5" width="120" height="65" as="geometry" />
        </mxCell>
        <mxCell id="nT65vj2aPwtn-zFBRUwP-13" value="" style="sketch=0;pointerEvents=1;shadow=0;dashed=0;html=1;strokeColor=none;fillColor=#505050;labelPosition=center;verticalLabelPosition=bottom;verticalAlign=top;outlineConnect=0;align=center;shape=mxgraph.office.servers.file_server;" vertex="1" parent="nT65vj2aPwtn-zFBRUwP-10">
          <mxGeometry x="330" y="59.5" width="20" height="26" as="geometry" />
        </mxCell>
        <mxCell id="nT65vj2aPwtn-zFBRUwP-14" value="Adaptador Universal" style="rounded=1;whiteSpace=wrap;html=1;verticalAlign=bottom;" vertex="1" parent="nT65vj2aPwtn-zFBRUwP-10">
          <mxGeometry x="590" y="47" width="120" height="65" as="geometry" />
        </mxCell>
        <mxCell id="nT65vj2aPwtn-zFBRUwP-15" value="" style="shape=image;verticalLabelPosition=bottom;labelBackgroundColor=default;verticalAlign=top;aspect=fixed;imageAspect=0;image=data:image/png,iVBORw0KGgoAAAANSUhEUgAAAR4AAACNCAYAAABhTBWPAAAgAElEQVR4Ae2dB5hbxdX3teuWAC/vl/KmvXnpwRgwNs3UhI7pBmMSDAkJYAglIRhCS8BgTOCBGAzG1NBMx17trtu6r7uxcTeu67burLeoSyvpSv/v+c/VSFdtdbWWVtrduX7Gc/udezTz23POnJlrgVqUBJQElATaWAKWNn6eepySgJKAkgAUeFQlUBJQEmhzCSjwtLnI1QOVBJQEFHhUHVASUBJocwko8LS5yNUDlQSUBBR4VB1QElASaHMJKPC0ucjVA5UElAQUeFQdUBJQEmhzCSjwtLnI1QOVBJQEFHiKug6EATCpRUmgY0lAgadIf88QgJD4pyEMTWwJBoV1FEkkhaH/08+PvEzYcJJ+pbiTgliR/th5KFY4HAaTceF2KBSCpmkil+cknme8Jl/rCjz5kmwr7yuBwssJHg0BhBAECB9WpJCODwkaHU5BaAghAMAfBhxeYLsTWGkHFtqASQ1hzHdrcLayTOqy9iEBQsVut2P79u1Yu3YtlixZgrlz56KqqgoVFRWwWq0YP348vvrqK5SVlaG8vFzsmz59OhYuXIiVK1fi22+/xZYtW1BfX49AgDUqP4sCT37k2uq7GsEjQJN4JyozGtAUADZ4gMWOAGbbfKg84MPYXT6M3uLHsG813LY8gMu+0XD2Ig3HzfTgT+vCqPEWl87Dv7x+vz9lYqXn8Xwt/CvPZyQ+n/uCwaB4diE0gWzel+Wz2WxYs2YNZs2ahU8//RQjR47Egw8+iNtuuw0DBgzAhRdeiD59+uC4447DscceG03G7X79+uHyyy/HwIED8Yc//AH3338/XnjhBXz00UcCTIQSgdTY2Cg0JVnGg5GPAo+UotlckCFehTV7qbnzqMsEQR3GBg27g34sdwUw1xZAxYEgPqhtxqhNXjy2zoffLfPhwkVunLrQhWNmO/HfE23oNr4JXcsc6FLuQEmFHV2sHnSzOnDzqgC2FBF4CJVFixbhjTfewJtvvpmUvvzyS/GXm5VbJnPyM3cWNYMZM2bgrbfeiktvv/023nnnHcyZMwdOZ3HqiD6fDytWrBBaCwFByFx88cX41a9+JQBDqKRKRvBw/ZhjjomCSB7jvqOPPlqk448/HieffDKuuuoq3HHHHXj++ecxduxYoUVRK/J4POaEneIsBZ4UQkncFaeFkAsajR/dyBHnCluavpgwLaFoiukXhjtwlSdF3MY0og74gbUODbOaNIyrD2J0rYbntvjw2GYv7llrxzVL3Th/kRs953rwgylNKCmvh6WsHpbxjbCMt8FS5kCp1YEuVgdKy50oKXeitMKO0oomAZ0u5XYMWqNhc3OsRHoJCvc/NQ1WZNkAWOGNiZWdf8UldA7mr2uqt9y1axeGDh2atoE++uij4DnFsEgZUOOg6fTKK6/g1ltvxRlnnBEHDyk/yjQVeIxajgRNYi7vwZznMyeI5Hm9evXC1VdfLbSiV199FfPmzWuVZqrAY6JmRVkhVzTqJMLrovc5cb8BJLSMeVwstBY0wBEANrrCqG4EyuuAD/cAL24J4on1zbh7lRcDvnbg7PlOHD/XjcOqmtGl3Cm0FmouianUakdJmR2WMkJHT9zmfgEgwzVdy3UADVoTQo2v+MDDv9KyUhvzK6+8UoCHMpQNLyLRg854v507d+Khhx5K2UBZpmIBD8tKzYJ+mGHDhuHaa68Vmo1RVqnW04HHuF9eJ/fJ7XS5PE/m1IgeeOABNDc3JzmyM/1ICjyZJBQBSoQt4uyQ0HDCCIciqktEzfEEgb0+YHlTCBPrgY/2Ai9u0vDISj/+vDyAAV8HcPbCZpw4z4P/m+nAoRNssFidsBAkVgdKxutAITwSAWKEjzxO2BhTJvAUk6klNZ6WwDNz5swodNgAc7VkAg8bFsGze/fuXD2y1fehk/jf//63MHcoK2og6cBg3C/hkM+czxsyZIgAT7Yv2InAY1BLspVS5HzyxQsNB/xuLHGGMGF/Mz7aBzxf48f9a5txxwofBi/xo/88H06f24xjZ3nx31Oc6EoNxOpGablL+F0s5Y2wWBt1E2mcE93GOdF1PMHjhIUwEeCxJ2k6cfApJ5yklmPM4zUko8ajwKP/kJnAwwZF8OzZs6eVNeXgL6OWU1lZKXwrvXv3jsJGmkJGyKRazwdw+JzE+951113CQZ/tG3cY8Mh4FmH7RMwbgiIAPxD2A1I7ibhYdG9MJN6F59M2iigwrJhNQWCNPYDKOj/e2RfEP7cBd69qxi3LnRi41IZzF7rRu9qBo2d78IMqJ0oq7Sgpt6HU6kSp1YUSK30tDpSUc78DFrFuQwmhI8DTJDSdUjqChZmk+2p0Dcipa0DiGt5D3ofXy0RAGZNDv4bPNaQuPKe8ETeu1oqqV6sYNB76eFI1WjbuQmo8e/fuxWuvvYb+/fujZ8+eSVqOUeshCPgOEkh0Bl9xxRW4/fbbRe/Wv/71L4wZM0Y4zD/88EN8/vnn+OCDD8T26NGjwePsBSNABg8ejPPPPx8nnHCCuCd9O7y/vLdRVhJAnRs8QpnhfwRJpL9ZgEbHiw4duoN1rYc9Rox7oWm03g1MqtPwwe4gXt4WwMNrPPjDN25cu8SD3yxw4qTZDThyRj0On+xC9wo27iYdHBIg5XZYZLI6IqYTzScmAsdwvNwGSzmvl8l4zJ5wrTPhWp4rr2POexmuT3q2XgbhD5Lg8bQvH08+Ta3a2lrhXDY2JrnOhvbII48UxNTasWMHnn76abCLmz6UVI1elpM5AXDaaafhnnvuweuvv47JkyeL+J3169dj69atqKurE7E9brdbmEQMF/B6vXC5XHA4HDhw4IDoPdy0aZOI/Zk/fz4mTZqE9957D4899hhuvvlm0bNFCCWWhc/u1OCJIEdoe/S/6HjRGxnRw3/6TuZhTKsPYvByB65eYMd58+w4abYNR8+w4edT7fivSju6W52ih4jaAjWSkjIHLGVNKLU2oYtVz2MQaKnxK/CkU8ELrfEUI3gIiscff1yARMLF2Ni5zv3M6e+ho5lay4IFC7Bt2zYBGAYRtrRQm2dqaeFxmnrUvDZs2CB60qglEW5nnXVWtAwsS/GAJ2K9tPRi+Tjm9nqx2AZ8tVvDqB3AIxs1PLzGie3uIMJoBkIUth6Q9t4OHw6f2CBMHWH2VNTDIlKTMFe6lLnQdTz9LjRlqHkw6dpKl7ImMAnwVDBX4GnN76nAEy81gpDQ6du3b7RhS+hI4LChH3XUUbjkkkvw/vvvg1oNu9jNwIRPM3tefMn066ghMSJ66dKlQhtidz671ulc5m+ZCWaJ98yxj4eNO2LQELzNhsfp0f7RbmjpVmEu+MvzRR81t2TSr2eEjCfcjC1+YHJjEG98F8K/doTw13XAwK+d+PU8G/pUN+H4GT4cMdWLn1T5cPgkD/rO9mCtU8eNHnejd3KP2eZDj0pbxCdCuHCdPUy6z0T0GjE2hl3W1ghYBGQYQ6MnBR7Db9uKVQWemNBoDg0fPlxEGBMuNGGYJyZqOTTDqIUQBFyo4WTScmJPav2aBAtzPpsa1rRp00RkMyO95XGzT8gteARB2NAj5g3VPgJF7KfRE4BGZy8Jw/1M+kGRBQPAPlcYcxs0vLc/gGd2arjzWx8uWeBA79lu9JzhxBHTHPjpNC/+Z4ob/29SE7pW7IPFul/3u4geITp2defuKTO9+DYKHj5O13hGb21G90pjT1D69Sh4pH+FADImpfGYrWtx5ynw6OKgScPobQYDEjiESyrw0MQZN24cmpqa4uTIBp9to4+7gYmNdM+gv4gQas3zcwqeCHf0V+GYRoGYiIOXGo8G2LUgNvhCmFTnx6s7mvHgtjBuWOlHn9kuHDfViWOnuvCLqV78cKoPh1e5ccgkJ7pVuFBS7kVJuQddrOyetsFS2QTLBDssjIUpPxDpnqYZZI+mvjPdWO/Uy8GyREqC17f50aMydXc0e4oEbGQeBYvRsWtcN5haPFdeJzWl6PUJ56Xab7w2F9eL7na9J030ainnsqibbCjF4ONhOSZOnIjLLrtMwIbASZVoWtGPQ0ilg4AJfhTVKRnAw+YaVVlMFjwMjy+MtTbgw51OjKgN4J51flwyz4njJ9XjyGlO/KyqCT+a0oDDJzTg+5UOdK10wlJph4XmT4UtGr9SUtkIy4QGlFbY0I0NcYJdDAE49Cs3uo9vRrfxfpRafYZeJjp+Y9pLn5lurHMZlKuIdjVme3rwxDScRFAYYWNcTzyvuLZLaUaqXq24ulss4KmpqREOW3aZpwIO9xE69KtQQ6RJ1YnAo+sxNFKYiCEOCdjnA+bWaRi904dHa7z404ZmXLLYhp9PcePHE134wQQXDqt04pBKF75X4UI3xrewd8j4l17+hTfuy7QeifIVXdWiC1nek47hGHQIoD6zMoMnvYaTLUAIo4Qu7kzv0gbHFXjimCM2igE8HGbAwbGMu5F+HQkf6ds59dRTUV1dDQ4K7WhLBo1Hd8Hs8QBjdgF/WOvBqXMa8cNJ3+GQykYcZnXjUKsHPSrc6FKhdzlz7FBJGSGTnPQeomwbtNnz47WdrMCTEwAo8GTTODq7j4dz5dx0001RB7KEDnMJnk8++aRoR8hn81unOjcjeKjhVDVp6DePmgWhwojbBrFeWuZC6XgfLFaf6BXqYm0QsS6poMN9+QVPvLaTL/AYTTm5LrQm6XyOyxM0oKQgP6mtSbgaTTiuy/3SdyQDEyO58Xikuz8WX6Tfi7FHytSKr/qF1ngYwMfIZAkYo8bDdQbr/fWvfxVxNB3FtIr/BWDm2+khTGsMou8iNywV+kjoruOaxLwvjOJlo6ND1+gbKYzGo8CTCB1uFyt4aGowXN/4F97YEDk6vaNGLq9atUpMa2F8XykHQoc9XNSI2E0t/TqJDbe9b2fWeMJhVDUAZyzwotTaGBkykPiXOfbXOepnaXNTS4GnvYHn2WefjYbhG4Pk2CA7KngIEk5yRt+O0bwyrj/55JPYt29f1JFMraejLSbAA0xtBM5U4BGmjzSvjLkytbJvFtR4OiN4vvvuO/HeRtAY1zkSnTMjyqC8TmtqcaRBPHgS/BZxfgYZ+ZusfbCh6g3U4LdIuDbOp9GKY0YYcN10r1YWz0p8Ruy9UmmBCbJSPp4ooToreKSZxQGgRuDIdc55zAGbHX1phcaT0JgSGi3h0lI6WLi0dH0iFE6Z6coYxyNgmEW3frp307vSKZvEZABtRvC0cC3lLEa8SwdzomOaz0m8ntN0FKdzmeAZMWJEpzO1qM2cc845KaFDE5PTwXLEeEdfzINnofTxsHIbGlMRrSeBZ4YzOmSC4730GGYgVQChAFARvUuuZFyscTwEz3PPPRfXs2N0tnZEHw/Np88++ywKW76v1HSYc5vDInheR19aAR7+5eW8MwmpCBqtAk/yHwQFnuQmXIjudD6TX7bgnDly1LkRPFynw5k9eZ1hyQgeOtSnNhidy4mTXaVT/U34PHIMKwUeBR4zjbZQ4OEczv/85z9Tgocaz6WXXiq60c28Q3s/xxR4pkXAo0/ZqcCTKzOoLe6jNJ7kJloI8LAU/BbVfffdJ8BDDSdR47nxxhuxevXq5AJ3wD0ZwcPBWdPrgTMWemGp4HzBCjxtAYxcPUOBJ7nVFhI8nMXPGLMkfTyEEL/kqcAjfy8FnqJ1ppuBkwKPrMixvFDgkaPRpbajNJ7Yb5K8FgJmKI2n3cJHgSe5ShcreK655hosX748ucAdcI8pUysePGZ7tZJjSvQ4k2QHqJm/3GbOUc7lZNkq8CS32kKBh5O5c/BnOo3nzDPPFBOrJ5e44+1pBXhUHI8ZCBbLOQo8yY22UODhVxueeuqplOChr4fRzPy0DMvX0Rfz4Fng0+caLsLJrmQjVxqP0njMNNhCgcfpdIo4nlQaj5xrmZ+R4RSnHX1R4InMWqgil9u2qnfWyGV+yTMVeGTv1hNPPFHQTye3VS3IAjzsTmdQoDK1pIbVHnJlaiU3pUJpPHwuPwlDX46EjwSOzG+44QbxRc/kUnesPebBI+J4FHjaA2yMZVTgSW6whQQPe63STXlK+HBaDPp5ODVsR15MgicsJgJTGk+yD8XYyItxXYEnufkWCjwsCYdN0JxKp/FwP78oun///uSCd6A9WYCHzmXZRV6cDVA5l5N/FwWe5NZaSPBQkxk7dixOOukkAR9pYsmc4OHH+xYuXNihR6kr8CjncnLLbIM9ndG5LMW6ePFiDBgwIC142MP1wAMPdGgnswKPAo9sD22ad1bwUNuqr68XE91Tu5GaTmLOKTI+/vhjuN3uNv1d2uphpsHTj3E80RnuklX6YvBvtGRqhdREYKgpok8Yd2bwaJqGqqoqMQ0GgZMOQDS55syZ0yFNruzA0858PCfPjM1AqMCjKfBE/pwX0sfDIkith1HM/JxNOvAcddRR+PWvf41FixaBsOpIi2nwnD2/fTmXGRB40iwn1jr1CU/DSuNR4CkS8LAY/MzN/PnzxVQY1Hpk5LLUgOQshdw+99xzQb9QR4JPZvAAmNkIRMEjtJ7iN7UInl4KPFC9Wsl6QqE1HpaIZQgEAnjnnXfAb6QTMDJRA5LgYc797AVjfA+B1REWU+CpbgTOnd+sd6e3U/BIvYc/mprsvfBVt7P6eKTkCR4mfmfr0UcfFQNEjSYX143bEkrDhw/vEF8XNQWeOU3AeQsUeIrBgZ5tGZTGI5t6LC8GjYelYTmowWzevBl33323gI8ETDrw0CT77W9/i127drVrp3P24GknY7USTS2l8SjnskRPsYBHwoflWb9+PYYMGYJevXpFTS4JoVQ5e7wmT54Mr9crX6td5Qo8Ko6nIBW2s5taiUKn5iPhc+KJJ2aED30/nL/n6aefBuf5aW9ju0yBZ640tSrbz5AJpfHoHQDK1Eps4rqJU1tbi6FDhwo/ijRrZM5G/cgjj4hxVclX528PNR9+vphfojjllFPierqMWg/LKZ3PNL348cOpU6eK73a1F+ezAo/SePLXklq4s9J4UguH8OFAUg4UpTnVs2fPJCezETwSQH369MEzzzyDDRs2tItoZwUeBZ7ULSDPexV4Whaww+HAmDFj0L9//2iPF4EjNR+pnRlzQurqq68Wn0nes2ePML8IMqZiWxR4FHgKUicVeFoWuwTGxIkT8bvf/S5pNLsROMZ1akCMC6IZyeEWHBfWbsET7U5vtz4eEp9JD756fbsfPSodMI7tok8o267q9nC+0cezWY3VEq2dDbEYfTzpUETzibE+NL2o8RhBk7guTS/6fi666CKMHDkSa9asKTrzK6PGwxEis2yM4/Hrg0QPMoCwpNyOtMlqR4nV0WIqLScwHGDepcIZl7pWONG1whFJdpxS7cAqF3ETFgnQBH7+s9OPn02144dTnCL9aLITMv3PFCd+OtWFn01z4efTmZz4xXSXSP873YX/m+6OS0dMd4PpqJlekY6e6cXRM304ZqbXkDw4dqZbT7PcOHaWG8fN8uC42W78arYbxzNVe9Cz2p0m8VgsnVDtgUy9qj04sdqDk+Z4Repd7UMfptl6Om22G6dX2/DY5iB2Nqer2m2/X2k82cnc5XLh3XffFUMs2JuVCBy5LcEjc3bPU2P69NNPsW3btqLp/TIFntVu4JmNYdyy1Iebl3lx8zLm8Wnwch+Y5PHBy3y4ZbkXt63w4E8rvLh9hRd3rPDizuV6GrLMi1jyYMgyD4YsZ/JGcrkdn9+1Qj9+9wov/rzKh3tWNeOe1d6E5Ma9a9wYUePC9iB/YH2kFnPqPN84/BixxYent4TwzBYNw2uCeLYmiBGbg3h+i4aXtgcxsjaIl3cF8crOAEbtCuK1nXp6Y6eGMTs1vFmrp7d2aHi7NoT/7Abe2w28z7Qnku8GPmDaE8aHe0N62qfhw30aPtoXwth9Gj7er+Gz7zR8XhfCF3VayvTlgRAS01d1IYw7EML4A2GU1QPlDUBFAzCxHphcF0tVdcC0ugDWuDS4pakvFUC5nV0byMnZCjytE+OSJUvw0EMPoV+/fhm1HyOMzjjjDPztb38TsT+Mli5071eL4JHGiT8MeIKAKwC406Wgfg7P82iANwj4gkAgBGghRmiaS+GQ3t0pbVxTeVSnkboNaRM/pkW+CzU4mVK1O3ke88TEO8ryIBSGSFok53bcBYSd/Bd/KMSIVZmi58hzk/Nsq6ixGHxXSoO/Idd5LK6c2d48R+cr8LRekDabTYzxGjx4cJzjWYImXU4zjebXs88+iwULFoCf2ykUgDKCJ9ZIWWXllok8pHEIbqySi1ZrqPSJcje2FpPrdNa35LBnKdnoRGOLoCgYMbf0d0kuRDjMq+KhxbO4J/EV5H0T75K8zTN5tZQbS8WkbxM1OjJjz5HPS5fHPZsbxhQpgHyqfHRUFinOTS5zfvco8BycfDlSfdmyZeIDgYRJOtgk7qcJRv/P9ddfjzfffFMELRYi+LBF8FA0rPiymbC+Zm4akcbFBixShA7Gyp6oHJi4q7EByltFfzq5w5gDCADwRZq3eBGxThhKAMg7xC6MIYD7Yovx+enW5V1iV0ky8nlSiiyVTHKfBJDU2OLzeKrIp5jJIzhjgTWWQNemUkEqVua2WVPgOXg5U/um9mO1WvHnP/8Zffv2NQUg6f9h79ddd90lrm9sbIz2fkW1+oMvYto7ZASPrN6xOyTviR1LtcbzZUNnLpst9+tNinvkXWUuz5JNkm5hmWSzjD5NXqTfUuzW21oYQYREM5dP1q9hg+cZqRZ5s8Rjcr/5PNloym5PVCrmHxm9RAo0IHQpap/yJgnCTnzNNtpW4MmdoIPBoIh45hQbgwYNysr8IoQuueQSEXy4evVqMVVHcYAnDGxyA6O2+PC3lV48sKoZf0uRHlztx9A1ATy0NhhJATz8rR8Pr2vG39f78Oh6Dx7b4MUTG3z450Yfhm3w4tmaZrywI4QXt4fw720hjNwWwsvbwnhlawivbNUwapuGUduDeHWHnl6r1TC6NoTXazWMqQ3inT0hvLsnhPf2BCNJw/t7Q/hgXxgf7A+joqEZHo06T1jAh7jhUhfQsN4JbHaGommTK4SNTM4QNjg1fV3uc4WwyRVOndxhbGJKd9wVxmYmd3apxhXCNncItd4wdnmA3Z4w9rhD2OfW8J03nDr5gO+Y5HFfGLv9QewNBOCgk4cCIH+KYFHgyf2PwE8fc7ZC+nAuuOCC6LAKmlsy8DBdzvFhv//97/HJJ58ILSr3pYu/Y0aNh4pBdUMYv55nR9dxjSgd70SXsuRUWuZAV6sTXa0udK9w66nSie6VDnSvtInUY6ID35/owiGT3Dh0oguHT3LhR1Ue/HiKCz+JpJ9VuSHSVBd+WsWubbtIP5vm0Lu2Z7jwyxlu/HK6C0fOcOPIGR4cM11PR3N9hhfHzvTh2Fk+XL7UiVofwaO3N13HCWPcngD6L/DgioVuXLGQuQf9F+np8oVuXL7QhcsXuaP7eOyKxd6Uqf9i43W8Nj71X+gG0xW8RxbpykVeXP21D9cu8eO6JX4MWBLA9cy/9uP6r/0YsLg5RdKPG4/duMiNmxa5MLJGQ30RDWRW4IlviLnaorOYvVYcuc4gwtNPP12YX+mAY9xP3w+nWuV3vzZu3Bg1vXJVNuN9TIFnTn0I58+zo6TsACxWGxhsl5gsDMCLJBGLU+5ACZNhv6XcAaaScicsVkckJd9LXFfOgD45KFV+wdQGS4UdJRV6sJ9eBj7DKVJpmRMysQwnznFgozfxi4whvLLZhy7jm1IHEMaV1xhUqJddvkM0j55vE7KhfJJTTDZSRtHgw+j1CedEZGWhrJgqXLCUR5LVBYuVMjSRyvi72TBoeRDbvOnMS2OVaJt1BZ78ypmzGzJuh1+q4Pw9HE5hhEyqdYKH+6n93HzzzZgyZUreJh0zBZ7qhhDOm8+GcaDdfDudQYonzXVioyegWxdREyOEUZt9KE0HHgE8I3A6xvqgFUFs90aEEJVFfit/S3dX4GlJOrk7xi5zfjb5hRdeENpMKuCk20ffz0svvSRML/p9crmYAs/sdg8evRtNF10IozZ1PvDcuCKIHQo8ou2wEbWnIRMH2+BpfnHM1vTp00UvFqfcoFM5k++Hx0877TT85S9/QU1NTU5jfhR4OvggUWnSKfDEmm9nA498c8brbN++HW+//bZwPmcCj9SEaHoNHDhQfOlC3utgcwUeBZ6DrUOtul6ZWq0S20FfROja7XbR+8UJx3r37t2i74dwonZECHHCMTqtc7Eo8Cjw5KIeZX0PBZ6sRZazCwgfOp/379+P//znPzjvvPPSwkeCh/Dh4NRLL70UX3zxxUGXRYFHgeegK1FrbqDA0xqp5f4aThbPgae33norTjjhhGjkszSzmBM+0iwjfC688EIBH/qOCLHWLB0XPFa76E7f4PGLgQLs2lLO5UglaV1daU39SnuNAk9a0bT5AcKjoaEBw4YNE3M9G2EjoSPBw2PsdqfZNWvWrFZ/3VSBR2k8bV7R+UAFnoKIvcWHcuhFZWWlmHKD33SXPV8SPlILkhDiQFN+GaM1S8cGT7UD693NSuMpt0P1asWaB//Cd6bu9Nibp18zmkwcs8XvtRM8RvgYwUP4sLeLc/xwfmjj9emfEjtiCjzVjFxubwGENLUUeKLTuSrwxCq9Ak9MFqnWKB86nq+66irhdE7UeCSAmHNCsjfeeCMa4WwWQKbB0+4ilxV4otBhLI8CT6yJKfDEZJFujTLy+XzC6UyfjjSvjNDhOvffdNNNoJbEa3IGHjqtqfFEwcOxSEU6rCBx8nal8cSGeyjwxJqYAk9MFunWJEAY8zNgwIC03e2ED2OBRowYkdV8zhk1HgmecxdExmop8BQteFv6g6DAE2tiCjwxWaRao3xkYrzP1q1bcfbZZ6eFD/1AjGzmjIhmF1Pg4eh0pfHEtIeWGnixHlPgiTUJM+Dh52T4Rc/OvjBWh/D56quvxLe92NtlNJktgFQAAA/9SURBVLdoahE8nM3w9ddfB3vGzCwKPKo73Uw9yfk5xd6drsAT/5Oz54oThREyqcBDAN17773YuXNn/IVpthR4FHjSVI387lbgya98c313ajIzZswQXeiEDJMEkNy+4oorUFVVZerRCjwKPKYqSq5Pag/g4ffH1RKTACeEv+GGGwR0UoGH023IrvXYVanXFHgUeFLXjDzvLWbw0I9BU0uBJ74S8Gumo0ePTgKP1HyYP/nkkyKgMP7K5C0FHgWe5FrRBnsUeNpAyDl+BJ3M33zzjRilnujrkfC5++67xaRhmR6twKPAk6mO5OW4Ak9exJrXm7I3cMeOHTj//PNBrVD6diR0mN94441irp9MBVHgUeDJVEfyclyBJy9izftN+QWL22+/PW4clxE81157LWbPnp2xHJ0TPJubO91k7yqOJ9YWMsXxKB9PTFaJa3QwP/bYY0LbobnFZNR8Lr/8clM9W6bAM7chjPMYuVyuf96mWIPkzA6ZeHVzM7qMt6X+vE2RDgc5WJkr8MSakAJPTBbZrnEIBb9YwfFbRujIXi5+l6usrCzjbU2CBzh/gQOWivr283mbtINEw3itxo8uZQo8GWtHHk9QplYehZvHW7Nn66233hIxPFLTkTlNrrPOOgufffZZxsGinRM8WxR48lg3Td1agceUmIruJLfbjffffz/OuWwEz29+8xuh8VCrbGlR4FHO5ZbqR96OKfDkTbR5vTHB88EHH6QFT459PB3M1FIaT14rp5mbK/CYkVLxnUMfz4svvhjt1TL6eWhq5bRXa26DAs/BOncLfb1yLscasXIux2SR7Rp7tR5//PG0vVo5jeNR4GnfU2IQego8sSamwBOTRbZrBw4cEJ80pl8nVXc6Y3zWrVuX8bad0sczeksAXSO+HdkFX2Jt/3BpSatS4Im1BQWemCyyXdu1axcuvvhi4eMxmlkEEU0takNNTU0Zb9vxwePyJXxlIozRWxV4MtaMPJ+gfDx5FnAebs9JwdasWYOePXsmxfAQPPwg4EsvvWTqW1sKPKpXKw9VNPMtFXgyy6jYzuDk75z2IlHTkd3pF1xwAaxWq6lid0LwhKBMLVN1I68nKfDkVbx5uXldXZ34ooQEjTGnmcXPIK9YscLUszOChx/+ndcYOrjIZasTFqY8D0eQ/hrm9NmIr0wkmVohEbmsfDym6kfeTlLgyZto83JjzkA4derUlBHLBBCHUPzjH/8A43zMLBnBEw4FMafej3MWc8hEIyyVDXqqsMHCVFkPS+UBlJQ3oWtZE3qMa0L3cXZ0Ge9GaZkX3cY1o+s4rw4eCaA8QUiBJ72DXDmXY81BOZdjsjC7ZrPZMHjw4OiAUKO2w/WLLrrItJnFZ2YGTxhYbwPuXwX8YpoDPaw2dB/nRJfxHljKCBQPSspc+rrYduuajQAUx3ZpsJR7dGhVHMir1hMHnnI7TprjxPoUGo8ytcxWt/ydpzSe/Mk213cmqL/88ksBHeM8PEb43HXXXWLGRp5rZskAHt5EA/jFiqBYQyAE7PYA5d+FMHyrD3/c4Md5i1346RQbSitd+F6FDT3K7ehe5kI3pnF2oQlZyuphsTbkdZBpHHgipta6BPCEw5owtbqVO9TodDM1JE/ndFbwmG2YeRJ71rdlT9aGDRtw2mmnpdV2+M2td955R/RmmX2/FsFD7IRYVAGxEMKkT0jTd4bCkf36cZ7nCwew2wVM3we8tAO4dytww3LglCoHflLpwOETvTh0ogPfn+BAj0oHulU60KVc98dYrA5YymVKbzIIP1HEhxPnM4rG5ThQYmVy48RqO9Y5vXHd6RI83SucCjxZV8PcXdDZwMMG2dDQgG3btonvVOVOkrm/k4SHpmniG+pXXnmlmO7UqOHIdTqVOd0pv7UurzNTohbBwxuQOYI7Zu7WwjksVJ2nGZ82AC9s92PoZmDwGuDcuU4cN7EJv5joxY8ma/ivyX4Bp0Mm1KNHZT26lTehC4FUydSE0oomdC9z4nvjnbBMssEyoQml5Q50tbrQpcyJkjI3LFafMO96KfBETVvl44lVTtbF2tpaDB06NOVf8XxMBMZGXFlZCQ6i/OKLL8AIYM5hXIwLtRyWd+/evWLslYRMqvyyyy7DlClTsn6NjODJ+o4ZLqDepOl6lK45aYA7BOzyAjPrQxi9M4inavy4e10zLlviQq+5jTiiugm/nG7Hj6Y5cViVBz0m+1FS2QxLpUcH0gQ7LJXUkqgxcV0HUs9ZTfjW4VEajxoyEVcrCwWeiooK0ftz8skni+lDp0+fDnZRFxuAPB4PVq9ejauuukqUNxVwuK9v375iwKjf789K2+GP0bbgkbZbCKAPigDS6EOi2abp7iSuh8IaguEggmhGECE0+oEVTcD7+4MYXhvAkPV+XLrQhlOrneg1w4ljp7nxi6lu/HCGB4dNdaN7pQslZU4cP7MRax2uOPDw3pwITJlacW2xzTc6m6lFDYLgoWnCxIbbp08f3H///WKO4n379oEBetQ2sjFZcvnDEYAsx8cff4xzzz1XQEeWNRE+J554Iu677z6hFbG82Za5zcCjm2xS3xG4gRbWmUPuMAkahUkgP0IihYRfW5h6/E/jj8Jrg/DDj6AGfBcAljqBL3YH8OIuDY9uCWPgEg/On+PATUvs2OKMaDwRk5GoG13jRw/hXG5CqdWG0nTxRfQ7RX1PdliEb8mWVwd5nN8qXblasV+ZWrEmWkiNR4KHOWNfmPNDeEOGDBETaG3cuBEcAU5QZduYY2+Y3Rr/CNCs4iTtd955J3r16iWik9NBh0Mj+DljakUSOtmWtc3Ak50oUp9tfEm5nvpM3YrzN4egNdNHFXGERzzllXs0XDHfhXPnNeLkWTYcOdOJH0914pCJ9Cc1oKS8UcCFTmo9HikSIlDeBAtTBZNdz2VcUzmBlMEpXsDjCjyxmsK6Uwgfj1HjkQCSmoQchnDdddfhlVdeQXV1tehNoi+IwXu5Xmge0cxbv3698D098MAD6N27d0qflywjc0KH8TyLFy+Og44CT4pfKAoeKlPCxwR4Q8BOn+5XendvEP/aHsA9q+24fkkT+i9y4vwFLpw6y44Tp7lxzGQXfjCBAZQNsExgFLYblgqXHkA5oQ6Wiv0COiXRXjnZOyfzwgNJgSdWMYoJPFKrkDkBxHVCgEMQOOhy0qRJWL58ObZs2SI0E857TJPMzMJ3pQnldDpFnM3mzZuxbNkyTJgwAc8884xwHtNskuAzQkauy2PHH388brnllpTQ6dDgMSPo1OcIYy1ySF+P/U8s0dvEHgaagoAzBGzxA9WNXny634tRu7wYur4ZN39tx3VLmnHRHDdOnunFsdNd+N/pLhw2wYaSCkf6JJ3eSuOJ/jyd3ccjNZ7EXDb2xP2ciuKOO+7AE088IWJmOBiTvUlz5szBwoUL8fXXX2PVqlUCKvPnz8e8efMwa9YsTJw4UQT/vfnmm2LKij/+8Y/gYE6aU9LUk89MlxM80iG+dOnS6G94MCvtytRq/YvqcNE92Hp4AJWfGHzit7hfP8YrdJ9SACEEw4AtwEjuICoOAGP3hPBabRj/WOfD7cs9+N0yH/ov9qLfXCd6znHjiJke/HCKG90qIr4iMWSEZhu7/LlPakLSTOM+alQyFinxOMe7MUV677IAmdJ4YrWnUBpPVVWV8OcQKmzkiXBpaZuNn938zJmOOuooAY5zzjlHgKR///4YOHAgrrnmGnDCdX7tk85rnmvmWamgI8tz3nnniW+ib9261bSmFZN26rWOD54IQYS5lVoGOdjLbjoNjhCw0QXMrg/g87og3toTwoiaEIauasady/y4bnEA58wNoOecZvx0mhPfo+lmpd+oMeI3IlBcItG31HUcx7tJSEWgRPAIhzehZB5ACjyxn7kQ4OEzaSoNHz5cmDfUIMwAQTb+RDBIACXul9u8LvEceS+zOU0wmntjx44FzbtcLp0GPLkUWvK9pH5EVcmwLk8MA/4AsNUDVDdo+LIugDd3evHMehceXtuMe6gtLXHhN4vcOGmBB0dO9+PQSics4x3oJsbExbQc+pFEqnAK0y4W7S39SQk5ta1yBwat0LDDJwtU+LyzmVpS4hxsSccxfTe33XYbqLHQd2IERjowyHOYJ0LFeIzrvIdxX7p7Ju7nNXQgU3t6/vnnRc8Vy56tD0e+b7q844Mn3ZvncH8caujzi9sRexAPhUTwpH4C/6eR52gGdrg0LLIHUNnUjI93a3hxsxePfOvD/SubcflSL85e4MXJ8zQcMUtDjym+9P6kBF+TJbI9aKWGHc2xshR6zQx46KPgwkqfy4rPe+3cubNNI5cT5c0gvbVr1+Lzzz/HU089JbqnGTsjIZQIhMRtI1RSrcvz5TG53VJ++umnC+cxvyJBPxHjivK1KPDkQLJRzkiSmOtwEHziJSKGSQCJF7LrVBPwYsdFvR/4xg3MbAxjQj3w8V7g3zvCGLY5iAfXBXHLMh8uWOhD7zk+/GSqW4yBKxU+IpuYqkSYZRV2DFzpx5b81aOspcieFn5xkqo8Y0ISE52oK1euFPfNB3jYlUyHa+Jzuc0yvfvuu6ivr8/6vbK9gO/GuB06hvnp31GjRuHBBx/EoEGD0K9fP+HHoROYACE0qOm0BI+WjkkI8R5c530JmxtuuEHMpUOTihN5eb3eKOxzCXyjbBR4jNIo0nVdU9Jjk7hOWHkB1Gn0KYWwsDGMKXXAJzuBMVs0vLAxiIe/DeDWZR5cttiL0xf4cN/GEGp5UZEsrNB79uwRFZ2NLjFt2rQJDocjLw2Az+Zfc8bysKElJgKPk5oz1qUtF1muHTt2iF4q9lzxc8Hs9maPFgFx5plnRnujWoJMqmP02fDb5oQa43Zefvll0ePFXjFGLDNo0biwPEz5WBR48iHVHN+TP32qpD8mEhwZOYHaky8UFprSVgewopF+JWCZHfAwYiA/9ahVb5yvSm2mMIV8tpnyyXOoGcpAP3aZT548WZhnnIZi5MiRGDZsGO69914xQpxz4sjE4Qx///vf8dxzz+G1114TX/8cN24cZsyYgW+++UaMkmdsj9l4IFmeXOUKPLmSZBveR0KI/iIOH9EH3epEEYEDZJG02oL6ugaOgQvoG0UCn0I2fj67kM9vbXVhmQkLamz8qieno6B2yMBA5hxywVRTUwNqTox8Zo8UtbdCQSbVuyrwpJJKO9hHdjDckfDhP2O4gACT+E/XcKgt6yaaNNrawQuqIqaVQCIwE7flhYn7E7fleYXIFXgKIXX1TCWBTi4BBZ5OXgHU6ysJFEICCjyFkLp6ppJAJ5eAAk8nrwDq9ZUECiEBBZ5CSF09U0mgk0tAgaeTVwD1+koChZCAAk8hpK6eqSTQySWgwNPJK4B6fSWBQkhAgacQUlfPVBLo5BJQ4OnkFUC9vpJAISSgwFMIqatnKgl0cgko8HTyCqBeX0mgEBJQ4CmE1NUzlQQ6uQT+P7x+uZWLm+vZAAAAAElFTkSuQmCC;" vertex="1" parent="nT65vj2aPwtn-zFBRUwP-10">
          <mxGeometry x="619.58" y="57.5" width="60.85" height="30" as="geometry" />
        </mxCell>
        <mxCell id="nT65vj2aPwtn-zFBRUwP-16" value="Rutas:&lt;br&gt;\\vmprumalta\FACTURA_ELECTRONICA\Emision\2023\Emision&lt;br&gt;\\VMPCANCUN\FACTURA_ELECTRONICA\Emision\2023\&lt;br&gt;" style="text;html=1;strokeColor=none;fillColor=none;align=left;verticalAlign=middle;whiteSpace=wrap;rounded=0;" vertex="1" parent="nT65vj2aPwtn-zFBRUwP-10">
          <mxGeometry x="200" y="121" width="60" height="30" as="geometry" />
        </mxCell>
        <mxCell id="nT65vj2aPwtn-zFBRUwP-17" value="Servidores:&lt;br&gt;&lt;span class=&quot;Ttulo1Car&quot;&gt;&lt;/span&gt;&lt;span class=&quot;Ttulo1Car&quot;&gt;&lt;/span&gt;&lt;span class=&quot;Ttulo1Car&quot;&gt;&lt;/span&gt;&lt;div&gt;VMPRUHATO&lt;/div&gt;&lt;div style=&quot;&quot;&gt;VMPCALARCA&lt;/div&gt;" style="text;html=1;strokeColor=none;fillColor=none;align=left;verticalAlign=middle;whiteSpace=wrap;rounded=0;" vertex="1" parent="nT65vj2aPwtn-zFBRUwP-10">
          <mxGeometry x="720" y="60" width="60" height="30" as="geometry" />
        </mxCell>
        <mxCell id="nT65vj2aPwtn-zFBRUwP-18" value="Adaptador Universal" style="rounded=1;whiteSpace=wrap;html=1;verticalAlign=bottom;" vertex="1" parent="nT65vj2aPwtn-zFBRUwP-10">
          <mxGeometry x="720" y="47.5" width="120" height="65" as="geometry" />
        </mxCell>
        <mxCell id="nT65vj2aPwtn-zFBRUwP-19" value="Actual: Windows&amp;nbsp; 2016&lt;br&gt;vmpruhato&lt;br&gt;&lt;b&gt;vmpcalarca&lt;/b&gt;" style="text;html=1;strokeColor=none;fillColor=none;align=center;verticalAlign=middle;whiteSpace=wrap;rounded=0;" vertex="1" parent="nT65vj2aPwtn-zFBRUwP-10">
          <mxGeometry x="580" y="10" width="140.01" height="30" as="geometry" />
        </mxCell>
        <mxCell id="nT65vj2aPwtn-zFBRUwP-20" value="Nuevo: Windows 2022&lt;br&gt;vmprudinamarca&lt;br&gt;&lt;b&gt;vmpjapon&lt;/b&gt;" style="text;html=1;strokeColor=none;fillColor=none;align=center;verticalAlign=middle;whiteSpace=wrap;rounded=0;" vertex="1" parent="nT65vj2aPwtn-zFBRUwP-10">
          <mxGeometry x="720" y="10" width="130" height="30" as="geometry" />
        </mxCell>
        <mxCell id="nT65vj2aPwtn-zFBRUwP-21" value="" style="shape=image;verticalLabelPosition=bottom;labelBackgroundColor=default;verticalAlign=top;aspect=fixed;imageAspect=0;image=data:image/png,iVBORw0KGgoAAAANSUhEUgAAAR4AAACNCAYAAABhTBWPAAAgAElEQVR4Ae2dB5hbxdX3teuWAC/vl/KmvXnpwRgwNs3UhI7pBmMSDAkJYAglIRhCS8BgTOCBGAzG1NBMx17trtu6r7uxcTeu67burLeoSyvpSv/v+c/VSFdtdbWWVtrduX7Gc/udezTz23POnJlrgVqUBJQElATaWAKWNn6eepySgJKAkgAUeFQlUBJQEmhzCSjwtLnI1QOVBJQEFHhUHVASUBJocwko8LS5yNUDlQSUBBR4VB1QElASaHMJKPC0ucjVA5UElAQUeFQdUBJQEmhzCSjwtLnI1QOVBJQEFHiKug6EATCpRUmgY0lAgadIf88QgJD4pyEMTWwJBoV1FEkkhaH/08+PvEzYcJJ+pbiTgliR/th5KFY4HAaTceF2KBSCpmkil+cknme8Jl/rCjz5kmwr7yuBwssJHg0BhBAECB9WpJCODwkaHU5BaAghAMAfBhxeYLsTWGkHFtqASQ1hzHdrcLayTOqy9iEBQsVut2P79u1Yu3YtlixZgrlz56KqqgoVFRWwWq0YP348vvrqK5SVlaG8vFzsmz59OhYuXIiVK1fi22+/xZYtW1BfX49AgDUqP4sCT37k2uq7GsEjQJN4JyozGtAUADZ4gMWOAGbbfKg84MPYXT6M3uLHsG813LY8gMu+0XD2Ig3HzfTgT+vCqPEWl87Dv7x+vz9lYqXn8Xwt/CvPZyQ+n/uCwaB4diE0gWzel+Wz2WxYs2YNZs2ahU8//RQjR47Egw8+iNtuuw0DBgzAhRdeiD59+uC4447DscceG03G7X79+uHyyy/HwIED8Yc//AH3338/XnjhBXz00UcCTIQSgdTY2Cg0JVnGg5GPAo+UotlckCFehTV7qbnzqMsEQR3GBg27g34sdwUw1xZAxYEgPqhtxqhNXjy2zoffLfPhwkVunLrQhWNmO/HfE23oNr4JXcsc6FLuQEmFHV2sHnSzOnDzqgC2FBF4CJVFixbhjTfewJtvvpmUvvzyS/GXm5VbJnPyM3cWNYMZM2bgrbfeiktvv/023nnnHcyZMwdOZ3HqiD6fDytWrBBaCwFByFx88cX41a9+JQBDqKRKRvBw/ZhjjomCSB7jvqOPPlqk448/HieffDKuuuoq3HHHHXj++ecxduxYoUVRK/J4POaEneIsBZ4UQkncFaeFkAsajR/dyBHnCluavpgwLaFoiukXhjtwlSdF3MY0og74gbUODbOaNIyrD2J0rYbntvjw2GYv7llrxzVL3Th/kRs953rwgylNKCmvh6WsHpbxjbCMt8FS5kCp1YEuVgdKy50oKXeitMKO0oomAZ0u5XYMWqNhc3OsRHoJCvc/NQ1WZNkAWOGNiZWdf8UldA7mr2uqt9y1axeGDh2atoE++uij4DnFsEgZUOOg6fTKK6/g1ltvxRlnnBEHDyk/yjQVeIxajgRNYi7vwZznMyeI5Hm9evXC1VdfLbSiV199FfPmzWuVZqrAY6JmRVkhVzTqJMLrovc5cb8BJLSMeVwstBY0wBEANrrCqG4EyuuAD/cAL24J4on1zbh7lRcDvnbg7PlOHD/XjcOqmtGl3Cm0FmouianUakdJmR2WMkJHT9zmfgEgwzVdy3UADVoTQo2v+MDDv9KyUhvzK6+8UoCHMpQNLyLRg854v507d+Khhx5K2UBZpmIBD8tKzYJ+mGHDhuHaa68Vmo1RVqnW04HHuF9eJ/fJ7XS5PE/m1IgeeOABNDc3JzmyM/1ICjyZJBQBSoQt4uyQ0HDCCIciqktEzfEEgb0+YHlTCBPrgY/2Ai9u0vDISj/+vDyAAV8HcPbCZpw4z4P/m+nAoRNssFidsBAkVgdKxutAITwSAWKEjzxO2BhTJvAUk6klNZ6WwDNz5swodNgAc7VkAg8bFsGze/fuXD2y1fehk/jf//63MHcoK2og6cBg3C/hkM+czxsyZIgAT7Yv2InAY1BLspVS5HzyxQsNB/xuLHGGMGF/Mz7aBzxf48f9a5txxwofBi/xo/88H06f24xjZ3nx31Oc6EoNxOpGablL+F0s5Y2wWBt1E2mcE93GOdF1PMHjhIUwEeCxJ2k6cfApJ5yklmPM4zUko8ajwKP/kJnAwwZF8OzZs6eVNeXgL6OWU1lZKXwrvXv3jsJGmkJGyKRazwdw+JzE+951113CQZ/tG3cY8Mh4FmH7RMwbgiIAPxD2A1I7ibhYdG9MJN6F59M2iigwrJhNQWCNPYDKOj/e2RfEP7cBd69qxi3LnRi41IZzF7rRu9qBo2d78IMqJ0oq7Sgpt6HU6kSp1YUSK30tDpSUc78DFrFuQwmhI8DTJDSdUjqChZmk+2p0Dcipa0DiGt5D3ofXy0RAGZNDv4bPNaQuPKe8ETeu1oqqV6sYNB76eFI1WjbuQmo8e/fuxWuvvYb+/fujZ8+eSVqOUeshCPgOEkh0Bl9xxRW4/fbbRe/Wv/71L4wZM0Y4zD/88EN8/vnn+OCDD8T26NGjwePsBSNABg8ejPPPPx8nnHCCuCd9O7y/vLdRVhJAnRs8QpnhfwRJpL9ZgEbHiw4duoN1rYc9Rox7oWm03g1MqtPwwe4gXt4WwMNrPPjDN25cu8SD3yxw4qTZDThyRj0On+xC9wo27iYdHBIg5XZYZLI6IqYTzScmAsdwvNwGSzmvl8l4zJ5wrTPhWp4rr2POexmuT3q2XgbhD5Lg8bQvH08+Ta3a2lrhXDY2JrnOhvbII48UxNTasWMHnn76abCLmz6UVI1elpM5AXDaaafhnnvuweuvv47JkyeL+J3169dj69atqKurE7E9brdbmEQMF/B6vXC5XHA4HDhw4IDoPdy0aZOI/Zk/fz4mTZqE9957D4899hhuvvlm0bNFCCWWhc/u1OCJIEdoe/S/6HjRGxnRw3/6TuZhTKsPYvByB65eYMd58+w4abYNR8+w4edT7fivSju6W52ih4jaAjWSkjIHLGVNKLU2oYtVz2MQaKnxK/CkU8ELrfEUI3gIiscff1yARMLF2Ni5zv3M6e+ho5lay4IFC7Bt2zYBGAYRtrRQm2dqaeFxmnrUvDZs2CB60qglEW5nnXVWtAwsS/GAJ2K9tPRi+Tjm9nqx2AZ8tVvDqB3AIxs1PLzGie3uIMJoBkIUth6Q9t4OHw6f2CBMHWH2VNTDIlKTMFe6lLnQdTz9LjRlqHkw6dpKl7ImMAnwVDBX4GnN76nAEy81gpDQ6du3b7RhS+hI4LChH3XUUbjkkkvw/vvvg1oNu9jNwIRPM3tefMn066ghMSJ66dKlQhtidz671ulc5m+ZCWaJ98yxj4eNO2LQELzNhsfp0f7RbmjpVmEu+MvzRR81t2TSr2eEjCfcjC1+YHJjEG98F8K/doTw13XAwK+d+PU8G/pUN+H4GT4cMdWLn1T5cPgkD/rO9mCtU8eNHnejd3KP2eZDj0pbxCdCuHCdPUy6z0T0GjE2hl3W1ghYBGQYQ6MnBR7Db9uKVQWemNBoDg0fPlxEGBMuNGGYJyZqOTTDqIUQBFyo4WTScmJPav2aBAtzPpsa1rRp00RkMyO95XGzT8gteARB2NAj5g3VPgJF7KfRE4BGZy8Jw/1M+kGRBQPAPlcYcxs0vLc/gGd2arjzWx8uWeBA79lu9JzhxBHTHPjpNC/+Z4ob/29SE7pW7IPFul/3u4geITp2defuKTO9+DYKHj5O13hGb21G90pjT1D69Sh4pH+FADImpfGYrWtx5ynw6OKgScPobQYDEjiESyrw0MQZN24cmpqa4uTIBp9to4+7gYmNdM+gv4gQas3zcwqeCHf0V+GYRoGYiIOXGo8G2LUgNvhCmFTnx6s7mvHgtjBuWOlHn9kuHDfViWOnuvCLqV78cKoPh1e5ccgkJ7pVuFBS7kVJuQddrOyetsFS2QTLBDssjIUpPxDpnqYZZI+mvjPdWO/Uy8GyREqC17f50aMydXc0e4oEbGQeBYvRsWtcN5haPFdeJzWl6PUJ56Xab7w2F9eL7na9J030ainnsqibbCjF4ONhOSZOnIjLLrtMwIbASZVoWtGPQ0ilg4AJfhTVKRnAw+YaVVlMFjwMjy+MtTbgw51OjKgN4J51flwyz4njJ9XjyGlO/KyqCT+a0oDDJzTg+5UOdK10wlJph4XmT4UtGr9SUtkIy4QGlFbY0I0NcYJdDAE49Cs3uo9vRrfxfpRafYZeJjp+Y9pLn5lurHMZlKuIdjVme3rwxDScRFAYYWNcTzyvuLZLaUaqXq24ulss4KmpqREOW3aZpwIO9xE69KtQQ6RJ1YnAo+sxNFKYiCEOCdjnA+bWaRi904dHa7z404ZmXLLYhp9PcePHE134wQQXDqt04pBKF75X4UI3xrewd8j4l17+hTfuy7QeifIVXdWiC1nek47hGHQIoD6zMoMnvYaTLUAIo4Qu7kzv0gbHFXjimCM2igE8HGbAwbGMu5F+HQkf6ds59dRTUV1dDQ4K7WhLBo1Hd8Hs8QBjdgF/WOvBqXMa8cNJ3+GQykYcZnXjUKsHPSrc6FKhdzlz7FBJGSGTnPQeomwbtNnz47WdrMCTEwAo8GTTODq7j4dz5dx0001RB7KEDnMJnk8++aRoR8hn81unOjcjeKjhVDVp6DePmgWhwojbBrFeWuZC6XgfLFaf6BXqYm0QsS6poMN9+QVPvLaTL/AYTTm5LrQm6XyOyxM0oKQgP6mtSbgaTTiuy/3SdyQDEyO58Xikuz8WX6Tfi7FHytSKr/qF1ngYwMfIZAkYo8bDdQbr/fWvfxVxNB3FtIr/BWDm2+khTGsMou8iNywV+kjoruOaxLwvjOJlo6ND1+gbKYzGo8CTCB1uFyt4aGowXN/4F97YEDk6vaNGLq9atUpMa2F8XykHQoc9XNSI2E0t/TqJDbe9b2fWeMJhVDUAZyzwotTaGBkykPiXOfbXOepnaXNTS4GnvYHn2WefjYbhG4Pk2CA7KngIEk5yRt+O0bwyrj/55JPYt29f1JFMraejLSbAA0xtBM5U4BGmjzSvjLkytbJvFtR4OiN4vvvuO/HeRtAY1zkSnTMjyqC8TmtqcaRBPHgS/BZxfgYZ+ZusfbCh6g3U4LdIuDbOp9GKY0YYcN10r1YWz0p8Ruy9UmmBCbJSPp4ooToreKSZxQGgRuDIdc55zAGbHX1phcaT0JgSGi3h0lI6WLi0dH0iFE6Z6coYxyNgmEW3frp307vSKZvEZABtRvC0cC3lLEa8SwdzomOaz0m8ntN0FKdzmeAZMWJEpzO1qM2cc845KaFDE5PTwXLEeEdfzINnofTxsHIbGlMRrSeBZ4YzOmSC4730GGYgVQChAFARvUuuZFyscTwEz3PPPRfXs2N0tnZEHw/Np88++ywKW76v1HSYc5vDInheR19aAR7+5eW8MwmpCBqtAk/yHwQFnuQmXIjudD6TX7bgnDly1LkRPFynw5k9eZ1hyQgeOtSnNhidy4mTXaVT/U34PHIMKwUeBR4zjbZQ4OEczv/85z9Tgocaz6WXXiq60c28Q3s/xxR4pkXAo0/ZqcCTKzOoLe6jNJ7kJloI8LAU/BbVfffdJ8BDDSdR47nxxhuxevXq5AJ3wD0ZwcPBWdPrgTMWemGp4HzBCjxtAYxcPUOBJ7nVFhI8nMXPGLMkfTyEEL/kqcAjfy8FnqJ1ppuBkwKPrMixvFDgkaPRpbajNJ7Yb5K8FgJmKI2n3cJHgSe5ShcreK655hosX748ucAdcI8pUysePGZ7tZJjSvQ4k2QHqJm/3GbOUc7lZNkq8CS32kKBh5O5c/BnOo3nzDPPFBOrJ5e44+1pBXhUHI8ZCBbLOQo8yY22UODhVxueeuqplOChr4fRzPy0DMvX0Rfz4Fng0+caLsLJrmQjVxqP0njMNNhCgcfpdIo4nlQaj5xrmZ+R4RSnHX1R4InMWqgil9u2qnfWyGV+yTMVeGTv1hNPPFHQTye3VS3IAjzsTmdQoDK1pIbVHnJlaiU3pUJpPHwuPwlDX46EjwSOzG+44QbxRc/kUnesPebBI+J4FHjaA2yMZVTgSW6whQQPe63STXlK+HBaDPp5ODVsR15MgicsJgJTGk+yD8XYyItxXYEnufkWCjwsCYdN0JxKp/FwP78oun///uSCd6A9WYCHzmXZRV6cDVA5l5N/FwWe5NZaSPBQkxk7dixOOukkAR9pYsmc4OHH+xYuXNihR6kr8CjncnLLbIM9ndG5LMW6ePFiDBgwIC142MP1wAMPdGgnswKPAo9sD22ad1bwUNuqr68XE91Tu5GaTmLOKTI+/vhjuN3uNv1d2uphpsHTj3E80RnuklX6YvBvtGRqhdREYKgpok8Yd2bwaJqGqqoqMQ0GgZMOQDS55syZ0yFNruzA0858PCfPjM1AqMCjKfBE/pwX0sfDIkith1HM/JxNOvAcddRR+PWvf41FixaBsOpIi2nwnD2/fTmXGRB40iwn1jr1CU/DSuNR4CkS8LAY/MzN/PnzxVQY1Hpk5LLUgOQshdw+99xzQb9QR4JPZvAAmNkIRMEjtJ7iN7UInl4KPFC9Wsl6QqE1HpaIZQgEAnjnnXfAb6QTMDJRA5LgYc797AVjfA+B1REWU+CpbgTOnd+sd6e3U/BIvYc/mprsvfBVt7P6eKTkCR4mfmfr0UcfFQNEjSYX143bEkrDhw/vEF8XNQWeOU3AeQsUeIrBgZ5tGZTGI5t6LC8GjYelYTmowWzevBl33323gI8ETDrw0CT77W9/i127drVrp3P24GknY7USTS2l8SjnskRPsYBHwoflWb9+PYYMGYJevXpFTS4JoVQ5e7wmT54Mr9crX6td5Qo8Ko6nIBW2s5taiUKn5iPhc+KJJ2aED30/nL/n6aefBuf5aW9ju0yBZ640tSrbz5AJpfHoHQDK1Eps4rqJU1tbi6FDhwo/ijRrZM5G/cgjj4hxVclX528PNR9+vphfojjllFPierqMWg/LKZ3PNL348cOpU6eK73a1F+ezAo/SePLXklq4s9J4UguH8OFAUg4UpTnVs2fPJCezETwSQH369MEzzzyDDRs2tItoZwUeBZ7ULSDPexV4Whaww+HAmDFj0L9//2iPF4EjNR+pnRlzQurqq68Wn0nes2ePML8IMqZiWxR4FHgKUicVeFoWuwTGxIkT8bvf/S5pNLsROMZ1akCMC6IZyeEWHBfWbsET7U5vtz4eEp9JD756fbsfPSodMI7tok8o267q9nC+0cezWY3VEq2dDbEYfTzpUETzibE+NL2o8RhBk7guTS/6fi666CKMHDkSa9asKTrzK6PGwxEis2yM4/Hrg0QPMoCwpNyOtMlqR4nV0WIqLScwHGDepcIZl7pWONG1whFJdpxS7cAqF3ETFgnQBH7+s9OPn02144dTnCL9aLITMv3PFCd+OtWFn01z4efTmZz4xXSXSP873YX/m+6OS0dMd4PpqJlekY6e6cXRM304ZqbXkDw4dqZbT7PcOHaWG8fN8uC42W78arYbxzNVe9Cz2p0m8VgsnVDtgUy9qj04sdqDk+Z4Repd7UMfptl6Om22G6dX2/DY5iB2Nqer2m2/X2k82cnc5XLh3XffFUMs2JuVCBy5LcEjc3bPU2P69NNPsW3btqLp/TIFntVu4JmNYdyy1Iebl3lx8zLm8Wnwch+Y5PHBy3y4ZbkXt63w4E8rvLh9hRd3rPDizuV6GrLMi1jyYMgyD4YsZ/JGcrkdn9+1Qj9+9wov/rzKh3tWNeOe1d6E5Ma9a9wYUePC9iB/YH2kFnPqPN84/BixxYent4TwzBYNw2uCeLYmiBGbg3h+i4aXtgcxsjaIl3cF8crOAEbtCuK1nXp6Y6eGMTs1vFmrp7d2aHi7NoT/7Abe2w28z7Qnku8GPmDaE8aHe0N62qfhw30aPtoXwth9Gj7er+Gz7zR8XhfCF3VayvTlgRAS01d1IYw7EML4A2GU1QPlDUBFAzCxHphcF0tVdcC0ugDWuDS4pakvFUC5nV0byMnZCjytE+OSJUvw0EMPoV+/fhm1HyOMzjjjDPztb38TsT+Mli5071eL4JHGiT8MeIKAKwC406Wgfg7P82iANwj4gkAgBGghRmiaS+GQ3t0pbVxTeVSnkboNaRM/pkW+CzU4mVK1O3ke88TEO8ryIBSGSFok53bcBYSd/Bd/KMSIVZmi58hzk/Nsq6ixGHxXSoO/Idd5LK6c2d48R+cr8LRekDabTYzxGjx4cJzjWYImXU4zjebXs88+iwULFoCf2ykUgDKCJ9ZIWWXllok8pHEIbqySi1ZrqPSJcje2FpPrdNa35LBnKdnoRGOLoCgYMbf0d0kuRDjMq+KhxbO4J/EV5H0T75K8zTN5tZQbS8WkbxM1OjJjz5HPS5fHPZsbxhQpgHyqfHRUFinOTS5zfvco8BycfDlSfdmyZeIDgYRJOtgk7qcJRv/P9ddfjzfffFMELRYi+LBF8FA0rPiymbC+Zm4akcbFBixShA7Gyp6oHJi4q7EByltFfzq5w5gDCADwRZq3eBGxThhKAMg7xC6MIYD7Yovx+enW5V1iV0ky8nlSiiyVTHKfBJDU2OLzeKrIp5jJIzhjgTWWQNemUkEqVua2WVPgOXg5U/um9mO1WvHnP/8Zffv2NQUg6f9h79ddd90lrm9sbIz2fkW1+oMvYto7ZASPrN6xOyTviR1LtcbzZUNnLpst9+tNinvkXWUuz5JNkm5hmWSzjD5NXqTfUuzW21oYQYREM5dP1q9hg+cZqRZ5s8Rjcr/5PNloym5PVCrmHxm9RAo0IHQpap/yJgnCTnzNNtpW4MmdoIPBoIh45hQbgwYNysr8IoQuueQSEXy4evVqMVVHcYAnDGxyA6O2+PC3lV48sKoZf0uRHlztx9A1ATy0NhhJATz8rR8Pr2vG39f78Oh6Dx7b4MUTG3z450Yfhm3w4tmaZrywI4QXt4fw720hjNwWwsvbwnhlawivbNUwapuGUduDeHWHnl6r1TC6NoTXazWMqQ3inT0hvLsnhPf2BCNJw/t7Q/hgXxgf7A+joqEZHo06T1jAh7jhUhfQsN4JbHaGommTK4SNTM4QNjg1fV3uc4WwyRVOndxhbGJKd9wVxmYmd3apxhXCNncItd4wdnmA3Z4w9rhD2OfW8J03nDr5gO+Y5HFfGLv9QewNBOCgk4cCIH+KYFHgyf2PwE8fc7ZC+nAuuOCC6LAKmlsy8DBdzvFhv//97/HJJ58ILSr3pYu/Y0aNh4pBdUMYv55nR9dxjSgd70SXsuRUWuZAV6sTXa0udK9w66nSie6VDnSvtInUY6ID35/owiGT3Dh0oguHT3LhR1Ue/HiKCz+JpJ9VuSHSVBd+WsWubbtIP5vm0Lu2Z7jwyxlu/HK6C0fOcOPIGR4cM11PR3N9hhfHzvTh2Fk+XL7UiVofwaO3N13HCWPcngD6L/DgioVuXLGQuQf9F+np8oVuXL7QhcsXuaP7eOyKxd6Uqf9i43W8Nj71X+gG0xW8RxbpykVeXP21D9cu8eO6JX4MWBLA9cy/9uP6r/0YsLg5RdKPG4/duMiNmxa5MLJGQ30RDWRW4IlviLnaorOYvVYcuc4gwtNPP12YX+mAY9xP3w+nWuV3vzZu3Bg1vXJVNuN9TIFnTn0I58+zo6TsACxWGxhsl5gsDMCLJBGLU+5ACZNhv6XcAaaScicsVkckJd9LXFfOgD45KFV+wdQGS4UdJRV6sJ9eBj7DKVJpmRMysQwnznFgozfxi4whvLLZhy7jm1IHEMaV1xhUqJddvkM0j55vE7KhfJJTTDZSRtHgw+j1CedEZGWhrJgqXLCUR5LVBYuVMjSRyvi72TBoeRDbvOnMS2OVaJt1BZ78ypmzGzJuh1+q4Pw9HE5hhEyqdYKH+6n93HzzzZgyZUreJh0zBZ7qhhDOm8+GcaDdfDudQYonzXVioyegWxdREyOEUZt9KE0HHgE8I3A6xvqgFUFs90aEEJVFfit/S3dX4GlJOrk7xi5zfjb5hRdeENpMKuCk20ffz0svvSRML/p9crmYAs/sdg8evRtNF10IozZ1PvDcuCKIHQo8ou2wEbWnIRMH2+BpfnHM1vTp00UvFqfcoFM5k++Hx0877TT85S9/QU1NTU5jfhR4OvggUWnSKfDEmm9nA498c8brbN++HW+//bZwPmcCj9SEaHoNHDhQfOlC3utgcwUeBZ6DrUOtul6ZWq0S20FfROja7XbR+8UJx3r37t2i74dwonZECHHCMTqtc7Eo8Cjw5KIeZX0PBZ6sRZazCwgfOp/379+P//znPzjvvPPSwkeCh/Dh4NRLL70UX3zxxUGXRYFHgeegK1FrbqDA0xqp5f4aThbPgae33norTjjhhGjkszSzmBM+0iwjfC688EIBH/qOCLHWLB0XPFa76E7f4PGLgQLs2lLO5UglaV1daU39SnuNAk9a0bT5AcKjoaEBw4YNE3M9G2EjoSPBw2PsdqfZNWvWrFZ/3VSBR2k8bV7R+UAFnoKIvcWHcuhFZWWlmHKD33SXPV8SPlILkhDiQFN+GaM1S8cGT7UD693NSuMpt0P1asWaB//Cd6bu9Nibp18zmkwcs8XvtRM8RvgYwUP4sLeLc/xwfmjj9emfEjtiCjzVjFxubwGENLUUeKLTuSrwxCq9Ak9MFqnWKB86nq+66irhdE7UeCSAmHNCsjfeeCMa4WwWQKbB0+4ilxV4otBhLI8CT6yJKfDEZJFujTLy+XzC6UyfjjSvjNDhOvffdNNNoJbEa3IGHjqtqfFEwcOxSEU6rCBx8nal8cSGeyjwxJqYAk9MFunWJEAY8zNgwIC03e2ED2OBRowYkdV8zhk1HgmecxdExmop8BQteFv6g6DAE2tiCjwxWaRao3xkYrzP1q1bcfbZZ6eFD/1AjGzmjIhmF1Pg4eh0pfHEtIeWGnixHlPgiTUJM+Dh52T4Rc/OvjBWh/D56quvxLe92NtlNJktgFQAAA/9SURBVLdoahE8nM3w9ddfB3vGzCwKPKo73Uw9yfk5xd6drsAT/5Oz54oThREyqcBDAN17773YuXNn/IVpthR4FHjSVI387lbgya98c313ajIzZswQXeiEDJMEkNy+4oorUFVVZerRCjwKPKYqSq5Pag/g4ffH1RKTACeEv+GGGwR0UoGH023IrvXYVanXFHgUeFLXjDzvLWbw0I9BU0uBJ74S8Gumo0ePTgKP1HyYP/nkkyKgMP7K5C0FHgWe5FrRBnsUeNpAyDl+BJ3M33zzjRilnujrkfC5++67xaRhmR6twKPAk6mO5OW4Ak9exJrXm7I3cMeOHTj//PNBrVD6diR0mN94441irp9MBVHgUeDJVEfyclyBJy9izftN+QWL22+/PW4clxE81157LWbPnp2xHJ0TPJubO91k7yqOJ9YWMsXxKB9PTFaJa3QwP/bYY0LbobnFZNR8Lr/8clM9W6bAM7chjPMYuVyuf96mWIPkzA6ZeHVzM7qMt6X+vE2RDgc5WJkr8MSakAJPTBbZrnEIBb9YwfFbRujIXi5+l6usrCzjbU2CBzh/gQOWivr283mbtINEw3itxo8uZQo8GWtHHk9QplYehZvHW7Nn66233hIxPFLTkTlNrrPOOgufffZZxsGinRM8WxR48lg3Td1agceUmIruJLfbjffffz/OuWwEz29+8xuh8VCrbGlR4FHO5ZbqR96OKfDkTbR5vTHB88EHH6QFT459PB3M1FIaT14rp5mbK/CYkVLxnUMfz4svvhjt1TL6eWhq5bRXa26DAs/BOncLfb1yLscasXIux2SR7Rp7tR5//PG0vVo5jeNR4GnfU2IQego8sSamwBOTRbZrBw4cEJ80pl8nVXc6Y3zWrVuX8bad0sczeksAXSO+HdkFX2Jt/3BpSatS4Im1BQWemCyyXdu1axcuvvhi4eMxmlkEEU0takNNTU0Zb9vxwePyJXxlIozRWxV4MtaMPJ+gfDx5FnAebs9JwdasWYOePXsmxfAQPPwg4EsvvWTqW1sKPKpXKw9VNPMtFXgyy6jYzuDk75z2IlHTkd3pF1xwAaxWq6lid0LwhKBMLVN1I68nKfDkVbx5uXldXZ34ooQEjTGnmcXPIK9YscLUszOChx/+ndcYOrjIZasTFqY8D0eQ/hrm9NmIr0wkmVohEbmsfDym6kfeTlLgyZto83JjzkA4derUlBHLBBCHUPzjH/8A43zMLBnBEw4FMafej3MWc8hEIyyVDXqqsMHCVFkPS+UBlJQ3oWtZE3qMa0L3cXZ0Ge9GaZkX3cY1o+s4rw4eCaA8QUiBJ72DXDmXY81BOZdjsjC7ZrPZMHjw4OiAUKO2w/WLLrrItJnFZ2YGTxhYbwPuXwX8YpoDPaw2dB/nRJfxHljKCBQPSspc+rrYduuajQAUx3ZpsJR7dGhVHMir1hMHnnI7TprjxPoUGo8ytcxWt/ydpzSe/Mk213cmqL/88ksBHeM8PEb43HXXXWLGRp5rZskAHt5EA/jFiqBYQyAE7PYA5d+FMHyrD3/c4Md5i1346RQbSitd+F6FDT3K7ehe5kI3pnF2oQlZyuphsTbkdZBpHHgipta6BPCEw5owtbqVO9TodDM1JE/ndFbwmG2YeRJ71rdlT9aGDRtw2mmnpdV2+M2td955R/RmmX2/FsFD7IRYVAGxEMKkT0jTd4bCkf36cZ7nCwew2wVM3we8tAO4dytww3LglCoHflLpwOETvTh0ogPfn+BAj0oHulU60KVc98dYrA5YymVKbzIIP1HEhxPnM4rG5ThQYmVy48RqO9Y5vXHd6RI83SucCjxZV8PcXdDZwMMG2dDQgG3btonvVOVOkrm/k4SHpmniG+pXXnmlmO7UqOHIdTqVOd0pv7UurzNTohbBwxuQOYI7Zu7WwjksVJ2nGZ82AC9s92PoZmDwGuDcuU4cN7EJv5joxY8ma/ivyX4Bp0Mm1KNHZT26lTehC4FUydSE0oomdC9z4nvjnbBMssEyoQml5Q50tbrQpcyJkjI3LFafMO96KfBETVvl44lVTtbF2tpaDB06NOVf8XxMBMZGXFlZCQ6i/OKLL8AIYM5hXIwLtRyWd+/evWLslYRMqvyyyy7DlClTsn6NjODJ+o4ZLqDepOl6lK45aYA7BOzyAjPrQxi9M4inavy4e10zLlviQq+5jTiiugm/nG7Hj6Y5cViVBz0m+1FS2QxLpUcH0gQ7LJXUkqgxcV0HUs9ZTfjW4VEajxoyEVcrCwWeiooK0ftz8skni+lDp0+fDnZRFxuAPB4PVq9ejauuukqUNxVwuK9v375iwKjf789K2+GP0bbgkbZbCKAPigDS6EOi2abp7iSuh8IaguEggmhGECE0+oEVTcD7+4MYXhvAkPV+XLrQhlOrneg1w4ljp7nxi6lu/HCGB4dNdaN7pQslZU4cP7MRax2uOPDw3pwITJlacW2xzTc6m6lFDYLgoWnCxIbbp08f3H///WKO4n379oEBetQ2sjFZcvnDEYAsx8cff4xzzz1XQEeWNRE+J554Iu677z6hFbG82Za5zcCjm2xS3xG4gRbWmUPuMAkahUkgP0IihYRfW5h6/E/jj8Jrg/DDj6AGfBcAljqBL3YH8OIuDY9uCWPgEg/On+PATUvs2OKMaDwRk5GoG13jRw/hXG5CqdWG0nTxRfQ7RX1PdliEb8mWVwd5nN8qXblasV+ZWrEmWkiNR4KHOWNfmPNDeEOGDBETaG3cuBEcAU5QZduYY2+Y3Rr/CNCs4iTtd955J3r16iWik9NBh0Mj+DljakUSOtmWtc3Ak50oUp9tfEm5nvpM3YrzN4egNdNHFXGERzzllXs0XDHfhXPnNeLkWTYcOdOJH0914pCJ9Cc1oKS8UcCFTmo9HikSIlDeBAtTBZNdz2VcUzmBlMEpXsDjCjyxmsK6Uwgfj1HjkQCSmoQchnDdddfhlVdeQXV1tehNoi+IwXu5Xmge0cxbv3698D098MAD6N27d0qflywjc0KH8TyLFy+Og44CT4pfKAoeKlPCxwR4Q8BOn+5XendvEP/aHsA9q+24fkkT+i9y4vwFLpw6y44Tp7lxzGQXfjCBAZQNsExgFLYblgqXHkA5oQ6Wiv0COiXRXjnZOyfzwgNJgSdWMYoJPFKrkDkBxHVCgEMQOOhy0qRJWL58ObZs2SI0E857TJPMzMJ3pQnldDpFnM3mzZuxbNkyTJgwAc8884xwHtNskuAzQkauy2PHH388brnllpTQ6dDgMSPo1OcIYy1ySF+P/U8s0dvEHgaagoAzBGzxA9WNXny634tRu7wYur4ZN39tx3VLmnHRHDdOnunFsdNd+N/pLhw2wYaSCkf6JJ3eSuOJ/jyd3ccjNZ7EXDb2xP2ciuKOO+7AE088IWJmOBiTvUlz5szBwoUL8fXXX2PVqlUCKvPnz8e8efMwa9YsTJw4UQT/vfnmm2LKij/+8Y/gYE6aU9LUk89MlxM80iG+dOnS6G94MCvtytRq/YvqcNE92Hp4AJWfGHzit7hfP8YrdJ9SACEEw4AtwEjuICoOAGP3hPBabRj/WOfD7cs9+N0yH/ov9qLfXCd6znHjiJke/HCKG90qIr4iMWSEZhu7/LlPakLSTOM+alQyFinxOMe7MUV677IAmdJ4YrWnUBpPVVWV8OcQKmzkiXBpaZuNn938zJmOOuooAY5zzjlHgKR///4YOHAgrrnmGnDCdX7tk85rnmvmWamgI8tz3nnniW+ib9261bSmFZN26rWOD54IQYS5lVoGOdjLbjoNjhCw0QXMrg/g87og3toTwoiaEIauasady/y4bnEA58wNoOecZvx0mhPfo+lmpd+oMeI3IlBcItG31HUcx7tJSEWgRPAIhzehZB5ACjyxn7kQ4OEzaSoNHz5cmDfUIMwAQTb+RDBIACXul9u8LvEceS+zOU0wmntjx44FzbtcLp0GPLkUWvK9pH5EVcmwLk8MA/4AsNUDVDdo+LIugDd3evHMehceXtuMe6gtLXHhN4vcOGmBB0dO9+PQSics4x3oJsbExbQc+pFEqnAK0y4W7S39SQk5ta1yBwat0LDDJwtU+LyzmVpS4hxsSccxfTe33XYbqLHQd2IERjowyHOYJ0LFeIzrvIdxX7p7Ju7nNXQgU3t6/vnnRc8Vy56tD0e+b7q844Mn3ZvncH8caujzi9sRexAPhUTwpH4C/6eR52gGdrg0LLIHUNnUjI93a3hxsxePfOvD/SubcflSL85e4MXJ8zQcMUtDjym+9P6kBF+TJbI9aKWGHc2xshR6zQx46KPgwkqfy4rPe+3cubNNI5cT5c0gvbVr1+Lzzz/HU089JbqnGTsjIZQIhMRtI1RSrcvz5TG53VJ++umnC+cxvyJBPxHjivK1KPDkQLJRzkiSmOtwEHziJSKGSQCJF7LrVBPwYsdFvR/4xg3MbAxjQj3w8V7g3zvCGLY5iAfXBXHLMh8uWOhD7zk+/GSqW4yBKxU+IpuYqkSYZRV2DFzpx5b81aOspcieFn5xkqo8Y0ISE52oK1euFPfNB3jYlUyHa+Jzuc0yvfvuu6ivr8/6vbK9gO/GuB06hvnp31GjRuHBBx/EoEGD0K9fP+HHoROYACE0qOm0BI+WjkkI8R5c530JmxtuuEHMpUOTihN5eb3eKOxzCXyjbBR4jNIo0nVdU9Jjk7hOWHkB1Gn0KYWwsDGMKXXAJzuBMVs0vLAxiIe/DeDWZR5cttiL0xf4cN/GEGp5UZEsrNB79uwRFZ2NLjFt2rQJDocjLw2Az+Zfc8bysKElJgKPk5oz1qUtF1muHTt2iF4q9lzxc8Hs9maPFgFx5plnRnujWoJMqmP02fDb5oQa43Zefvll0ePFXjFGLDNo0biwPEz5WBR48iHVHN+TP32qpD8mEhwZOYHaky8UFprSVgewopF+JWCZHfAwYiA/9ahVb5yvSm2mMIV8tpnyyXOoGcpAP3aZT548WZhnnIZi5MiRGDZsGO69914xQpxz4sjE4Qx///vf8dxzz+G1114TX/8cN24cZsyYgW+++UaMkmdsj9l4IFmeXOUKPLmSZBveR0KI/iIOH9EH3epEEYEDZJG02oL6ugaOgQvoG0UCn0I2fj67kM9vbXVhmQkLamz8qieno6B2yMBA5hxywVRTUwNqTox8Zo8UtbdCQSbVuyrwpJJKO9hHdjDckfDhP2O4gACT+E/XcKgt6yaaNNrawQuqIqaVQCIwE7flhYn7E7fleYXIFXgKIXX1TCWBTi4BBZ5OXgHU6ysJFEICCjyFkLp6ppJAJ5eAAk8nrwDq9ZUECiEBBZ5CSF09U0mgk0tAgaeTVwD1+koChZCAAk8hpK6eqSTQySWgwNPJK4B6fSWBQkhAgacQUlfPVBLo5BJQ4OnkFUC9vpJAISSgwFMIqatnKgl0cgko8HTyCqBeX0mgEBJQ4CmE1NUzlQQ6uQT+P7x+uZWLm+vZAAAAAElFTkSuQmCC;" vertex="1" parent="nT65vj2aPwtn-zFBRUwP-10">
          <mxGeometry x="754.57" y="55.5" width="60.85" height="30" as="geometry" />
        </mxCell>
        <mxCell id="nT65vj2aPwtn-zFBRUwP-22" value="Facture Colombia" style="swimlane;horizontal=0;whiteSpace=wrap;html=1;" vertex="1" parent="1">
          <mxGeometry x="-40" y="654" width="860" height="150" as="geometry" />
        </mxCell>
        <mxCell id="nT65vj2aPwtn-zFBRUwP-23" value="" style="group;verticalAlign=bottom;" connectable="0" vertex="1" parent="nT65vj2aPwtn-zFBRUwP-22">
          <mxGeometry x="590" y="44" width="120" height="65" as="geometry" />
        </mxCell>
        <mxCell id="nT65vj2aPwtn-zFBRUwP-24" value="PL -Colab" style="rounded=1;whiteSpace=wrap;html=1;verticalAlign=bottom;" vertex="1" parent="nT65vj2aPwtn-zFBRUwP-23">
          <mxGeometry width="120" height="65" as="geometry" />
        </mxCell>
        <mxCell id="nT65vj2aPwtn-zFBRUwP-25" value="" style="shape=image;verticalLabelPosition=bottom;labelBackgroundColor=default;verticalAlign=top;aspect=fixed;imageAspect=0;image=data:image/jpeg,/9j/4AAQSkZJRgABAQAAAQABAAD/2wCEAAkGBw8QEhAQEhIQFRUSFQ8QFxgVFRAQEBYPFRIXFhUVFxUYHiggGBolHRUVITIhJSkrLi4uFx8zODMtNygtLisBCgoKDg0OGxAQGC8fICYtLS0tLS0rLS0uLS0tKzUtKy0tKy0tLS0rLS0tKystLS0rLS0tLS0tLS0tLS0tLS0tLf/AABEIAI8BYAMBIgACEQEDEQH/xAAbAAEAAgMBAQAAAAAAAAAAAAAABQYDBAcCAf/EAEMQAAIBAgEGCgYHCAIDAAAAAAECAAMRBAUGEiExsSJBUWFxcoGRocEyNEJSgtETFRYzU5KyFCRic6KzwuEjQ9Lw8f/EABoBAAIDAQEAAAAAAAAAAAAAAAABAgMFBAb/xAA0EQACAgECAgYIBgMBAAAAAAAAAQIDEQQxEiEyUXGBkbEFEyJBUmGhwRQzNNHh8EJisiP/2gAMAwEAAhEDEQA/AO4xEQAREQAREQAREQAREQAREQAREQAREQAREQAREQAREQAREQAREQARNfF4tKSl3Nh4k8gHGZUsp5eq1bqt0TkHpHpPkJZXVKexXZbGG5ZcZlehS1M4J91eE3bbZ2yIxGdXuU+1j5D5ytT5OqOngt+ZyS1EntyJps5sQdn0Y+E/OEznxA2imewjzkLEn6qHUiHrZ9ZZ6GdXv0+1T5H5yXweVqFbUri/utwW7jt7JQYkJaeD25E46ia35nTYlLyXl+pSsr3dOf0x0Hj6DLbhcUlVQ6G4PeDyHkM5Z1yhudddsZ7GeIiVlgiIgAiIgAiIgAiIgAiIgAiIgAiIgAiIgAiIgAiIgAiIgAiIgAiIgAiIgAiIgAmtjcWlFC7HUO8niAmzKLl7KP09QgHgJcLyHlbt3S2qvjl8ijUXKqOfe9v78jWyhjnrvpMegcSjkE1oiaKSSwjJc23liIiMkpCIiLBLiPkT7EMEuI+TbyZlF6D6S7D6S8RHz55qxItJrDJKWOaOiYPFJVQOhuD3g8YPPNiUjN7KP0NTRY8B7A8gbiaXeZ9tfA8GjVZxxyIiJWWCIiACIiACIiACIiACIiACIiACIiACIiACIiACIiACIiACR+NyktO4A0m7gOkz1j8QRwV2naeQSKalLYQT5sotsa5RMGJyjXf2io5F1eO2aLPU26bfmaSDUZjajOmLS2RwzjKW7Zhw+VMTT9ssOQ8Lx2yfyblZK3BI0X5DsPQZAtRmP6IjWNo1894ShCfuwOuyyt75XUyezixhpUSB6T8EdHtHu3ylScyjiGraGl7It0m+3utI5sPJ0Lgjh7lOqk7J5WxqRMzUJjNMy/Jy80eYnwifYBxCIiBPjETzPURPiERECXEJeM3sX9LRW/pJwD2bD3WlHk9mfXtUen7y6Xap+RPdKNRHMM9R06azFmOst0REzzTEREAEREAErGVM6ApKUQGI1aZ9G/MOPp3z7ndlEqBQU2LC7EbdDiXt/wDdsqMzNZq3GXBDvYjfr5axT7arjq8AeExDKFf8Wp+d/nNWZ1wdUi4puRyhWI77TN47JPdvvYjcw2cGKT/sLDkYBvHbLpkrFNWpJUYAFgTYXta5ttnOhTa4WxuSFAOo3JtOm4ekEVUGxQF7hNH0fOcnLLbS7xoyxETUGIiIAIiIAIiIAIiIAJ5Y2F56mDFVVRGZjYDae2AGm63N5jNOa9bLlAbNJugW32mo+XwSAtM9rW8AInqa1/kUOJIGnPDUpulJ8NOdGSDgR7UpjalJA055NOSUiDgRrUZiajJI054alJ8RB1kY1GYmoSUalMbUpJTKnURLUJhbDyYajMTUZNTKpUoh2omeChks1GYmoSzjKXSRsTefDzA1CSUkQcJIwRMjUjMZBjFliSGb9TRxFLnJXvUiR82MmVVSrTdjYKwJ49UjNZi0WVzxNP5o6JEhTnJhuVj8JmWjl7DN7dusGHjsmb6qfws21fU9pLxJWJjp1VYXUgjlBBEySstEREAOdZdraeIrHkYqOheD5TQmfKH3tXrvvMwTzVjzN9r8yJaM0MnIwau4BsdFQdYBG025dctkrWbmUsPSw6I9RVa7kg3vrY28LSU+u8L+MnjNrSyrhVFJrZN81uxm5Uoo1tJVNiCLgGxGsETLI9MsYZiFFVSSQANesk2Am3WrIguzKo5yBvnSpRfNNDMsSKqZwYRf+wHqhm3CYDnTheV/yyt6ipbzXihZJyJD0s48I3tkdZXHjaSlGqrjSVgwPGCCJOFkJ9FpjMkREmAiJir10QaTsqjlJAEGBliQ1XOTCL7Zbqqx8Z4XOjC8rD4T5Sl6ipf5rxFknJG5xG2Gq9C/qE94XK2Hq6kqKTyHgnuMx5yerVuhf1CFkk6pOLzyfkMpN56pnWOkb5rI8y031jpG+YsbCGDohWeCkwfXGG/FTxnz63w34qeM3/Ww+JeKHgzFJ5KRQxtGpcI6tYaRtxDlmD64wv4yeMbtj8S8SODIUnw05iOV8L+MvjNqmVYBlIIIuDxESUbIy2afeLhNY05jNObpSaeJxtGmdF3VTYGxvexknYorLeCHAeDSmJqU9nKeG/FTxnrD4ilUvoMGta9uK8aug3hSXiiDrNZqUxtRkk1OaNfG0E1Got+bhHwk3YorMngg6zXajMbUZ6fK9DlJ+EzH9a0DxsOlTILW0fGvFEHS+o8NQmJqE3qeIpPqV13HxntqM6IXKSzF57CqVJDth5iagZMVKYGs2E0auKpDjv0AmSlqYV9OSXa0ir8M3sjRKGebTb/aaZ/+T6qq2wgx16umx4hNPsaK5aecfcYMNialM6SMVPNs7RsMtWR8vrVslSyvsB9lj5GVlsPMTUTJ2VwsXMdV1lL5bdX92OkxIDNvKZcfQ1DwlHBPvKOXnEn5nTg4PDNqqyNkeKJzLH/e1eu+8zBM+P8AvavXfeZgnl7Om+37khEl8nZvVa9NaisoB0hrLX1EjiHNNn7JV/fp97fKWLTWtZUeXcBEZN++o/zKf6hJPPCnbEX95FPdceU2cLmxXR6bl0srKx1tewYHk5pvZz5KqV2pGmBqDgkmwA1Eec6Vp5+olFx55TXkPBTIlmpZoP7VVR0KT4kiZKmaGrg1tfOurwMp/B346P1X7gVWZ8FjalFtKmxB/pPMRxz1lDA1KD6DjXtBGtSOUTWlHtQl1NCOi5IyiuIphxqI1MORvlN+UnM7ElaxTiqKfzLrHheWjK+NFCk1Tj2KOVzs+fZNzT38dPHL3b9xI0cu5dWhwEs1Q9yjlPPzSmYrFVKraVRix5+LoHFMdRyxLMSSSSSdpJnyZF+ola+fJdX93EIkhgcjYiuNJFsvvMdFezjM3zmnifepd7f+MUdPbJZUWIgJdMVSKYDRJJOghN9ZuXB85X/qHEK6K9M6LMqlhwlAJ1nVsltzk9WrdC/qE6tLU4wscljlj6DRz+fQ08wouQOWwmeI9Bp6DSc+yVf36fe3yj7JV/fp97fKdP4a/wCB/QD1mqbvW/lNvEriy45GyLVw5qO7IQUZeDe97g8Y5pTlj1EZRrgpLD9rzQH2dCyMP3eh1BunPZ0XIo/d6PUXdL/RvTl2DNkrKVnaP3j4F85ebSj53+sfAnnOv0h+T3oTRCyxZnDXW6E3tK7LLmUNdfq097TN0P6iHf8A8sGV+vi6tT03LdJ1d2yYp8WfZyZcub5sBElMHkCvVVXGiFbWLsb26AJnfNnEDYUPxEHxE6FprmsqDDJGZPpadWmvKw7hrO6WXKeLWitzrY7By8/RNHI2TalKqXqqVVFdr6iL7No5iZE4/FGq7OePYOQcQnXTbLS0PliUn7/kt8eWSEo8TPGJxL1Ddj2cnQJhib2DyTWqjSUADlY2B6JwqM7ZcsyfiS5JGjANtYklici10BawYD3SSe6RsVlc63iaaHuSeBxWlwW28R5eYzcahIESzYF/pKatx7D1htm96M1srE65vLWz618+zy7OfHdQt0aiKUYOuoqQRLnh6odVce0Af9StNRkzkVuAV90+B177zQv5rIaVcMmusoeP+9q9d95mCZ8f97V677zME8hPpvt+52F8zT9Vp9NT+40mJD5p+q0+mp/caTE9Bp/yodi8iSETxUqBQWY2ABJPEANso+WM4KtYlUJSnzambnJ8or9RGlZfcgLlXxtKn6dRF6WF+6a317hfxV/q+U57Ez36Rn7or6/wLJac7a9GrTpsjoxViNRBOiV16uwSrRE47rXbPjawBIZvNbE0esR3qRJXPXEXenT4lBc9JNhu8ZE5B9YodYbjNnOw/vL8yoP6by6EsaWS/wBvtn7C9xDySzfwAr1greio025wNg7T5yNlqzIX749QbzK9NBTtjF7fsgLQoAAA1Aaua09RE9CSEjM5PVq3Qv6hJORmcnq1boX9QlV35cux+QHPp6p+kvSN88z1T9Jekb55widSiInqXuSMdb0W6DunLlnUa3ot0HdOXLMj0lvDv+wmfZ0bInq9DqLunOZ0bInq9DqLui9HdOXZ9wRvSj54esfAm8y8Sj54esfAm8zq1/5XegZByzZkba/Vp72lZlmzI21+rT/ymdov1EO/yYIrCz7Piz7OOOwjoGQB+70er5mb2jNPN/1aj1fMyRtPT1P2I9i8h4IHOqroUCPfZV7Np3eMpUtue3oUR/E36f8AcqUx/SEs3Y6khGxk6gKlWmhIAJ18XBGs7pew1MagyWGrauyc8nzRi02r9QmlHOfn/AsHQy6e8veJTcuUFSs2jazWbVYgX2+IMjrT7HqdZ6+PC44553/gFHAk/mwbiovIVPeLHcJASezRF3q9Vd8joJcOoj3+QSWUTRpTbyWti3QIKTPhEsT2T0UpciuEcSRzzH/e1eu+8zBM+P8AvavXfeZgnlJ9N9v3LS+Zp+q0+mp/caTEh80/VafTU/uNJieg0/5UOxeRJEBnjXK0Qg/7GAPVGs+UpUt2e44FE/xMO9f9SozJ17/9n2IRmwWGaq6U12sbc3KT3Ay34fNXDqOEWY9OiO4SsZDxK0q9J21KCQTyBlIv4zoasCAQQQdYI1i0v0NNc4tyWXn6fyCKfnJkajQRXp6Vy2jYm4tYnylelzz1+5T+YP0mUyc2tgoW4isckDN/IPrFDrDcZt53pbEE+8iHePKamQfWKHWG4yez1whK06oHo3Vug7PG/fJVxb0sse55+iF7ipSyZkVQHqp7yqw+E2O8StzNg8S1J1qLtU35ucGUUWersUuoZ06JEYDODD1QLsEbjDG2vmOwze/baNr/AElO3XW2+egjZCSzFpjNmRmcnq1boX9QjEZcwqbaqnmXhHwn3HsK+GqMux6ZYcuy4kJzjOMop5eGBz2fUNiDyEHxnyJ5widTvPsgsiZcpPTVXdVdQFOkQoNuME6pJvj6C7atMfEvznpY2wmuJMkZ6guCOY7py0To2FypRquaaPpEAtqBtYEDbx7ZQMdR0KlRPdZh2X1eEzvSDUlGUXlc15CZhnQ833vh6J/ht3EjynPJZc18sJTU0ah0RclWPo69oJ4uWUaGxQs9rllAi3yj54esfAm8y3/ttG1/pKdustt8pedNZHr6SMrDRQXUgi+vjE7te16rvQMiJZsyNtfq0/8AKVmWbMjbX6tP/KZ+i/UR7/JgVhZ9nxZ9nHHYR0PN/wBWo9XzMkZHZv8Aq1Hq+ZkjPTVdCPYvIaK3nsn/AB0m5HI71PylPnQsvYU1aFRRtADDpU3+Y7Zz2ZPpCOLc9aBmxk3DrVqpTZioY6N+e2rxtLL9kE/FfuWVMG2scWvtluyTnMjALXOiw1aVuC3TbYfCR0nqXmNq7G/ID59kE/FfuWfPsgn4rdyydTHUG2VKZ+NfnPNTKVBdtWn+ZSe4TS/Daf4V4hghPsin4rdyzeyTkVcOXIYtpADWALWnk5xUC6U00mLMFuBZRc249smbR01afi4q0uXV/eoWDAVmWithPujPc6mwSwcyx/3tXrvvMwScxWbuKZ3YKtmZ2HCXYWJEx/ZnFe4v5knnpUWuTfC/BgWTNP1Wn01P7jSYkbkDCPRoJTcAMNO9iDtYnb2ySm3Qmqop9S8iRF5wYI1qLKouy2decji7ReUCdTkDljN5KxLodBzt1XVjzjiPPOTWaWVntw36hMpM9U6rL6LMOgkbpI4rIOJp7VBHKGW3jYyPamw1EbpkyhKO6wI8vUZtpJ6STvnyZ0wlRti37VHnN7D5u4p/ZUDlLL5XjjXOXRTfiBhyD6xQ6w3GX/FUFqIyMLhgQZXclZsvTqJUeovAOlYAm/aZaJr6KqUK2prGX9ho5tlLAPh3KMNXsniZeUTUnTMZhKdZSjqCPEHlB4jKxjs03GukwYcjam79h8JyXaGcXmvmvqv3DBWom1icnVqep1t2qdxmFaLHUB4icLg84aEY5fc2aunhqfNpIexj5Sr4bN7Ev7KgcpZfK8tmQsnNhqZRmDXYtqFgLgC3PsmhoK7IzzjCwNFLyzgDQqsh2G7KeVDs7tk0p0jKWT6dddFxs1gj0lPNKnjs2a6XKaLr0hWtzg/OV6jRzhLMFleQMg4mR8O4NiLdomXD4GrU1Kt+1RvM4+Ft7CNzNero4mn/ABaS96nzAm/nhk4hhiFGprK/Mw1A9osOznnrJWbVZXSo7KuiytYcJjY3tyCWuogYFWAIOog6wRNSjTSnQ4TWOeUPBy6Jaco5qay1Fh1Wvq6G+cgcVk2tS1Olu1TuM4LNPZW/aQGpE9Cmx4t026GSq7+il/iQbzKowb2QjSlmzI21+rT/AMprUc1cS3pFF6TpHwlgyHkX9m0zp6RcKDq0QLX5+ed+k09sbYzccJfsNFBWfZLjNnF+4v5kn37M4r3F/Mk5Fp7cdB+DEWvN71aj1TvMkZo5HoMlGkjbVWx49d5vT0FfQWepeRISkZzZINJzVQf8bG5t7LHi6DLvPDoCCCAQdRB1giV6ihXR4X3AcuiW7KWaqNdqLaJ90617DtHjILF5FxFL0lFuUMpG+8xbNNbXuu9ESOievo22W3Tdw2SMRU9FP6kHnKYwctlnuA0ab6JDchB7jedRUggEceuU/C5pVT946qOa7nyEttCnoqq3J0QFudpsLTX0FVkOLiWM4+40ZYiJoDP/2Q==;" vertex="1" parent="nT65vj2aPwtn-zFBRUwP-23">
          <mxGeometry x="31.08" y="16" width="57.85" height="23.5" as="geometry" />
        </mxCell>
        <mxCell id="nT65vj2aPwtn-zFBRUwP-26" value="DIAN" style="swimlane;horizontal=0;whiteSpace=wrap;html=1;" vertex="1" parent="1">
          <mxGeometry x="-40" y="804" width="860" height="150" as="geometry" />
        </mxCell>
        <mxCell id="nT65vj2aPwtn-zFBRUwP-27" value="DIAN" style="rounded=1;whiteSpace=wrap;html=1;" vertex="1" parent="nT65vj2aPwtn-zFBRUwP-26">
          <mxGeometry x="590" y="45" width="120" height="60" as="geometry" />
        </mxCell>
        <mxCell id="nT65vj2aPwtn-zFBRUwP-28" value="" style="shape=image;verticalLabelPosition=bottom;labelBackgroundColor=default;verticalAlign=top;aspect=fixed;imageAspect=0;image=data:image/png,iVBORw0KGgoAAAANSUhEUgAAAWsAAABuCAYAAADh/DJ/AAAe80lEQVR4Ae2d61/bRtbH3bTdZtvuPu2zbffp3trdbtKE3BpybbK0uVCS0CQkEAgEAgmBQGJwTABzCeZiW7JkGxsbX8h/uC/3L9jf8zkyIrKRhLFlI+HzYpAsG2k085uvjs6cmXH9+z//RXRtgxOXAWuANcAasKEGiNGUXAxrflDxw5o1wBqwrwYY1jZ8gnKDsW+D4brhutkrDTCsGdb8yssaYA04QAMMawdU0l49yfm6bEWyBuyjAYY1w5qtKtYAa8ABGmBYO6CS2Lqxj3XDdcF1sVcaYFgzrNmqYg2wBhygAYa1Ayppr57kfF22IlkD9tEAw5phzVYVa4A14AANMKwdUEls3djHuuG64LrYKw0wrBnWbFWxBlgDDtAAw9oBlbRXT3K+LluRrAH7aIBhzbBmq4o1wBpwgAYY1g6oJLZu7GPdcF1wXeyVBhjWDGu2qlgDrAEHaIBh7YBK2qsnOV+XrUjWgH00wLBmWLNVxRpgDThAAwWwfvv2LThxGbAGWAOsgdpqIJXbwPNwEv+alfHlhIhjUxLallYRSGa2mMyw5gfUlhi4gda2gXJ5c3mTBlbTOQXOV95EMRNbh5DMILCWwSMhgW8nRAyGk0obZVgzrBnWrAHWwB5pYGPjLZoWori1EEU6twF/Ir2VyNqOp3P4k1dEMJlR1l8kYCtrMPKTnp/0rAHWAGugdhqQ0zmcmJaUh+VKIo0PRgJoXYzh/IyMi7MRBeB9QgIdK3GGNQuzdsLksuayZg0UamBcTqIjEFdgHSBYvwwinskhup7Fd5NhJDI5xao+OSUxrFk8heLh8uDyYA3UTgNPgwl0hRIFsL40F8F3EyLuLq0it7GBaDqLrydEhjULs3bC5LLmsmYNFGrALSXRtlxoWc/H0/jduIBXcr5jkTocKTqEOxj3qGOBRVsoWi4PLo961EAsk8PpaUmxoBU3yIugEh3SG4zj5LSk+KwHxDV0Bop81h45CSenqWgKM5q0EE9DTGUQWc8qfiB6pagHQexUh/VQBmb3GM+tYTq5gJmUfyvNp5aQ3ngX02r2//vxO180pdv2vXJSAcl+vOdq3RP5nM3a4HQ0tcUhYtKlhSiuL8RA0R8TsXVkNjaUNBNPKyF8h1+HIaSKokFc7iAcn14G4TJL7iAOjgs4OhlG05yM2/4YegNxeKIpLCYzCKayiKZzSGY3kHUo3JX7N6rLl8EtoVRLrHY+71ouhdPCDRwKNm9LndEhZDaydVk+DZNhw7Z/bFpSBmfUi7FTqX6X19JwjRqztHEz+kO9Tiq7ofikz81F4E9mQBEiQiqLF1ISX3sEDIlriiYL3CCusRDqIrk375O2SnpXsJ96BPxlQsRRnwQqvObFGMivFEpmHGNhKA9co7p01y+syXK+HelFo3gDp4Wb29JxoQU9sZfIbuTqDtgKrA01E1J8qK1LMeW1XIUMb/VdVwqsyWA0KM9GXz5UT1t+ZE33C2s4OyPjnE8C/ebWYgzkHVB/V5+wNihEo8JV4PciD/SWN1G8iaeVVxa7WhoM6+2NKLeRw51IL34Qmw1hTQA/IdyANzm31UDUhrLft6awVtvLpmFDLhO7at8O9VQOrEvJN8NaFWKp2033wsceAZfmo+gUEpBS9np1ZlgXwppcG33xkS1QG1nWeWv7Fk4Lt+BNztcVsEuC9WYb+WgspIy6W1mrXx+/GVwZ1qXCtMa/e28shINjITTOyIil7fH6zLAuhLVnbQaNYotiUROod4L1KaEVZ4Xb8K8LdQPs3cBafQP9aDyEp5v+VDN41dt3tYH1lg9X9eU6bKsFtXov2mNV3v90XMCd5VUs7bHFwbDOw3rj7QZep+ZwatP1oYK6FFgTsC8IbQhm5LoAdjmwVqDtDuKUT8Jk7F2EQ73Bufh+awLr0z4JTk3HpySo6bvXIv7sFfMOfnJb6EWHaKMlrIS4O4TPPAL6g/lA9+KKrMVnhnUe1oGMiIvSzQKLWgW2Xgej6gYhUKvpgngfcmZ13wO7bFhT23GH8IlHwIm5iDI8uhYat/M1agJrOxdApXnL5DYUN0U4lQF1kNDooJ5AHC3+GA7PyPhuSsJfX4fxhVfEwXESoBohUmaEjDuIE7N74xphWL+FlInijNiiJBXQ2q0K61NCcWTIrS1QE7BPCrfQLPUhlVvf18CuCNaqseMOKjPEUawwxQxX2mad+v8M6yqPNCSYUzA7TUU4GVvHkJREqz+mDPM8oFrmqihL3bpD+MekhOXEu/CbWgiw3mEtZ6P4SWozBLXqBjkpXsdQwotzYepUVEP5CmFNwD4RuoUWuQ+pjdrWYy20ol5jR1iT8VKi7t93h3DEJyttST1/PW0Z1lWGtZmYCOTjUhJ/mwzj9x4BB0i05BMvUbw0Hy3FaZtdw8rv6hnW6xtpNMsdOBPOh+hprWnt/mmxBS8TU0qdLKyv4LgJrPMWdiu6Yy9AfnAr68ou5zKFtTuIloUoPhkX8F6puneHQEZObzChDDCzy33WIh8M6z2EtbaCafh6v7iGEz457yopBdjuEP42ISorQGjPVa39eoV1IpfEnSgNermOcyawPiPeQO/qSAF4RxOTOK64RLZb1qr/mrZ9MU/9wfplUAHuYiKDn99ES9e9YtQEcWRKwngkBZpov1qat9N5GdY2gbVWFL7YOt5TfNulWdmHpySs18CXV6+w7o8/x9lwHtRmsL4qdehCoys2qMRYa+FcvP+D8CvciVnd/9dqw2n7ppb15hzL6j3RHDyfbIK41LdL6uT/eS4CektVz7NftwxrG8KaxEZ+7uaFEq0Ndwj3V6ofJVJvsKbRiYOJ8S2LmkBtBOsbcjfo90agaIs+3RHYx4N3MZdaMTyH0bntfHw3sFZ13+SP4eNxoXSXoDuIL70iHguJmhgte1XeDGubwpoEQRM+0URQpfixP3QHMR+rbmRBvcF6PDmNs5uAVkGtB+vz4VuI5/ITvRs1ZIr6uBTuKIgIKbauTwqtOBRsxdI+GjSzW1hT+dGQczGVxaHXYj48thSX4FgI74+HlFVQ7Dby10gTuz3OsLYxrKkyN96+RZ+YLKnT8ZspqaqhTfUE64V0ABekvCWtBXUhrFvQJN2FlImVZA3TFKoEbIJyMajVzyeCd9AU7kQ0W/03pd3CopzflwNr9Tq00GvrShxfvRJLMli2XCfuINqX44jYZOSvej+VbhnWNoc1VTB1oDyXkzt2wHw4FlIs8UpFYfT/9QLrhfSyMoxcz6rWwvpc+CYo4sOovPSOi5kILor3TWF9PHgbZ4UHiOfyK3ronccpxyqBtXqPFPZ6lTogKdS1xKgRiqyiJaso2ko9j9O3DGsHwJpERsC+uhAFzRmyZUHo7J/UmSbRKpHWA6zJom2S7ii+6WKLWv2cD9VrgTvhKwsEC6kATigDY7Zb2GRZq+mq9BgUMmhV/e3FeayAtZpv6nj/48TureymhSjCqazjo0YY1g6BNQlWXs/iAx1AF8D7ZbBqg2X2O6xjuTiuyrd1/dQqqJWt2IKRxERFEPWllnBBvLPNwlZBrW7bIsMVXUcF3V5trYQ13QMt4NEVTCix2QW6N2sX7iC+8oroqEEnfDXLmWHtIFiTEIaFhHmnizuI6/PRqjTw/QxrWkDgbuyhqUVNoCbXyL3ogCXlOxz3oVEojL9WIa3dPoy+dOw8z1bDWoUhDQb7zCvifTNIF3/nDuKDcQHLaxmlL0g9l1O2DGuHwZqE9RdaKqlYiJrPf/SKVQlh2q+wzmxk0Lnah3Pha6awJlA/iD2xFJzutWmcFm5vWdhaSKv7P4TaMBLPj4p0CljUfFYL1ur5B4Q1kN5NtalpG+TzphW+f1mM2W6+ePWejLYMawfCuj0QN+1ooSlVtcv2GFX+bo+bNgiHLutFw7x744M4L5mDmqzqZrkTSYsnXqLr05Jf2mgQFdLa7XeBW5hMvrHEot9tvVfy+2rDmqKlaOkq6s8x1acW2Jv7H7pDmKpyuGslZVf8vwxrB8J6JrauLM5rZF2TX3tEtr4X3LQxOBTW3tQkLkrXccEE1mRRX5HvI5ItLUSvuJHt9Jks+xb5iTKxkxbQxfunhHtYWHfWWpfVhrW2bL2RFI76ZNCET0Zto+A4/e5lEBdoQdkaT4qmzXep+wxrB8KaRjfSq1yB8LSWgzuEjoD1cbr7DdZjyde4LF9VQG0G6ybpNsKZSFWtWvKZt8oDW5EgxaCmz8cpUiTUhjUHhfTVEtYEvWR2A4PC2q7C/Mg18nta4GNp1dYL9zKsHQhrEiXNkW0G6ytV6GTcT7BeSi/jsty8BWo9WJNF3Sj+Al+qNu6HcCaG00I7jgVvm0L7B4EWLrD+YVyqhbeb39Ua1mreaATkmdnNSdFKtrSD+H4yjOl42pZzjTCsHQrrjqWYqd+alkRShWvVdr/AWshIuCLfxHnpnVWtB2sawTi7vmh5OZrVBwH7vNCRt6I1MdfFlvZ1qa+m+TLLs9l3ewVryhONgByRU/h6Nx2QYyF8NC7g4lwEqzYbAcmwdiisR8SEaYfKtxOi5Y15P8BazsbQJLcUWNQE6mJYk1VNkzjtxTzTs6kAzgh3Da1rcofQpE+/hJ+A3CdmsNzr7/YS1uq90xw7V+ejpv08em+pH1Pfj5Ss6hQOah5L2TKsHQrrmVjKNN76t+PWr6DtdFjTiiy3ou3bLOpiWJ8NX8NA/CWyJrPoldK4KvnN66QfJ0PvRjNqLWuC9bFgG04E29ATHWNYl9CGaQSwN7aOH3YzXzz1A7lDOOWTMb1a3UnSStEKw7qEii6lIGv9G5ovQZkrQduxWLRvdZ6cDGsCb0ukDRelK7pWtday7oz17YlFXVxf7rV5HNNxhaiwJmAfCrTiedxni/wW558+28Gy1uaLQv0GhQQ+UtdCLWozeha2cuxlEO1LMSVMUHu+Wu4zrB0Ka5rrwBTWL60P8TKFdRWuZ2VDGEgM4WKRj1q1qNUtrQRDlvfqDtOdWpkvs3PR/NjdsTEcCf5a4BLRwpqAfThwG57kvC1H5dkN1mp5y6ksLi9E8QF1Pu6iA/LbSQmjUnJPOiAZ1g6F9ZZlrVoIOltVmFZt87OeqauzF21tDOtHq4M4J/1saFErVrV0DT9Jt23nA6a5nbtio2jQRIgUw5qAfSR4B3KJU7VapYdSzqPAWkebyoO/aKWYUs5n5W+obFfWMvjCQwsdFOnZ5DMB/sR0dacj1rvPLVgb5K2xzKCCf//nv6Dkoj96F+Zjla0bp/isXwQMRXawGj5rZYpKA1HbFNbe5BTOm7g+VKu6SbqJpbT1fn4rdE5rQFL0x9FNYOvBmoBNaTkt26q9mcJ6NKCsiGRFGVVyDhq3cG0xhs9p7IKZxrWQ3JyutS+UQCpbmyXFFFibtHmGtU0tb5qn1zWynBcXCUebXgTwrdd68LhGVwqvo73myLKtIEGN159e3tH1ocKawvkqafDV/l8C9gWhS3GHmMH6stiDVM4+06o20GovowF93dgE1mrdLSUyoCmGDfOr1fvm/gejAfz5lYC5GgxbV2A9YlCWLwJonAqXpWG2rKsM+c6lVbieLxmmU1NVCN0zuR7lRRW9Hbb+dACN0iXTDsU8qK9iKjVjq7wblR8NhLkodCkx2Kolrbc9F+q2zcIFCqyNdDO8ZAvLuri8qQPyq/EAXMOLhu1rW9sbWcavSzFI69mq9R0osH6+bJgnhnWVoVsslFI/f+MNGVYaieznWestxW0CLWqEpea92r+j9RCvRm7ikvyzKawbpSaMrr0yXei22nnd7fkX0+KOsD4caMPV8FNbWNimsB7y2xLWFDEipjK46Y8at7Ei7SttY3gRf/IElWiT3dZrKb9XYG3yAGFY2xDWyWwOv3/uNxbS8CLal6yf09o1ZHLNoQVbWKfJXEqBNIHaDNY0enEgPmKLPJfSULW/8a+H0BC8q/io9SxrOnYo0IaOiHvPH0SmsH62YEtYF5R1PI3PRpdwYMT4LXabETPkxxdeAWLS2gFLCqxN2mCjJ1CWntkNUkXIL8RS+O2wGTj9GBCsnzvC9WxB/wFBT/tnew9rmr2uLda1I6wpMqRztRcEdm3DdMo+RTGMJnw4FPjVGNiBe/hu5R56Yt49HdzTMLYMl5FWHQBr0kQqt4HulVhe+yawLIA2AXtkEa3+iGUPJAXWJm2w0bO79UBVvTOsqwjrh8sxuAYXDNOnw37MR6swRarJNSk/auXv1bY12onzUtMOsL6Km9FfbTuIZDdlNxCbUGKsda3rwD0cDbTjnyv3MJHcu/6EhlG/oU5dT+YsA9luyq3c39Kw9VPegPH9GLSP90aWEF3PVtw+FFg/nTe8viWwptAYoxRL56rmkC+3Uuz+f//wmAvmyxE/EplcxeIoLgeXiVBcg7WZma44T/Q5u5HFQGIYZ6TLBaDWc4M0R+6A1lrUO4/TjmU2cuiIjOL4ZtheAbQ3YU3Abgjcx0RyeU8eUKawHnAWrEkf9FbzTFzDX93LIM2bGU3a7957MocrPhE0PqJcne0I63ELLOvPhuZhmJ7N23oO2XILtlr/txhPgywSrRAK9p/O409l+q52yrMprJ/Oly3Cna670/ee5CQuSD9tA7UerH+UmvFz5Mau0mXpNspNF6U7aBTvGiYpU1nfAk3kdFno2u4O0cCagH0y2AX/uvWdzjvVTR7WBlBzIKzV+yXjs2s+DFf/rHFb1LG0fzc4j2dLkbJWWldgPWDU9t+gcby88NkCN4jSyMkqM0g0laFaCLw1HiyTyuTwIfn/DMpROd4/gzfx6sTZKg8Jo2s/mat5HdKMeJOpOSVET+1QLN6azQWixlir24IVzMPNhusxNoo3YJROCzehnwoXxlWX8ToptEKsENg078llsbcQ2EWwJmCfDnZCTFdntRujdtswYqLX/hlHuUH07pHcjSfci3A9MebbtvY6MIezY0uYiSV3tZ5nHtazhu2fYV1F37Ne5Zsd616UQa9T2ypfBeiTORwa9Zf11Da7rvqda8BYKK7+2scq06AXWumlGNDaz3aHNUH7itRd8YOOgF/Q4agD68Mr99EYegSphgsXNIws5N8EVY1qt/sA1tQ2yIgaCsbwP09mYdpGtPf+ZA6fDM7jxmQQFN2ltjGzrQLr/hn99v9kDo1j1basH8+wG6SEB0Igsa5fSRoBHBiYw3CwepaT6/GMfsOjB8jj2sI6ko3ikkyuD333hwpsJ8CagH1ZfAiawtWsse70HblUjofu5S1sHViTdX040I7m8FDN5kBRYE2v7hqdbu0/nkHcZhP871TGZt9TP1GTZxm/GTBoJ3pl0D+LPw7OYUJK7MjB2sCa/DpGiWG9YwNdiCbxBQmAnqpG5dg/i6+fzSGaKr8Dw0yI9J2rz2dw/Rnlu53+36rvo7komqO3cFmmyI/9AeujwVvoio1U3Ak4kfTjn4F7OGYAawL2oZX7aJaGsV7hw6GU+lRgbaTbPt++gjWVRya3gTExrrzhGreXIh6SEdQ/g4ueZYQSxvNmK7A2aYPWWNaUGZPEPmt9P7UykiqZxlf0emVSfsp3fT6MLld3Eh9FfEb56PPt+NAppXHv9BuK/Lgm38ZF+V87wvqCdEWZxIkmciolNYq05mLl6WjoBo6YpEahFefE2zgWasWhYCsOB2/hn5vbiWTlvv/B2Gt8u9KmhO4RnPXS94F2dMVeVT0Sq+H5Qv4hr6eb3ul9B2tVvxTmd9En4iOCq9696x3rm4GrexJP/LKula3Aunda/3x9M2h0lxeiWdjBSBk2SQzr7bCmJ3SvX8pb0yZlp5Rr7zQaX5UXtqOKq5Stq9ekHnunqw7r5EYS7bFOnJcvK6A2s6zvxjohZ2WEM1akiLK6Oa1wXu20krYmYqMv5sXxoD6otfAeiFX3IbsFaz0N90ztW1ir7ckfXcM5zwpcPVOmDCzgY+80jriXMCklCvqfFFibnMcaWFMjN0kM60JYS6ksDj5bwIFHU6blppbpn57OQE5W5u9UxWW2dZnl59FU1WH9bO0ZLmlAbQTr09IlrOWsHxRkVjZ2+47igS8L/abukDy0OzCaqF6MfMPzN3CRNajX/nsm9z2sSRdUF1PRpH4Z6JXL5rEPeqdw1fuu01CBdfekwXmmLbKslcqiCtNJPVO6Jr/dxF/t/MTWM0rn4JVXy/iYoEhPUL3y0h57NIXPH/vwSlitOijp/ukVTTdPlN+Hr6uWB1ox5UXSjYvyj1sWNYG6GNY/yj/hSuQGxEykanmptg6sPD+V23XpCcjlobWmtfvfrzzAmWA35lPWT6lL96LAWnnI67T9h6/rAtZqnYqJNC57l/EpvWU80ikPbdtW97sn8f7ALIYDMVDflVkbbHzhL0v3hW4QAo9JqlfLmlwdnmAMh0YX8GW/Dx8okJ40LSttOX7eO4k5OVFWBakC2s1WEYpRPVYR1q9Sk7i0CWcV0upW28F4VmrCYvqdJbKbe9uvv41mEzgV6jaFNQH7Hyvt8KfKmw/ZrOwahufh6jHQdNdEXcGayokW7p2REviYwmC7X5fc1n/zaApf9PtMfj+JxuHy+juKYE2VZZC6X+9Ly5oqZT23gfh6BmJiHUvRNXjDcQwuyvjFu4K/Pp2B64EXrk5v/mlpVD56x7sn8b+PJuGuYpieXgN0dU0Y12OVYB3MBLdZ0yqoVcv6R5oKVb4Cb3KyZg8uvfKx6zEaCHM82IUjOhY2gVpN54Q+RDLWPvwVWNMbmZ6O6xDWWo10zAr4w2Pf7tu/Xll2WwVrauQmaUFOYCW65pjklxOYC8eV5A3F8GI5gqfzIh74BFzwruDkiwUcH57D90Nz+PvTGXzdP43PqYCpDDrNy8KsnNTv/v7UB8qDtuJrsa88WIzqsdNreX4W00s4txn1oQW0dl+1rEfXxiy/fi3KtFbXWEiJaAh0brOwVVDT9tBKBxqFXtCqNFblq4GMEiPNdLxCPF35BEdW5bXW56For+XVFC6NL+aNNqNyKvF445AVlvVOF+vwwOWo9AquBzppp/us8PuDDydweXi2Zmu+FYvXFNYPrIU1LSDwS7TF1KrOW9ZN6Iz3WAaX4nveT5/HEwvbQvq0sFb3fwoPWjZopuGJzwTWnrqGtVZbY4EoPu95jQMVMKJxaLasdlDoBqkgA4ZP5Xo6Z4cHjaNv4BVWC0J5tJVdi33FbWNU7hbCOj/o5QZ+LIr80FrUtP+j/C88jPftan6FWpSTna8xmpjDscCDLQtbBXTxtj0yXlbDL773hgGfsdXYzrDWlhcNaLs7ufLOPWrU1vSOd3rBsNYrmFoc6/TiQLsHn3Z5a9qJqBVP8b7y9qN37+R37/BY0rhpAYH2ePuOFjXBuiV6A8mc8Yiv4vzz57fKCMn2yNiW/7oY0urnI4EOPIp6Kh5RaQrr++NsWetMNRFLpfHNo9d4j97e9dqb3jHLYN3xCi5OO5SBB652Dw60j+Ob/in88moJU0L15vkoB1yu9nHje7hfuSVGoH4U7yvJor4Za0Uka6/yKadM9+J/aFrVW/KoMuxchbPe9mSgEy/ilU192zAwveni1GHAPYa1Uf1ThNwjXxBfPXqtcGFnfnrQ+Ky8+XkK3SDteRARjDhpyuD+OFxtbrjuuPGHh170+IJYjqeQzGT31N1hJCAX5deoDiuENU13+jQxaBiip3WBXJKvQcxYM9LP6F73+3EC9pXw4FYkiB6s6di3y/fgTSyW/dakwJoe8nq6uTfGlrWOZa1qjzogE+ksrr+Yz3NCrwy3jo3j9GB5o1GLYE2Vtc/TvXEoMKOtTjrY4cH/9Uzg731TOPLEhzMj82jzLsGzLIMGxKgVZOet696YcT3eqywaw5uawI8GsdQqqCnW+qL8E3ypyqw9O5dxLfNGU6WeCvYoUSBGsKbjRwOdeJMSy9KoAmvlIa/T/tvcDGsTWKtaIGiPLEdwiN5SjMqy3SJYf97pwX5If+n24rtHE1vp2MA0KF0YmsXl4Tk0e5ZwfyqAh9MBPJ4TMBqIYVKMK0HwNEdAOJHCaiqTt5xLqCS1suyypQeOUT1+WIHPWs7E0RT5GVej13Atet0wNUdb4E+XN1mNXcrQbvmQMwk0Cf04Feg2TCcD3bgkDJQF65MD04aaOdjObpDd6IGs7N45Ab/p9OqW6aVhC6JBomsb4MRlwBpgDbAG7KeBAjcIV5D9KojrhOuENcAaIA0wrPltgt+mWAOsAQdogGHtgEpiy4otK9YAa4BhzbBmq4o1wBpwgAYY1g6oJLaq2KpiDbAGGNYMa7aqWAOsAQdogGHtgEpiq4qtKtYAa4BhzbBmq4o1wBpwgAYY1g6oJLaq2KpiDbAGGNYMa7aqWAOsAQdogGHtgEpiq4qtKtYAa4BhzbBmq4o1wBpwgAYY1g6oJLaq2KpiDbAGGNYMa7aqWAOsAQdogGHtgEpiq4qtKtYAa4BhzbBmq4o1wBpwgAYY1g6oJLaq2KpiDbAGGNYMa7aqWAOsAQdogGHtgEpiq4qtKtYAa4BhzbBmq4o1wBpwgAYY1g6oJLaq2KpiDbAGGNYMa7aqWAOsAQdogGHtgEpiq4qtKtYAa4BhzbBmq4o1wBpwgAYY1g6oJLaq2KpiDbAGVFj/P/iVPvQkrdcrAAAAAElFTkSuQmCC;" vertex="1" parent="nT65vj2aPwtn-zFBRUwP-26">
          <mxGeometry x="600.5" y="60" width="99" height="30" as="geometry" />
        </mxCell>
        <mxCell id="nT65vj2aPwtn-zFBRUwP-29" value="Contabilidad" style="swimlane;horizontal=0;whiteSpace=wrap;html=1;" vertex="1" parent="1">
          <mxGeometry x="-40" y="160" width="860" height="150" as="geometry" />
        </mxCell>
        <mxCell id="nT65vj2aPwtn-zFBRUwP-30" value="&lt;b&gt;CAUSACIÃN&lt;/b&gt;:&lt;br&gt;&lt;div style=&quot;text-align: left;&quot;&gt;&lt;span style=&quot;background-color: initial;&quot;&gt;- FacturaciÃ³n&lt;/span&gt;&lt;/div&gt;&lt;div style=&quot;text-align: left;&quot;&gt;&lt;span style=&quot;background-color: initial;&quot;&gt;- Notas CrÃ©dito&lt;/span&gt;&lt;/div&gt;&lt;div style=&quot;text-align: left;&quot;&gt;&lt;span style=&quot;background-color: initial;&quot;&gt;- Notas DÃ©bito&lt;/span&gt;&lt;/div&gt;&lt;div style=&quot;text-align: left;&quot;&gt;&lt;span style=&quot;background-color: initial;&quot;&gt;- DSA Documento Soporte a las Adquisiciones&lt;/span&gt;&lt;/div&gt;&lt;div style=&quot;text-align: left;&quot;&gt;&lt;span style=&quot;background-color: initial;&quot;&gt;- Impuestos saludables&lt;/span&gt;&lt;/div&gt;" style="rounded=1;whiteSpace=wrap;html=1;" vertex="1" parent="nT65vj2aPwtn-zFBRUwP-29">
          <mxGeometry x="50" y="20" width="260" height="100" as="geometry" />
        </mxCell>
        <mxCell id="nT65vj2aPwtn-zFBRUwP-31" style="edgeStyle=orthogonalEdgeStyle;rounded=0;orthogonalLoop=1;jettySize=auto;html=1;entryX=0.5;entryY=0;entryDx=0;entryDy=0;" edge="1" parent="1" source="nT65vj2aPwtn-zFBRUwP-30" target="nT65vj2aPwtn-zFBRUwP-5">
          <mxGeometry relative="1" as="geometry">
            <Array as="points">
              <mxPoint x="95" y="290" />
              <mxPoint x="95" y="290" />
            </Array>
          </mxGeometry>
        </mxCell>
        <mxCell id="nT65vj2aPwtn-zFBRUwP-32" style="edgeStyle=orthogonalEdgeStyle;rounded=0;orthogonalLoop=1;jettySize=auto;html=1;" edge="1" parent="1" source="nT65vj2aPwtn-zFBRUwP-24" target="nT65vj2aPwtn-zFBRUwP-27">
          <mxGeometry relative="1" as="geometry" />
        </mxCell>
        <mxCell id="nT65vj2aPwtn-zFBRUwP-33" value="Parte 1: Alistamiento prerrequisitos servidor:&lt;br&gt;&lt;br&gt;- Ticket de acompaÃ±amiento a AC.&lt;br&gt;- ConfiguraciÃ³n de Roles y CaracterÃ­sticas.&lt;br&gt;&lt;br&gt;- RevisiÃ³n de manuales de instalaciÃ³n, instalador semilla de la aplicaciÃ³n y Ãºltimos ajustes.&amp;nbsp;&lt;br&gt;- Tiempo en acompaÃ±amiento: 3H&lt;br&gt;" style="rounded=0;whiteSpace=wrap;html=1;align=left;verticalAlign=top;" vertex="1" parent="1">
          <mxGeometry x="880" y="440" width="270" height="250" as="geometry" />
        </mxCell>
        <mxCell id="nT65vj2aPwtn-zFBRUwP-34" value="Parte 2: InstalaciÃ³n del Adaptador Universal:&lt;br&gt;&lt;br&gt;- InstalaciÃ³n del sitio (semilla).&lt;br&gt;- ActualizaciÃ³n del sitio.&lt;br&gt;- Esta actividad se realizarÃ¡ con acompaÃ±amiento del Especialista.&lt;br&gt;- Validaciones iniciales.&lt;br&gt;- Dejar detenido el sitio IIS.&lt;br&gt;-&amp;nbsp;Configurar la key que proporciona Facture en el Web.config del nuevo servidor.&lt;br&gt;- Tiempo en acompaÃ±amiento: 1H.&lt;br&gt;&lt;b&gt;***ActualizaciÃ³n &quot;Impuesto Saludable&quot; --&amp;gt; SS&lt;br&gt;&lt;/b&gt;- Se legalizarÃ¡ a travÃ©s de un Cambio.&lt;br&gt;&lt;br&gt;*** AquÃ­ los dos servidores estÃ¡n funcionando en paralelo." style="rounded=0;whiteSpace=wrap;html=1;align=left;verticalAlign=top;" vertex="1" parent="1">
          <mxGeometry x="1241" y="440" width="270" height="250" as="geometry" />
        </mxCell>
        <mxCell id="nT65vj2aPwtn-zFBRUwP-35" value="Parte 3: Cambio de nombre e IP de servidor:&lt;br&gt;&lt;br&gt;- Se legalizarÃ¡ a travÃ©s de un SS&lt;br&gt;- DesconexiÃ³n del servidor vmpruhato antiguo, solo quedarÃ¡ disponible por vmware.&lt;br&gt;- ReAsignaciÃ³n de nombre de servidor e IP a vmprudinamarca para que quede con las del servidor antiguo.&lt;br&gt;- Subir el sitio IIS.&lt;br&gt;- Validaciones iniciales.&lt;br&gt;- Actividades de Monitoreo.&lt;br&gt;- Tiempo en actividad: 1H.&lt;br&gt;&lt;br&gt;*** AquÃ­ solamente deberÃ­a quedar un servidor funcionando activamente" style="rounded=0;whiteSpace=wrap;html=1;align=left;verticalAlign=top;" vertex="1" parent="1">
          <mxGeometry x="1600" y="440" width="270" height="230" as="geometry" />
        </mxCell>
        <mxCell id="nT65vj2aPwtn-zFBRUwP-36" value="" style="image;html=1;image=img/lib/clip_art/networking/Firewall_02_128x128.png" vertex="1" parent="1">
          <mxGeometry x="585" y="604" width="50" height="40" as="geometry" />
        </mxCell>
        <mxCell id="nT65vj2aPwtn-zFBRUwP-37" value="" style="edgeStyle=orthogonalEdgeStyle;rounded=0;orthogonalLoop=1;jettySize=auto;html=1;" edge="1" parent="1" source="nT65vj2aPwtn-zFBRUwP-14" target="nT65vj2aPwtn-zFBRUwP-36">
          <mxGeometry relative="1" as="geometry">
            <mxPoint x="610" y="565" as="sourcePoint" />
            <mxPoint x="610" y="698" as="targetPoint" />
          </mxGeometry>
        </mxCell>
        <mxCell id="nT65vj2aPwtn-zFBRUwP-38" value="Actividades previas al paso a PRD:&lt;br&gt;&lt;br&gt;- Escaneo de vulnerabilidades una vez estÃ© configurado totalmente el servidor y el AU.&lt;br&gt;- DocumentaciÃ³n correspondiente al paso a PRD.&lt;br&gt;" style="rounded=0;whiteSpace=wrap;html=1;align=left;verticalAlign=top;" vertex="1" parent="1">
          <mxGeometry x="880" y="880" width="270" height="160" as="geometry" />
        </mxCell>
        <mxCell id="nT65vj2aPwtn-zFBRUwP-39" value="Parte 3B: Cambio de IP&#39;s entre servidor&lt;br&gt;&lt;br&gt;- Ticket de acompaÃ±amiento a Plataforma.&lt;br&gt;- Nadie puede utilizar el adaptador" style="rounded=0;whiteSpace=wrap;html=1;align=left;verticalAlign=top;" vertex="1" parent="1">
          <mxGeometry x="880" y="724" width="270" height="106" as="geometry" />
        </mxCell>
        <mxCell id="nT65vj2aPwtn-zFBRUwP-40" value="Parte 4: Pruebas funcionales - RegresiÃ³n&lt;br&gt;&lt;br&gt;-El Funcional prueba que el AU funcione bien.&lt;br&gt;&lt;br&gt;&lt;b&gt;- Legalizar las actividades con un paso a pruebas Evolutivo Normal&lt;/b&gt;" style="rounded=0;whiteSpace=wrap;html=1;align=left;verticalAlign=top;" vertex="1" parent="1">
          <mxGeometry x="1241" y="724" width="270" height="106" as="geometry" />
        </mxCell>
        <mxCell id="nT65vj2aPwtn-zFBRUwP-41" value="" style="shape=image;verticalLabelPosition=bottom;labelBackgroundColor=default;verticalAlign=top;aspect=fixed;imageAspect=0;image=data:image/png,iVBORw0KGgoAAAANSUhEUgAAAdMAAACtCAYAAADroZWoAAAgAElEQVR4Ae2dMZIcuRFFdRjeg3cgb7DBC/ACPAAPQJ82fbpr01GEGGtS5q5JTzQUoRjFb+m3/uRkAuguYDVg/YpoVRWQSHy8TCB7hhT3Lw++TMAETMAETMAE7ibwj3/84+Evd4/2QBMwARMwARMwgQcXUyeBCZiACZiACRwk4GJ6EKCHm4AJmIAJmICLqXPABEzABEzABA4ScDE9CNDDTcAETMAETOBaTP/2t789+GMGzgHngHPAOXDGHDj6deBRMT3qzONN4BYC2LC+nieBXWOzq+6VWWAmfbozGLmY9jnbYhGBGQm8SNrp3e4am111r0w4M+nTncHIxbTP2RaLCMxI4EXSTu9219jsqntlwplJn+4MRi6mfc62WERgRgIvknZ6t7vGZlfdKxPOTPp0ZzByMe1ztsUiAjMSeJG007vdNTa76l6ZcGbSpzuD0VAxff/+/cPLly8fvn379kjV9+/fH968efOk/dOnTw8vXry4fl6/fv0AW73gM2unzZcvXy7jcceFuaFB/WIeXlk/5tAL7zoez/SvdnjObN++ffvw48ePqyme0aY+M04cAAZYM+11/dl81EYWHIc71451IwaRL+bEOGrW59H1UXfGltpo09JIm3ivEphcOUc2P9cfffp9DoEsNjEuOpOeBa2c1DHIeeantjPe6I8X4p610y7TjT6MyXJG18TnTBP9wwf3OPJT9zBtMFfUmDHBePriWNypQ/d7nCfbb3FO+qyYoD/zk2miL8yhuiIrao/tHI+7MqQGtcccmQbNMYzLmKK9pxE28WoxirbV+3Ax/eWXX54kSFwcJsFCqsAjcLxgB5+tBEfQOCaCw/urV6+uhTz2Qxt0qH/Mqe/Ukt0zW7RpkJk41Jj5YVvUi/avX79e9WfzcSz8a7LBF3SgnRqydanP6EP7OE9cH9oxTuOANrKFPa/oXzXSJt6rBOaa4BPXSGyjb78fI1DFBnmmuchZNP4xXrTRO2zgBx8864V3nA26v9mP+TXv2M57pRv64rmEMaoVeffu3bvLvMw9+sWdec8zIDv/aBPnUj7wxbkwX9y7Mf9hjzUr9+hPdcbnignsMj9ow55XXdSkGjAeNuSBd64LsYOfeJGPjokasNaReqOx49zMKejgFTWyXe8tRmrXeh4uph8+fLgkowKKyYS+mEScvAIWgwN72OKnLXw4XwWu6ocfQNSNh2dNEGrL7pWt+mSCUUPmh22wydbK/mo+9Gdj1R6aou8sNmqj46kBd10fEz9bX88/fFVzcL4qgSPXGHuMhyb497WGQBUbxCIrchrrLF5RJfKMnxhHjseZozkLH5qf0SfeK91VLqs/5l12kHNu6OFv42gPH7yQl+ATGSkf2GKNKKT4Qh1/s0S/uu/IBOvAhb7IhhrivWLS8hPnwxqr+Y4wzDSA1Ui9uVdj5IP3FqPMPmsbLqYAhgBqsYwHakwYnTCz/fjx4yVAmjQYAz+//vrro74ILiZT7IcfDTL9om3kqtai82RJX/nGuLjB1LaaDzZxrWhT+8x3HBPfdbzq0PXFMWoXNWS21Rz0UyVw5KqaODbGlu2+zyHQi43uo7i3s3ipKsQXhQR2mS3bfv/998sZoHP14l7pxvzIR3x4xTzj++fPn68FU22hGXnOYoq+qAfvbMMdV+TDcejnnPDLK2sjE/jCle03jo/3FpPKj2rQ5+gb76qNtrcwjBp4bqC9VW+yeTEmu9Q2628xyuyztpuKKRxoQmqSEGK1mNivwPQbDxfNjUR/aMevBvj7ev01AXRxHJMN77F4YU6Ox10DFeFQX2zP1qw+dS1xLNYC28ympQ3jdAzeVTvZcvPGd+iIPkbWx0MhroPv2h/9R40co/cqgakfPnDF2CIGWD/71aef5xCoYgPviLvmY3yP8YqK0I/ChDjHWMNWx+NZ97HmXPSL95bumJPxXbXEeWCLNeNc0mKqWjGeXxJgjz0W14N3tcN7nEt10B5zw44X/Ou5g2e0ZVePicZSx/OM0DNP+/ms/ao9rqtiyHaMxcV5+UyOOg/6lH3suziS/+n1txiJm+bjzcVURemzQsxmjP0Epj4wju3RXsHBDuP0QEW/FtssQeg70xfbKlvVGzVGH9U7kgzJr5ujmg8+4saBbbzgi2uOrOiD/Xiv5tP1xc2QzUktIxrj+CqBI9cY29bBEefw+30EqtjAG+LBAhdjxf74q0tVEXMv5lnMX+3XZ/XJ55bueGZEHboW1aDtuj8wp/bpGH2OmmPxUFv1yWIZf3CATfTB9Wf3FpOWH/KJa45zaH/FQ9vVPlsL50Wf2uoz+pRb7GtpjH14bzHK7LO2m4spnCA5cDDHb2kKIU4WF6u2TDa1UfjwpeDoG4kAP7GfY+FXL51T27PnylZ1cB7ouPXCWvXLQDUf/GrCx3GcV9mRJ/uiD7xX8+n6dF71xWf1obaVRo7jvUrgyFU1cazvawlUseGsjH0Wm6yN45gbLBS8a8GI4zkGOZblNn3j3tPN8bpfOD7mXbbGbBztoA/PuNQX2tDHC+9ct955XulYjEG7fhFGm+43+q3uLSaVH9Wgz9kcGq9oSzZqExlGDRzDubj+WG/UZ5yXY3lXW7bpvcVI7VrPdxVTCscfEuuvPCIUnTj2KTDARbLAH9pxcQ6Mw5XB4MbI+mHPb88XB40Cwn69q76qPWpUu5FnnUOf49jIDu/6a17aw0f159DRRzWftsek5zy4x77ov9KoPqoEjlyz2KsfP88nUMWGMzHeyDfkjF6teHEcYqyX5l02nvmkZ4SO53NPN33jz/RigcryDr+2xYeFLuY95uWaYIdnXlhTPCOz8eoDGqIOvlNDtOd81b3FhNoxh16xXc9atcOz9lErOYB3j2GcS3MB/ukzsmQswTTquDTI/6hGab4+thhdjToPdxVT+MRC8G1Sv1GiHSBikgJWZqfJgXFqQ4AaFP3VEQDqT3YRLLTAv2qJQWqxibbUo/7YRo0tf7BRu6g/zqe+ME7nRR/s8dELdvimmxXa6CPOx7XEeTBO44L5qF3jF/1XGlVvlcDUAp+4stiqHz/PJ1DFhjMxB5BvjBP7WvGKeccxmj/VeIzFfDHv6QP3nm7mFvxo/mIs+7gevut+wrr1BwiMI4u4T+AHX+hRTOALl67z0vDf/1G/nJc6YAIm+sNB5Ud98rnFJPMDLnEt1BTZw1b50I7a+a42ulZojBqyHMH6oUl1xTzhXD2N5KL3FiO1az3fXUzhNIPOdiQrPwqSYiIwgNGkIxgGhTDpM26GCBbz0Afh4q7jow9qwz2zpRba0X/0Ge1gn+lXu2w+bnbYxSLHDUwbzME2rpc6cY8+svlUj47tac/8o416VKP6rRKYXKkni6368fN8AlVsdCbkULa3s3yB3V//+tdHBUF9MVcQ8yretMnym75GdFfnVsw7+IQenQ8aYjHluN4epV21HzAPPrRj/nNtGEfe6IvnTpyf41pMMj+6XvrgHX06b5wz095jiH71gzkyRjFuVZ70NHItem8xUrvW81AxbTlwnwncS2BGAt87t8e1Cewam111t6NxrNdM+vxmMHIx7XO2xSICMxJ4kbTTu901NrvqXplwZtKnO4ORi2mfsy0WEZiRwIuknd7trrHZVffKhDOTPt0ZjFxM+5xtsYjAjAReJO30bneNza66VyacmfTpzmDkYtrnbItFBGYk8CJpp3e7a2x21b0y4cykT3cGo0fFFA79MQPngHPAOeAcOFsO9Etu2+JRMc1MzwbU611ziFS5lbW77f9PAPtgx2tX3StZm0mf7gxGQ8W0L8UWJlATqBK1aq89uefPIrBrbHbVvTKuZtKnO4ORi2mfsy0OEqgStWo/OJ2HTyCwa2x21T0hZKULMynRXDtmMHIxveL0wyoCVaJW7at02O84gV1js6vu8cjcbmkmfWYzGLmY9jnb4iCBKlGr9oPTefgEArvGZlfdE0JWujCTEs21YwYjF9MrTj+sIlAlatW+Sof9jhPYNTa76h6PzO2WZtJnNoPR3cW0+seI9R865rP+I8ZxWfEfL87+4WW08Yr/iLH+VwRgE//RZI6L/yhy9IN/vDnTqevkeviPTdM37tE/+9AOjboG9nGtWR9sWv+wN8bEtWMMNeo/Rp3phW1kgPd4oS3jEu1a71WiVu3qC/z0P4DAPtUedSOnuP6MEX3oHWPwiRdjQH8aK52nYqz+4AsscddL/YyyxppVC/wpk7juuA6sJ1svdR2Jzch6MhZZ7sbYUl91b+mO/pVRtX+reXZqbzHBOjRemhfkFfNsp7WPau0xGvFzdzEF4OwA0aREMHAQ4j8dlAWEG1yTGnZ6oMRihM2lhwCeVUccTwiqC23RD9tUC9s4n66HbZV/tmMeftjGO7TG/0QT+3DHHEhujNeLOsA26sg2AMYrU3KPfvHfpkQfLzDDOHzwfO9VJWrVznmgD+tX7ehDu2rHMzlAP9bBC4w1P9jOO1noIcK+mHtsxz36xfxRp9ozllFLHId3XZv6wDM1QS808Irrjn4xTv8ThhxX3e+NTZw3Ww/aoD+ywBrif5Gl0le1V7oZZ2UGJl+/fr24upVPNf9zbK+YQGvcSzg/8N96xZWdJc9xfTM0tRiN+r+7mGbJiUl18zAYv/zyS3pAcOPpBkKyx0MJdvjg0oMT73EDZuNhFzdL9HNxHvTH+bgeHNb63xbM/KMN2rCWv//97+khAa3wE31xLLigYMbDFWtBOw6CeEBSYzw0aMd+8sRc1UXuuEcN1ZisvUrUqh0+MB8+MZ4x3rCNsVUNXK/yYL/mMOaKTLI2jo1MWhpgizyI8cq0ZevjnJgDuQI/8JetSW0Zc7QxZzDnyHVPbEbWU7GAJu4X3O+9Kt2t+GCuXv+9ep7DuIpJFi/V2+tX292fK0a3rOvuYopJeOBxwgif7/img42NhOWFPhQEHAjaFw9PzsODLh5w8fDJxsNH3CzRD3W17LgezMFDAW2Zf7TBDvPgyuajVhRn2l2MZSzmiX1ow0f1cFzWpmvSZ47J7vCD+MB+dEzmB21Volbt6oeMyDnGG7ZZG320+miDe4wPxqFg4Z5dYKJfgrI4xXGRYxarrC36GbGJ64kco8/4fk9sMl1ZG+aKLKq2qKv3XulGHPGTMDhkV6Yns9uxrWKCtSBP4vnCNVaxY//PdG8xGl3noWKKxNRf1cR3DUY8bLi5f//992YxjYdWPCRiMtAv5tYrbpboh7bx8FU7XQ+fsS5c0T/aMBZ6cGW62BYZ0Df6Izf0scjBb9avP7XQF3VyTrS3LqwH88COPjD2nqtK1Kpd58j0xphjbfHX8/SBPvDorVfjjLFcP77o4FeS+EQ/sMG86MP43pXlSNSH9cJfi3UVD47NxmvfiN57YzO6noyF8oTGyLvHF/0t3fSvZxZ9ZnrYt/u9xYS5lOUM+1q5uDsb6m8xok3vfqiYxm978UDSYGiyanssXnHTx0MScyDw/MRA4z3bhDo/oEStBBX1qJ3qhr361OfYh/foF22qVefRdhxO6OOlfWiL81Ij+UR+cTz9xrvqQV/UEe1b71WiVu3qK9Mb1/jhw4dHX8g4Hpqzg5P9eo/rBVewgw9esGEsoi689+aKsVK/jBe+wCB/4a+6uP6WDXRm+wA+OZ5ryea5NzbwBb+99VQsVEtrDWqnz6O6oU/XP6JH59npeYQJz3LNYeZJK8924tDSOsKoNR59h4opHPCQzYpFDAaSF/aauHEcAlcdApiPPvAMWw0+27LxmJM/aUU/eOel2tCm88X1sB82cRzWyQNF77DlpWvV8Ton+XIM+tQfn2GHK2pEu/LQeegz3rmx6Jv3WJjjuOq9StSqXf0oI23X57gmMlDWap89K3P0R5/a9scff6QFDz6gt7oyn9E27ofYj3eurzVXz6anZVZsqvX05sc6q7EZE7aN6FaG3DcjejjHbvdRJliXnhe9HNqNQ0vvLYwqP4eLKZMQfy6qhzYmjMGALQoaPkziuGF6h2c89PCODy/qgV+9ot/oh7axXd/jejAG86Cg49eB/AsfmR1so7ZMk/rBGHDi+iIralY/cW6+kzffMaa61J/aKAtt7z1XiVq1q79Ki9ooo5H16Vg+x7WBNfJZ84jxW1lMR9Y7ssaeDfci7LJrVmyq9ZCl8o06shhEm/g+optjNG9G9HDcbvdbmCiHXg7txqGl9xZGlZ/DxZTA8dMLD2xOxj5sKFx8158msWF6fwGJ/nDPDj34i3OwAGEM5lCbzA+1xS8EOh9tOBd14R3r57o0IWmDexyPcTof/ShH3fDRnr6VYZwDNtCjf1kmmwd2KOTwpWvmHLhX86tN9lwlatWuPnpzZmtTpuqLbJQv+7M1ow0fXvoOHzoPdGr8lTfHV3nB/pinlV62Y05eeNZ36KMe2Pz666/XLwYcn3Ggvxmxieuhb9wzFvhbymjnpbzZ1rtXuuGX/5cP+IgMMj29uXbpr5iAAfY87rw0r8lI84p2P9u9YnTLOg8XU0yGAGS/AsyCgcDoAaWFAL7Qr4dUXAzGxkMAY3R+zstfT+IeEwJ+tD+zwdw6H/1GX7Tj4YUx+GSXJmtcK/zjp3Y9UGAPX5w7rp1zcE7aRY0YR30Yw4NOGcAGc2eFQMdE39RQ3atErdrVT2SEPuikbo07+mDPPr33GKI/Y4t2+sGzXpWOimF2YEe9ypaxjLrYrrbwDRbUqrGOzGATfeq68HxvbFrr0TlGWETeOr56rnRX+U4/mR727X6vmGBdmt/ICz17szzbnUWlv8WoGhPbpxTT6NTvJqAEqkSt2nWsn/8/BHaNza66V0bZTPp0ZzByMe1ztsVBAlWiVu0Hp/PwCQR2jc2uuieErHRhJiWaa8cMRi6mV5x+WEWgStSqfZUO+x0nsGtsdtU9HpnbLc2kz2wGIxfTPmdbHCRQJWrVfnA6D59AYNfY7Kp7QshKF2ZSorl2zGDkYnrF6YdVBKpErdpX6bDfcQK7xmZX3eORud3STPrMZjAaKqaYyB8zOJIDWTrPSODMr9uOE9g1NrvqPh6x2oOZ1GzYM4PRo2IKh/6YgXPAOeAccA6cLQdYWO+9Pyqm9zrxOBO4hwA2q6/nSWDX2Oyqe2UWmEmf7gxGLqZ9zrZYRGBGAi+Sdnq3u8ZmV90rE85M+nRnMHIx7XO2xSICMxJ4kbTTu901NrvqXplwZtKnO4ORi2mfsy0WEZiRwIuknd7trrHZVffKhDOTPt0ZjFxM+5xtsYjAjAReJO30bneNza66VyacmfTpzmDkYtrnbItFBGYk8CJpp3e7a2x21b0y4cykT3cGIxfTPmdbLCIwI4EXSTu9211js6vulQlnJn26Mxi5mPY522IRgRkJvEja6d3uGptdda9MODPp053ByMW0z9kWiwjMSOBF0k7vdtfY7Kp7ZcKZSZ/uDEYupn3OtlhEYEYCL5J2ere7xmZX3SsTzkz6dGcwcjHtc7bFIgIzEniRtNO73TU2u+pemXBm0qc7g5GLaZ+zLRYRmJHAi6Sd3u2usdlV98qEM5M+3RmMXEz7nG2xiMCMBF4k7fRud43NrrpXJpyZ9OnOYORi2udsi0UEZiTwImmnd7trbHbVvTLhzKRPdwYjF9M+Z1ssIjAjgRdJO73bXWOzq+6VCWcmfbozGLmY9jnbYhGBGQm8SNrp3e4am111r0w4M+nTncHIxbTP2RaLCMxI4EXSTu9219jsqntlwplJn+4MRi6mfc62WERgRgIvknZ6t7vGZlfdKxPOTPp0ZzByMe1ztsUiAjMSeJG007vdNTa76l6ZcGbSpzuDkYtpn7MtFhGYkcCLpJ3e7a6x2VX3yoQzkz7dGYweFVM49McMnAPOAeeAc+BsOdAvuW2LR8U0Mz0bUK93zSFS5VbW7rb/PwHsgx2vXXWvZG0mfbozGA0V074UW5hATaBK1Kq99uSeP4vArrHZVffKuJpJn+4MRi6mfc62OEigStSq/eB0Hj6BwK6x2VX3hJCVLsykRHPtmMHIxfSK0w+rCFSJWrWv0mG/4wR2jc2uuscjc7ulmfSZzWDkYtrnbIuDBKpErdoPTufhEwjsGptddU8IWenCTEo0144ZjFxMrzj9sIpAlahV+yod9jtOYNfY7Kp7PDK3W5pJn9kMRj9tMf3+/fvDmzdvHr59+9YnaYulBKpErdpVDOL37t27hx8/fmjzw/v37x9evHhx+eBZr0+fPl37Xr58OZQDGINPvJBHr1+/vvr78uXL1UTngQ1sWxf63759+8RO/aA/rhU+ow6uHXdqAiusF22j6670HonN6HoiC6wbbbq2GNtKL9tbuqN/ZQR2OC96MeQ8O91bTLAOjRfY4x0XeTG/dlrzrVp7jEb8uZgWlLCJmVSFiZsHCVSJWrXTLQtmLDBo10NWY4XD8OPHj3RxKTStQqdFKsabxSk7TNCmfjE26ryKkANLx6A/jsO7rk19xGdo4JzQ+urVq+sXh6PF4d7YjKwHNji0IwvE4ugX4Eo346yxBKOvX79esB7lFWPznN4rJtAY9xIK6OfPny/yXUxvi6KLacFLD+jCxM2DBKrNXLXDLTe5Fgy0Zwdu6yBsHQh6wGbxztq45Fj0WhpYYHBw608/mbZsfZxT73Fs1APbln71lT3fE5uoCX7jeioWtMWXA4y596p0t+KDuXr99+p5DuMqJlm8VG+vX213f64Y3bKuu4tptlHZxg2Ebzj8tRM2EdrxbTR+K6U9v+2jX38Fw6DiJw60Y8P99ttvjw4mLFoPFPpUDfGbMOwxFz+Yn3OxTXWgn+24Y72++gSqRK3a1eNIMWWscSDGq9WntsxdtmFc62DHXPqToOYefcR7PLCZa1gjr6yNfXqPXLL5szb10Xq+JzaZ9qwN80YWVVtLY9ZX6UY8sf+VtY7P9Gj/zs8VE6wJeV+dY1XsdmZRaW8xqsbE9ruLadzMmoxMXP0VFIoSixmDhM2Oi/bsRxv885329Id+ne/iJCmmGM8x9MHEwTuKM+64oIW2eI+HK/RoYaU/roEafH9KoErUql09xDxDXzwAEAONjY6PcdU+fY7xRn7hz2qRI/wCpfmBsbDBvKNfrKqcVb9YL/zhXl3MPbWBby3u3FPM98pX1X5vbCLvaj0ZC+UJBsql0hnbW7rpn+eKjs30aP/Ozy0mzKUs59inebYzh5b2FqPWOO27u5his+qfb2ATcePGPgYFNrxa9rDhGARSnzk+S/6eT/iqNmj0Fw/X+A4dLX/U6fvD5d97zjiMJHDGmPmAAwCfDx8+PMpFzoV8yA5O9us9xpcHr+YsbPDBFXXhvTdXzDHOD59cCwo4chT+qgt+sr+UhTH0Ay3gQr2Vr6r93tjA38h6KhaqB36q/ap2+jyqG5yUzYgenWen5xEm/PKlOcx91srFnTi0tI4wao1H393FFINx0OAD6NjcSEhcsZiiDYmrQcE4JnNmr2OyoGbJ3/OJ+XVz6uGDzaWJBG3whyubH+2ZhssA/88jAlWiVu06OMZM+/gc48B4Mb9o17prvGEXfWrbH3/8kRY8+NAcj/NlPqNNtRfUDnnJ3NT2+BzXFPtb77NiU61nFou4hhHdGMMcIccRPXGuXd5HmWA94MEzkoxaOb0Lg57OWxhVvg4VUyQgiij+YoV+U842UDxoEDS04crsNZD6zIVkyd/zqQezPsNn9BcPovjOMbpuavP9MYEqUat2HR3jpH181rhnuUK71j3GFzmJQwV3XsyRlcW0t16sT7+4Ulu8Z3sq2rTeZ8WmWg9ZKt+oJ4tBtInvI7o5RvNmRA/H7Xa/hYlyuHcv7cYHem9hVK3vUDHlxsbmRmLyyjYyDitsLF6ayLDHT4Ww4YX+1jckjqFPJAH+/Io+Mg26sXV+zIn36idT9GOs/rkcEw3jfLUJVIlatas3jZm28xlx1z8rbNm3YhaLKfyjjfkU3zU/0Yd5mT9Rk2rVv83Ldt5jTmd69bDjuOwetWc2rbYZsYnr0fmydeBLOdp53bOGSjf88v/yAf+RbaaHOna/V0zAQP/eCNapeU1GyO2f/aoY3bLuQ8WU8HmIcOKskGFjaFAQNB5UtNe/7KE+q6DCH/+MCIUX46NP3ZywZ4HmRud4fCHQgw7jUDy1gOp8GOdCyoi371WiVu3qTWPGdnBn3DQ+6I8xoh3ygnmUxQ39Vbv6oAbcKx3IHS3wHJMd2FEv3nlletHPHKcd7jGfMxu17z3fG5vWenTOERb3rKHSHfnE/ZvpUb07P1dMsCYwZn7jzvMRfcw/zcmdObS0txi1xmnf4WKqzu59ZjFFQvv6+QhUiVq1/3wE9lvRrrHZVffKDDGTPt0ZjFxM+5xtcZBAlahV+8HpPHwCgV1js6vuCSErXZhJiebaMYORi+kVpx9WEagStWpfpcN+xwnsGptddY9H5nZLM+kzm8HoWRTT/lJtsTOBKlGr9p3X+rNo3zU2u+pemTdm0qc7g5GLaZ+zLQ4SqBK1aj84nYdPILBrbHbVPSFkpQszKdFcO2YwGiqmmMgfMziSA9eslYcZCSzu/DiRwK6x2VX3xNA9cWUmT5A8aZjB6FExhUN/zMA54BxwDjgHzpYDTyrsjQ2PiumNY21uAocIYLP6ep4Edo3NrrpXZoGZ9OnOYORi2udsi0UEZiTwImmnd7trbHbVvTLhzKRPdwYjF9M+Z1ssIjAjgRdJO73bXWOzq+6VCWcmfbozGLmY9jnbYhGBGQm8SNrp3e4am111r0w4M+nTncHIxbTP2RaLCMxI4EXSTu9219jsqntlwplJn+4MRi6mfc62WERgRgIvknZ6t7vGZlfdKxPOTPp0ZzByMe1ztsUiAjMSeJG007vdNTa76l6ZcGbSpzuDkYtpn7MtFhGYkcCLpJ3e7a6x2VX3yoQzkz7dGYxcTPucbbGIwIwEXiTt9G53jc2uulcmnJn06c5g5GLa52yLRQRmJPAiaad3u2tsdtW9MuHMpE93BiMX0yJc7UkAAAmFSURBVD5nWywiMCOBF0k7vdtdY7Or7pUJZyZ9ujMYuZj2OdtiEYEZCbxI2und7hqbXXWvTDgz6dOdwcjFtM/ZFosIzEjgRdJO73bX2Oyqe2XCmUmf7gxGLqZ9zrZYRGBGAi+Sdnq3u8ZmV90rE85M+nRnMHIx7XO2xSICMxJ4kbTTu901NrvqXplwZtKnO4ORi2mfsy0WEZiRwIuknd7trrHZVffKhDOTPt0ZjFxM+5xtsYjAjAReJO30bneNza66VyacmfTpzmDkYtrnbItFBGYk8CJpp3e7a2x21b0y4cykT3cGIxfTPmdbLCIwI4EXSTu9211js6vulQlnJn26Mxi5mPY522IRgRkJvEja6d3uGptdda9MODPp053B6FExhUN/zMA54BxwDjgHzpYD/ZLbtnhUTNum7jWBuQSwWX09TwK7xmZX3SuzwEz6dGcwcjHtc7bFIgIzEniRtNO73TU2u+pemXBm0qc7g5GLaZ+zLRYRmJHAi6Sd3u2usdlV98qEM5M+3RmMXEz7nG2xiMCMBF4k7fRud43NrrpXJpyZ9OnOYORi2udsi0UEZiTwImmnd7trbHbVvTLhzKRPdwaj7Yvp9+/fH968efPw7du3PrHC4tOnTw/v37+/9OL57du3Dz9+/Cis/9OM+V69enVo3uYEJ+ickcAnwPR/WeJIbLAH3r1792SvYA+9ePHi8qn2EvYt+nDnhT2HNo7FnfuSNr17S3f0//Lly+v+xVpwjqie3ly79LeYYA0aLzDHOy7y+vLlyy5LvVtnj9GIYxfT/ybTrZt2BK5t2gRmJHB7BvfeS6AXG+wXHLyxWMYvo3iPe4uH9+vXrx8VrxlfjCvd8I35tDCggH79+vWC6KzFFLHR+KCAfv78+cLExfS23eNi6mJ6W8ZMtK4OvolT2NWdBFqx4QGMwqTFNDt8Y4FksUURiz8Jwjb+tHqr/Ep3r1j2+m/V8ZzsKyZZvFR3r19td3+uGN2yrm4xxcbBBtCLbdwo+CaDX5nwVwT8Foh3/fZJe2xCtKNff9XC4H38+PHSjo3122+/Pdl0+m235xO66RfzxTnRr/70gOA6W2vHJsSFcfSPe2SmPvz8HwIzEtgs1xAYiY3uFajgPkM7r6wNfVnxytroZ/Re6eaZpNrU54y51d9zeq6YQCO/GGV6q9hltru3tRiNrq1bTOOG0aRjgvLbKfpQHFlAGQwWFtqzHyLhn++0pz/063xclBa/UZ9IGl46J9rUn65Xn2GnWjCv/lktvgCgDVf0f2n0/zwhMCOBnzh1wxQCI7GJ+wMTYy/p/oUNvlzirpfuJbbz/OCXUvVDm969pZv+ed6or0yP9u/83GLCMzeLEfti7HZmUWlvMarGxPZuMY1FQwtP7CN82PBq2cOGYxAwfeb4LMlv8ZmNj/OoP+jgJo7rU7vYR724t/rU7uzPMxL47AxXrX8kNrpXVAe+uLIg4i8oYT/FAznbl+oDz/DDvRj7qvdR3dCnX7BH9FRzPvf2ESY4s/AlQ79oxHPyua/ziL4RRj3/3WIKBygi+AAuNgcSD1dWNJCgunFGChDHZMHLkvwWn60NDz9cHzdWtIcNPr21Qyd/1Y2Nqr++vkzi/3lCYEYCP3HqhikERmIT90o2cXZGwC7b13F8NTba6fuIbtjzrOEZMKJH59npeZQJ1gQe/AJDRnqe77TuW7TewqjyO1RMkWgoovhLA/pX4bNkZ2HkhAgOC1VmrwHTZ47PkvwWn9l4+Fad6i8eECNrj3Nk6+R6fP8fgRkJ/D9vfppJYCQ2ca9k81c2cc9kY7GPcLDjPnqN6KYv3fcjejhut/stTJRDdh7vtvZRvbcwqnwOFVNARRHFBwnIKysaWqRgpwkLe/wagcWV/a1vQhzDb0cINn7qow/2873yqf3wpb/OUI1x84+sPY7Bu38yZZbU9xkJXHt3zxECI7GJeR/n496EXbz00GYfvqyjnRf2rO5btrfulW745f/lA+NZKHieZXpa8+zUVzEBA/xdD9x5gUfrPKbdz3avGN2yzqFiCoeArAUIbdgs+pdw0Ibk182jhYr2CCD/TEV9MsF1PHzinfYINMZzk/V8Yjz90ofOiX7ViLmYTOjD1Vt79I/xkct/XfkmBGYksLjz40QCI7HJ9oruVew3vGdXVrziWO7xbHzVVulmYecZgDv2Na9MD/t2v1dMsC4wViZ69vFcq2K4OxfV32Kkdq3n4WLacjLax8KHxPVlAjMS2BTXENg1NrvqXhPF/3g1kz7dGYxcTPucbbGIwIwEXiTt9G53jc2uulcmnJn06c5g5GLa52yLRQRmJPAiaad3u2tsdtW9MuHMpE93BqM/tZj2l2SLMxGYkcBn4vVnrnXX2Oyqe2VszaRPdwYjF9M+Z1ssIjAjgRdJO73bXWOzq+6VCWcmfbozGD0qpnDojxk4B5wDzgHnwNlyoF9y2xbXYto2c68JmIAJmIAJmEBFwMW0IuN2EzABEzABExgk4GI6CMpmJmACJmACJlARcDGtyLjdBEzABEzABAYJuJgOgrKZCZiACZiACVQEXEwrMm43ARMwARMwgUECLqaDoGxmAiZgAiZgAhUBF9OKjNtNwARMwARMYJCAi+kgKJuZgAmYgAmYQEXAxbQi43YTMAETMAETGCTgYjoIymYmYAImYAImUBFwMa3IuN0ETMAETMAEBgm4mA6CspkJmIAJmIAJVARcTCsybjcBEzABEzCBQQIupoOgbGYCJmACJmACFQEX04qM203ABEzABExgkICL6SAom5mACZiACZhARcDFtCLjdhMwARMwARMYJOBiOgjKZiZgAiZgAiZQEXAxrci43QRMwARMwAQGCbiYDoKymQmYgAmYgAlUBFxMKzJuNwETMAETMIFBAi6mg6BsZgImYAImYAIVARfTiozbTcAETMAETGCQgIvpICibmYAJmIAJmEBG4F//+teDi2lGxm0mYAImYAImMEjgn//8p4vpICubmYAJmIAJmMATAvyp1D+ZPkHjBhMwARMwARPoE0Ah/fHjx+WnUhfTPi9bmIAJmIAJmMCVAIoof7WLIsrPX/jg+/+gmIVZOAecA84B58AtOeBiKt8sbgFnW28054BzwDngHGAOuJi6mF5/TcGk8N0HhHPAOeAcuC0HXExdTF1MnQPOAeeAc+BgDriYHgTob2+3fXszL/NyDjgHfsYccDF1MfU3UueAc8A54Bw4mAMupgcB/ozfsLwm/+TgHHAOOAduy4F/A+1LlI0ftPExAAAAAElFTkSuQmCC;" vertex="1" parent="1">
          <mxGeometry x="1600.5" y="720" width="467" height="173" as="geometry" />
        </mxCell>
      </root>
    </mxGraphModel>
  </diagram>
  <diagram id="312ZLieff55E4QLoy9Cd" name="PublicaciÃ³n F5">
    <mxGraphModel dx="1426" dy="757" grid="1" gridSize="10" guides="1" tooltips="1" connect="1" arrows="1" fold="1" page="1" pageScale="1" pageWidth="827" pageHeight="1169" math="0" shadow="0">
      <root>
        <mxCell id="0" />
        <mxCell id="1" parent="0" />
        <mxCell id="3LoIfGp_q1wwVJskQXtz-1" value="" style="rounded=0;whiteSpace=wrap;html=1;" parent="1" vertex="1">
          <mxGeometry x="51" y="170" width="353" height="219" as="geometry" />
        </mxCell>
        <mxCell id="3LoIfGp_q1wwVJskQXtz-2" value="vmpcalarca&lt;br&gt;Sitio Adaptador Universal&lt;br&gt;http://vmpcalarca" style="rounded=1;whiteSpace=wrap;html=1;" parent="1" vertex="1">
          <mxGeometry x="149" y="253" width="147" height="60" as="geometry" />
        </mxCell>
        <mxCell id="3LoIfGp_q1wwVJskQXtz-3" value="" style="rounded=0;whiteSpace=wrap;html=1;fillColor=#dae8fc;strokeColor=#6c8ebf;" parent="1" vertex="1">
          <mxGeometry x="404" y="170" width="378" height="219" as="geometry" />
        </mxCell>
        <mxCell id="3LoIfGp_q1wwVJskQXtz-4" value="PublicaciÃ³n F5&lt;br&gt;&lt;b&gt;https&lt;/b&gt;://facturacionelectronica.compensar.com/&amp;nbsp;&amp;nbsp;" style="rounded=1;whiteSpace=wrap;html=1;" parent="1" vertex="1">
          <mxGeometry x="452" y="253" width="306" height="60" as="geometry" />
        </mxCell>
        <mxCell id="3LoIfGp_q1wwVJskQXtz-5" style="edgeStyle=orthogonalEdgeStyle;rounded=0;orthogonalLoop=1;jettySize=auto;html=1;entryX=0;entryY=0.5;entryDx=0;entryDy=0;" parent="1" source="3LoIfGp_q1wwVJskQXtz-2" target="3LoIfGp_q1wwVJskQXtz-4" edge="1">
          <mxGeometry relative="1" as="geometry" />
        </mxCell>
        <mxCell id="3LoIfGp_q1wwVJskQXtz-6" value="Proyecto" style="text;html=1;strokeColor=none;fillColor=none;align=center;verticalAlign=middle;whiteSpace=wrap;rounded=0;" parent="1" vertex="1">
          <mxGeometry x="66" y="186" width="60" height="30" as="geometry" />
        </mxCell>
        <mxCell id="3LoIfGp_q1wwVJskQXtz-7" value="Funcionalidades transversales de la compaÃ±Ã­a" style="text;html=1;strokeColor=none;fillColor=none;align=center;verticalAlign=middle;whiteSpace=wrap;rounded=0;" parent="1" vertex="1">
          <mxGeometry x="419" y="181" width="259" height="30" as="geometry" />
        </mxCell>
        <UserObject label="https://prufacturacionelectronica.compensar.com/default.aspx" link="https://prufacturacionelectronica.compensar.com/default.aspx" id="N7m3pMZoT2Tfdn-AdWFj-1">
          <mxCell style="text;whiteSpace=wrap;" vertex="1" parent="1">
            <mxGeometry x="422" y="420" width="360" height="40" as="geometry" />
          </mxCell>
        </UserObject>
      </root>
    </mxGraphModel>
  </diagram>
</mxfile>
